# Blender v3.3.1 OBJ File: 'BakeMeshMaps-HIGHPOLY_MODEL.blend'
# www.blender.org
mtllib barrel.mtl
o BarrelLowPolyAlt_Circle.003
v -0.000000 2.500221 -0.352627
v -0.134944 2.500221 -0.325785
v -0.301489 2.500221 -0.257536
v -0.334636 2.500221 -0.189461
v -0.352627 2.500221 -0.000000
v -0.325785 2.500221 0.134944
v -0.249345 2.500221 0.249345
v -0.134944 2.500221 0.325785
v -0.000000 2.500221 0.352627
v 0.134944 2.500221 0.325785
v 0.326466 2.500221 0.245309
v 0.359067 2.500221 0.203465
v 0.352627 2.500221 -0.000000
v 0.325785 2.500221 -0.134944
v 0.249345 2.500221 -0.249345
v 0.134944 2.500221 -0.325785
v 0.560453 2.500221 -0.000000
v 0.431544 2.500221 0.259933
v 0.517791 2.500221 -0.214476
v 0.396300 2.500221 -0.396300
v -0.214476 2.500221 -0.517791
v -0.000000 2.500221 -0.560453
v 0.214476 2.500221 -0.517791
v -0.419399 2.500221 -0.314947
v -0.452545 2.500221 -0.246872
v -0.560453 2.500221 -0.000000
v -0.517791 2.500221 0.214476
v -0.396300 2.500221 0.396300
v -0.214476 2.500221 0.517791
v -0.000000 2.500221 0.560453
v 0.214476 2.500221 0.517791
v 0.398942 2.500221 0.301777
v 0.456540 2.500221 -0.000000
v 0.421788 2.500221 -0.174710
v 0.322822 2.500221 -0.322822
v -0.174710 2.500221 -0.421788
v 0.174710 2.500221 -0.421788
v -0.343871 2.500221 -0.320279
v -0.410164 2.500221 -0.184129
v -0.456540 2.500221 -0.000000
v -0.421788 2.500221 0.174710
v -0.322822 2.500221 0.322822
v -0.174710 2.500221 0.421788
v -0.000000 2.500221 0.456540
v 0.174710 2.500221 0.421788
v 0.346403 2.500221 0.294466
v 0.411606 2.500221 0.210777
v -0.000000 2.500221 -0.456540
v -0.249345 2.500221 -0.249345
v -0.325785 2.500221 -0.134944
v 0.249345 2.500221 0.249345
v 0.325785 2.500221 0.134944
v -0.322822 2.500221 -0.322822
v -0.421788 2.500221 -0.174710
v 0.322822 2.500221 0.322822
v 0.421788 2.500221 0.174710
v 0.517791 2.500221 0.214476
v 0.396300 2.500221 0.396300
v -0.517791 2.500221 -0.214476
v -0.396300 2.500221 -0.396300
v 0.411606 2.538950 0.210777
v 0.346403 2.538950 0.294466
v -0.410164 2.538950 -0.184129
v -0.343871 2.538950 -0.320279
v -0.301489 2.538950 -0.257536
v -0.334636 2.538950 -0.189461
v 0.326466 2.538950 0.245309
v 0.359067 2.538950 0.203465
v 0.431544 2.538950 0.259933
v 0.398942 2.538950 0.301777
v -0.452545 2.538950 -0.246872
v -0.419399 2.538950 -0.314947
v 0.560453 0.018407 -0.000000
v 0.517791 0.018407 -0.214476
v 0.396300 0.018407 -0.396300
v -0.214476 0.018407 -0.517791
v -0.000000 0.018407 -0.560453
v 0.214476 0.018407 -0.517791
v -0.560453 0.018407 -0.000000
v -0.517791 0.018407 0.214476
v -0.396300 0.018407 0.396300
v -0.214476 0.018407 0.517791
v -0.000000 0.018407 0.560453
v 0.214476 0.018407 0.517791
v 0.517791 0.018407 0.214476
v 0.396300 0.018407 0.396300
v -0.517791 0.018407 -0.214476
v -0.396300 0.018407 -0.396300
v 0.000000 0.079113 -0.797511
v 0.000000 0.062428 -0.814514
v -0.311701 0.062428 -0.752513
v -0.305194 0.079104 -0.736804
v -0.575948 0.062428 -0.575948
v -0.563926 0.079104 -0.563926
v -0.752513 0.062428 -0.311701
v -0.736804 0.079104 -0.305194
v -0.814514 0.062428 0.000000
v -0.797511 0.079104 -0.000000
v -0.563926 0.079104 0.563926
v -0.575948 0.062428 0.575948
v -0.311701 0.062428 0.752513
v -0.305194 0.079104 0.736804
v 0.000000 0.062428 0.814514
v 0.000000 0.079113 0.797511
v 0.563926 0.079104 0.563926
v 0.575948 0.062428 0.575948
v 0.752513 0.062428 0.311701
v 0.736804 0.079104 0.305194
v 0.814514 0.062428 0.000000
v 0.797511 0.079113 -0.000000
v 0.752513 0.062428 -0.311701
v 0.736804 0.079104 -0.305194
v 0.575948 0.062428 -0.575948
v 0.563926 0.079104 -0.563926
v 0.311701 0.062428 -0.752513
v 0.305194 0.079104 -0.736804
v -0.294002 0.095780 -0.709785
v -0.300509 0.079104 -0.725493
v -0.555268 0.079104 -0.555268
v -0.543246 0.095780 -0.543246
v -0.725493 0.079104 -0.300509
v -0.709785 0.095780 -0.294002
v -0.785268 0.079104 -0.000000
v -0.768265 0.095780 -0.000000
v -0.543246 0.095780 0.543246
v -0.555268 0.079104 0.555268
v -0.300509 0.079104 0.725493
v -0.294002 0.095780 0.709785
v 0.294002 0.095780 0.709785
v 0.300509 0.079109 0.725493
v 0.555268 0.079104 0.555268
v 0.543246 0.095780 0.543246
v 0.725493 0.079104 0.300509
v 0.709785 0.095780 0.294002
v 0.709785 0.095780 -0.294002
v 0.725493 0.079104 -0.300509
v 0.555268 0.079104 -0.555268
v 0.543246 0.095780 -0.543246
v 0.300509 0.079104 -0.725493
v 0.294002 0.095780 -0.709785
v 0.000000 2.439503 -0.785268
v 0.000000 2.422823 -0.768265
v -0.294002 2.422823 -0.709785
v -0.300509 2.439503 -0.725493
v -0.543246 2.422823 -0.543246
v -0.555268 2.439503 -0.555268
v 0.300509 0.761022 -0.725493
v 0.294002 0.744346 -0.709785
v -0.785268 2.439503 -0.000000
v -0.768265 2.422823 -0.000000
v -0.709785 2.422823 0.294002
v -0.725493 2.439503 0.300509
v -0.543246 2.422823 0.543246
v -0.555268 2.439503 0.555268
v -0.294002 2.422823 0.709785
v -0.300509 2.439503 0.725493
v 0.000000 2.422823 0.768265
v 0.000000 2.439503 0.785268
v 0.294002 2.422823 0.709785
v 0.300509 2.439503 0.725493
v 0.294002 1.774256 -0.709785
v 0.300509 1.757580 -0.725493
v 0.725493 2.439503 0.300509
v 0.709785 2.422823 0.294002
v 0.768265 2.422823 -0.000000
v 0.785268 2.439503 -0.000000
v 0.709785 2.422823 -0.294002
v 0.725493 2.439503 -0.300509
v -0.300509 0.761022 0.725493
v -0.294002 0.744346 0.709785
v 0.300509 2.439503 -0.725493
v 0.294002 2.422823 -0.709785
v 0.000000 2.540596 -0.797511
v 0.000000 2.523920 -0.814514
v -0.311701 2.523920 -0.752513
v -0.305194 2.540596 -0.736804
v -0.575948 2.523920 -0.575948
v -0.752513 2.523920 -0.311701
v -0.814514 2.523920 0.000000
v -0.752513 2.523920 0.311701
v -0.575948 2.523920 0.575948
v -0.311701 2.523920 0.752513
v -0.305194 2.540596 0.736804
v 0.000000 2.523920 0.814514
v 0.000000 2.540596 0.797511
v 0.311701 2.523920 0.752513
v 0.305194 2.540596 0.736804
v 0.575948 2.523920 0.575948
v 0.563926 2.540596 0.563926
v 0.752513 2.523920 0.311701
v 0.814514 2.523920 0.000000
v 0.752513 2.523920 -0.311701
v 0.736804 2.540596 -0.305194
v 0.575948 2.523920 -0.575948
v 0.311701 2.523920 -0.752513
v 0.000000 2.456186 -0.814514
v 0.000000 2.439506 -0.797511
v -0.305194 2.439506 -0.736804
v -0.311701 2.456186 -0.752513
v -0.563926 2.439506 -0.563926
v -0.575948 2.456186 -0.575948
v -0.736804 2.439510 -0.305194
v -0.752513 2.456186 -0.311701
v -0.797511 2.439506 -0.000000
v -0.814514 2.456186 0.000000
v -0.736804 2.439506 0.305194
v -0.752513 2.456186 0.311701
v -0.563926 2.439506 0.563926
v -0.575948 2.456186 0.575948
v -0.305194 2.439506 0.736804
v -0.311701 2.456186 0.752513
v 0.000000 2.439506 0.797511
v 0.000000 2.456186 0.814514
v 0.305194 2.439506 0.736804
v 0.311701 2.456186 0.752513
v 0.563926 2.439510 0.563926
v 0.575948 2.456186 0.575948
v 0.736804 2.439506 0.305194
v 0.752513 2.456186 0.311701
v 0.797511 2.439506 -0.000000
v 0.814514 2.456186 0.000000
v 0.736804 2.439506 -0.305194
v 0.752513 2.456186 -0.311701
v 0.563926 2.439510 -0.563926
v 0.575948 2.456186 -0.575948
v 0.305194 2.439506 -0.736804
v 0.311701 2.456186 -0.752513
v -0.294002 1.774256 0.709785
v -0.300509 1.757580 0.725493
v -0.555268 0.761022 0.555268
v -0.543246 0.744346 0.543246
v -0.543246 1.774256 0.543246
v -0.555268 1.757580 0.555268
v -0.709785 2.422834 -0.294002
v -0.725493 2.439510 -0.300509
v 0.725493 0.761022 -0.300509
v 0.709785 0.744346 -0.294002
v 0.709785 1.774256 -0.294002
v 0.725493 1.757580 -0.300509
v -0.725493 0.761022 0.300509
v -0.709785 0.744346 0.294002
v -0.709785 1.774256 0.294002
v -0.725493 1.757580 0.300509
v -0.785268 1.757580 -0.000000
v -0.768265 1.774256 -0.000000
v -0.768265 0.744347 -0.000000
v -0.785268 0.761022 -0.000000
v 0.543246 2.422834 0.543246
v 0.555268 2.439510 0.555268
v 0.785268 0.761022 -0.000000
v 0.768265 0.744346 -0.000000
v 0.768265 1.774256 -0.000000
v 0.785268 1.757580 -0.000000
v 0.725493 1.757580 0.300509
v 0.709785 1.774256 0.294002
v 0.543246 2.422834 -0.543246
v 0.555268 2.439510 -0.555268
v 0.709785 0.744347 0.294002
v 0.725493 0.761022 0.300509
v 0.000000 1.774256 0.768265
v 0.000000 1.757580 0.785268
v 0.000000 0.761022 0.785268
v 0.000000 0.744346 0.768265
v 0.000000 0.744347 -0.768265
v 0.000000 0.761022 -0.785268
v 0.000000 1.757580 -0.785268
v 0.000000 1.774256 -0.768265
v -0.294002 1.774256 -0.709785
v -0.300509 1.757580 -0.725493
v -0.300509 0.761022 -0.725493
v -0.294002 0.744346 -0.709785
v 0.294002 1.774256 0.709785
v 0.300509 1.757580 0.725493
v 0.300509 0.761022 0.725493
v 0.294002 0.744346 0.709785
v -0.543246 1.774256 -0.543246
v -0.555268 1.757580 -0.555268
v -0.555268 0.761022 -0.555268
v -0.543246 0.744346 -0.543246
v 0.543246 1.774265 -0.543246
v 0.555268 1.757589 -0.555268
v 0.555268 0.761027 -0.555268
v 0.543246 0.744351 -0.543246
v 0.543246 1.774265 0.543246
v 0.555268 1.757589 0.555268
v 0.555268 0.761027 0.555268
v 0.543246 0.744351 0.543246
v -0.725493 1.757589 -0.300509
v -0.709785 1.774265 -0.294002
v -0.709785 0.744351 -0.294002
v -0.725493 0.761027 -0.300509
v -0.709785 1.625734 -0.294002
v -0.725493 1.642410 -0.300509
v -0.725493 0.876220 -0.300509
v -0.709785 0.892896 -0.294002
v 0.543246 1.625734 0.543246
v 0.555268 1.642410 0.555268
v 0.555268 0.876220 0.555268
v 0.543246 0.892896 0.543246
v 0.543246 1.625734 -0.543246
v 0.555268 1.642410 -0.555268
v 0.555268 0.876220 -0.555268
v 0.543246 0.892896 -0.543246
v -0.543246 1.625717 -0.543246
v -0.555268 1.642393 -0.555268
v -0.555268 0.876206 -0.555268
v -0.543246 0.892882 -0.543246
v 0.294002 1.625717 0.709785
v 0.300509 1.642393 0.725493
v 0.300509 0.876206 0.725493
v 0.294002 0.892882 0.709785
v -0.294002 1.625717 -0.709785
v -0.300509 1.642393 -0.725493
v -0.300509 0.876206 -0.725493
v -0.294002 0.892882 -0.709785
v 0.000000 0.892882 -0.768265
v 0.000000 0.876207 -0.785268
v 0.000000 1.642393 -0.785268
v 0.000000 1.625717 -0.768265
v 0.000000 1.625717 0.768265
v 0.000000 1.642393 0.785268
v 0.000000 0.876206 0.785268
v 0.000000 0.892882 0.768265
v 0.294002 1.625717 -0.709785
v 0.300509 1.642393 -0.725493
v 0.300509 0.876206 -0.725493
v 0.294002 0.892882 -0.709785
v -0.294002 1.625717 0.709785
v -0.300509 1.642393 0.725493
v -0.300509 0.876206 0.725493
v -0.294002 0.892882 0.709785
v -0.543246 1.625717 0.543246
v -0.555268 1.642393 0.555268
v -0.555268 0.876206 0.555268
v -0.543246 0.892882 0.543246
v 0.709785 1.625717 -0.294002
v 0.725493 1.642393 -0.300509
v 0.725493 0.876206 -0.300509
v 0.709785 0.892882 -0.294002
v -0.709785 1.625717 0.294002
v -0.725493 1.642393 0.300509
v -0.725493 0.876206 0.300509
v -0.709785 0.892882 0.294002
v -0.768265 0.892882 -0.000000
v -0.785268 0.876207 -0.000000
v -0.785268 1.642393 -0.000000
v -0.768265 1.625717 -0.000000
v 0.768265 1.625717 -0.000000
v 0.785268 1.642393 -0.000000
v 0.785268 0.876206 -0.000000
v 0.768265 0.892882 -0.000000
v 0.709785 0.892882 0.294002
v 0.725493 0.876207 0.300509
v 0.725493 1.642393 0.300509
v 0.709785 1.625717 0.294002
v -0.563920 1.757580 -0.563920
v -0.575942 1.740904 -0.575942
v -0.752505 1.740913 -0.311698
v -0.736797 1.757589 -0.305191
v -0.575942 0.777698 -0.575942
v -0.563920 0.761022 -0.563920
v -0.736797 0.761027 -0.305191
v -0.752505 0.777703 -0.311698
v 0.563920 1.757589 0.563920
v 0.575942 1.740913 0.575942
v 0.752505 1.740904 0.311698
v 0.736797 1.757580 0.305191
v 0.575942 0.777703 0.575942
v 0.563920 0.761027 0.563920
v 0.736797 0.761022 0.305191
v 0.752505 0.777698 0.311698
v -0.814506 1.740904 -0.000000
v -0.797503 1.757580 -0.000000
v -0.797503 0.761022 -0.000000
v -0.814506 0.777698 -0.000000
v -0.752505 0.859544 -0.311698
v -0.736797 0.876220 -0.305191
v 0.575942 0.859544 0.575942
v 0.563920 0.876220 0.563920
v 0.575942 0.859544 -0.575942
v 0.563920 0.876220 -0.563920
v 0.575942 0.777703 -0.575942
v 0.563920 0.761027 -0.563920
v -0.575942 0.859530 -0.575942
v -0.563920 0.876206 -0.563920
v 0.311698 0.859530 0.752505
v 0.305191 0.876206 0.736797
v 0.311698 0.777698 0.752505
v 0.305191 0.761022 0.736797
v -0.311698 0.859530 -0.752505
v -0.305191 0.876206 -0.736797
v -0.311698 0.777698 -0.752505
v -0.305191 0.761022 -0.736797
v 0.000000 1.659069 -0.814506
v 0.000000 1.642393 -0.797503
v 0.000000 1.740904 -0.814506
v 0.000000 1.757580 -0.797503
v 0.000000 0.859530 0.814506
v 0.000000 0.876206 0.797503
v 0.000000 0.777698 0.814506
v 0.000000 0.761022 0.797503
v 0.311698 0.859530 -0.752505
v 0.305191 0.876206 -0.736797
v 0.311698 0.777698 -0.752505
v 0.305191 0.761022 -0.736797
v -0.311698 0.859530 0.752505
v -0.305191 0.876206 0.736797
v -0.311698 0.777698 0.752505
v -0.305191 0.761022 0.736797
v -0.575942 0.859530 0.575942
v -0.563920 0.876206 0.563920
v -0.575942 0.777698 0.575942
v -0.563920 0.761022 0.563920
v 0.752505 0.859530 -0.311698
v 0.736797 0.876206 -0.305191
v 0.752505 0.777698 -0.311698
v 0.736797 0.761022 -0.305191
v -0.752505 0.859530 0.311698
v -0.736797 0.876206 0.305191
v -0.752505 0.777698 0.311698
v -0.736797 0.761022 0.305191
v -0.814506 1.659069 -0.000000
v -0.797503 1.642393 -0.000000
v 0.814506 0.859530 -0.000000
v 0.797503 0.876206 -0.000000
v 0.814506 0.777698 -0.000000
v 0.797503 0.761022 -0.000000
v 0.752505 1.659069 0.311698
v 0.736797 1.642393 0.305191
v 0.305191 1.757580 0.736797
v 0.311698 1.740904 0.752505
v -0.305191 1.757580 -0.736797
v -0.311698 1.740904 -0.752505
v 0.000000 1.757580 0.797503
v 0.000000 1.740904 0.814506
v 0.000000 0.761022 -0.797503
v 0.000000 0.777698 -0.814506
v 0.305191 1.757580 -0.736797
v 0.311698 1.740904 -0.752505
v -0.305191 1.757580 0.736797
v -0.311698 1.740904 0.752505
v 0.563920 1.757589 -0.563920
v 0.575942 1.740913 -0.575942
v -0.563920 1.757580 0.563920
v -0.575942 1.740904 0.575942
v 0.736797 1.757580 -0.305191
v 0.752505 1.740904 -0.311698
v -0.736797 1.757580 0.305191
v -0.752505 1.740904 0.311698
v 0.797503 1.757580 -0.000000
v 0.814506 1.740904 -0.000000
v -0.736797 1.642410 -0.305191
v -0.752505 1.659086 -0.311698
v 0.563920 1.642410 0.563920
v 0.575942 1.659086 0.575942
v 0.563920 1.642410 -0.563920
v 0.575942 1.659086 -0.575942
v -0.563920 1.642393 -0.563920
v -0.575942 1.659069 -0.575942
v 0.305191 1.642393 0.736797
v 0.311698 1.659069 0.752505
v -0.305191 1.642393 -0.736797
v -0.311698 1.659069 -0.752505
v 0.000000 0.876207 -0.797503
v 0.000000 0.859531 -0.814506
v 0.000000 1.642393 0.797503
v 0.000000 1.659069 0.814506
v 0.305191 1.642393 -0.736797
v 0.311698 1.659069 -0.752505
v -0.305191 1.642393 0.736797
v -0.311698 1.659069 0.752505
v -0.563920 1.642393 0.563920
v -0.575942 1.659069 0.575942
v 0.736797 1.642393 -0.305191
v 0.752505 1.659069 -0.311698
v -0.736797 1.642393 0.305191
v -0.752505 1.659069 0.311698
v -0.797503 0.876207 -0.000000
v -0.814506 0.859531 -0.000000
v 0.797503 1.642393 -0.000000
v 0.814506 1.659069 -0.000000
v 0.736797 0.876207 0.305191
v 0.752505 0.859531 0.311698
v 0.000000 2.523920 -0.780509
v -0.298688 2.523920 -0.721096
v -0.563926 2.540596 -0.563926
v -0.551903 2.523920 -0.551903
v -0.736804 2.540596 -0.305194
v -0.721096 2.523920 -0.298688
v -0.797511 2.540596 -0.000000
v -0.780509 2.523920 -0.000000
v -0.736804 2.540596 0.305194
v -0.721096 2.523920 0.298688
v -0.563926 2.540596 0.563926
v -0.551903 2.523920 0.551903
v -0.298688 2.523920 0.721096
v 0.000000 2.523920 0.780509
v 0.298688 2.523920 0.721096
v 0.551903 2.523920 0.551903
v 0.736804 2.540596 0.305194
v 0.721096 2.523920 0.298688
v 0.797511 2.540596 -0.000000
v 0.780509 2.523920 -0.000000
v 0.721096 2.523920 -0.298688
v 0.563926 2.540596 -0.563926
v 0.551903 2.523920 -0.551903
v 0.305194 2.540596 -0.736804
v 0.298688 2.523920 -0.721096
v 0.000000 2.500221 -0.763506
v 0.000000 2.516897 -0.780509
v -0.298688 2.516897 -0.721096
v -0.292181 2.500221 -0.705388
v -0.551903 2.516897 -0.551903
v -0.539880 2.500221 -0.539880
v -0.721096 2.516897 -0.298688
v -0.705388 2.500221 -0.292181
v -0.780509 2.516897 -0.000000
v -0.763506 2.500221 -0.000000
v -0.721096 2.516897 0.298688
v -0.705388 2.500221 0.292181
v -0.551903 2.516897 0.551903
v -0.539880 2.500221 0.539880
v -0.298688 2.516897 0.721096
v -0.292181 2.500221 0.705388
v 0.000000 2.516897 0.780509
v 0.000000 2.500221 0.763506
v 0.298688 2.516897 0.721096
v 0.292181 2.500221 0.705388
v 0.551903 2.516897 0.551903
v 0.539880 2.500221 0.539880
v 0.721096 2.516897 0.298688
v 0.705388 2.500221 0.292181
v 0.780509 2.516897 -0.000000
v 0.763506 2.500221 -0.000000
v 0.721096 2.516897 -0.298688
v 0.705388 2.500221 -0.292181
v 0.551903 2.516897 -0.551903
v 0.539880 2.500221 -0.539880
v 0.298688 2.516897 -0.721096
v 0.292181 2.500221 -0.705388
v 0.000000 0.079120 -0.785268
v 0.000000 0.095805 -0.768265
v -0.709785 0.095805 0.294002
v -0.725493 0.079125 0.300509
v 0.000000 0.095805 0.768265
v 0.000000 0.079120 0.785268
v 0.768265 0.095805 -0.000000
v 0.785268 0.079120 -0.000000
v 0.000000 -0.005292 -0.814514
v -0.305194 -0.021968 -0.736804
v -0.311701 -0.005292 -0.752513
v -0.575948 -0.005292 -0.575948
v -0.736804 -0.021968 -0.305194
v -0.752513 -0.005292 -0.311701
v -0.814514 -0.005292 0.000000
v -0.736804 -0.021968 0.305194
v -0.752513 -0.005292 0.311701
v -0.563926 -0.021968 0.563926
v -0.575948 -0.005292 0.575948
v -0.305194 -0.021968 0.736804
v -0.311701 -0.005292 0.752513
v 0.000000 -0.005292 0.814514
v 0.305194 -0.021968 0.736804
v 0.311701 -0.005292 0.752513
v 0.575948 -0.005292 0.575948
v 0.752513 -0.005292 0.311701
v 0.814514 -0.005292 0.000000
v 0.752513 -0.005292 -0.311701
v 0.575948 -0.005292 -0.575948
v 0.311701 -0.005292 -0.752513
v -0.736804 0.079122 0.305194
v -0.752513 0.062443 0.311701
v 0.305194 0.079113 0.736804
v 0.311701 0.062443 0.752513
v 0.000000 -0.021968 -0.797511
v 0.000000 -0.005292 -0.780509
v -0.298688 -0.005292 -0.721096
v -0.551903 -0.005292 -0.551903
v -0.563926 -0.021968 -0.563926
v -0.721096 -0.005292 -0.298688
v -0.780509 -0.005292 -0.000000
v -0.797511 -0.021968 -0.000000
v -0.721096 -0.005292 0.298688
v -0.551903 -0.005292 0.551903
v -0.298688 -0.005292 0.721096
v 0.000000 -0.005292 0.780509
v 0.000000 -0.021968 0.797511
v 0.298688 -0.005292 0.721096
v 0.551903 -0.005292 0.551903
v 0.563926 -0.021968 0.563926
v 0.721096 -0.005292 0.298688
v 0.736804 -0.021968 0.305194
v 0.780509 -0.005292 -0.000000
v 0.797511 -0.021968 -0.000000
v 0.721096 -0.005292 -0.298688
v 0.736804 -0.021968 -0.305194
v 0.551903 -0.005292 -0.551903
v 0.563926 -0.021968 -0.563926
v 0.298688 -0.005292 -0.721096
v 0.305194 -0.021968 -0.736804
v 0.000000 0.001731 -0.780509
v 0.000000 0.018407 -0.763506
v -0.292181 0.018407 -0.705388
v -0.298688 0.001731 -0.721096
v -0.539880 0.018407 -0.539880
v -0.551903 0.001731 -0.551903
v -0.705388 0.018407 -0.292181
v -0.721096 0.001731 -0.298688
v -0.763506 0.018407 -0.000000
v -0.780509 0.001731 -0.000000
v -0.705388 0.018407 0.292181
v -0.721096 0.001731 0.298688
v -0.539880 0.018407 0.539880
v -0.551903 0.001731 0.551903
v -0.292181 0.018407 0.705388
v -0.298688 0.001731 0.721096
v 0.000000 0.018407 0.763506
v 0.000000 0.001731 0.780509
v 0.292181 0.018407 0.705388
v 0.298688 0.001731 0.721096
v 0.539880 0.018407 0.539880
v 0.551903 0.001731 0.551903
v 0.705388 0.018407 0.292181
v 0.721096 0.001731 0.298688
v 0.763506 0.018407 -0.000000
v 0.780509 0.001731 -0.000000
v 0.705388 0.018407 -0.292181
v 0.721096 0.001731 -0.298688
v 0.539880 0.018407 -0.539880
v 0.551903 0.001731 -0.551903
v 0.292181 0.018407 -0.705388
v 0.298688 0.001731 -0.721096
vt 0.544794 0.871903
vt 0.542375 0.871697
vt 0.546599 0.809367
vt 0.549032 0.809491
vt 0.545891 0.620130
vt 0.406653 0.619533
vt 0.406747 0.557670
vt 0.545875 0.556540
vt 0.528326 0.064948
vt 0.526101 0.065308
vt 0.514751 0.008634
vt 0.516842 0.007759
vt 0.571530 0.493398
vt 0.557617 0.493458
vt 0.556392 0.430935
vt 0.570272 0.430739
vt 0.553206 0.556521
vt 0.550741 0.556532
vt 0.550402 0.493559
vt 0.552843 0.493522
vt 0.545299 0.062342
vt 0.532691 0.064260
vt 0.521265 0.006199
vt 0.534606 0.003653
vt 0.571760 0.684012
vt 0.557726 0.683674
vt 0.558096 0.620179
vt 0.572195 0.620354
vt 0.563046 0.243261
vt 0.549429 0.243911
vt 0.545426 0.183020
vt 0.558895 0.182083
vt 0.570324 0.747409
vt 0.556316 0.746975
vt 0.535591 0.123354
vt 0.533288 0.123601
vt 0.548985 0.746761
vt 0.551436 0.746830
vt 0.566199 0.305290
vt 0.552402 0.305753
vt 0.567749 0.810509
vt 0.553794 0.809745
vt 0.568671 0.368021
vt 0.554809 0.368346
vt 0.545498 0.999115
vt 0.531287 0.996437
vt 0.542936 0.934474
vt 0.556290 0.936460
vt 0.175126 0.192379
vt 0.040166 0.186130
vt 0.045324 0.125165
vt 0.177827 0.133811
vt 0.172227 0.744196
vt 0.034312 0.750383
vt 0.032824 0.687337
vt 0.171453 0.683018
vt 0.171279 0.373911
vt 0.033096 0.372521
vt 0.034303 0.309835
vt 0.171932 0.312847
vt 0.040132 0.935749
vt 0.033875 0.875033
vt 0.036261 0.874836
vt 0.042498 0.935413
vt 0.025809 0.372371
vt 0.027151 0.309599
vt 0.029583 0.309677
vt 0.028257 0.372424
vt 0.051539 0.995789
vt 0.053815 0.994862
vt 0.175832 0.373965
vt 0.178214 0.373988
vt 0.177541 0.435426
vt 0.175141 0.435409
vt 0.045337 0.064462
vt 0.057930 0.004837
vt 0.060106 0.005774
vt 0.047638 0.064840
vt 0.023941 0.498193
vt 0.024654 0.435327
vt 0.027102 0.435368
vt 0.026391 0.498215
vt 0.170041 0.559277
vt 0.030938 0.561216
vt 0.031151 0.498268
vt 0.170083 0.497272
vt 0.052162 0.065591
vt 0.180490 0.076330
vt 0.031359 0.624173
vt 0.170451 0.621379
vt 0.038313 0.124460
vt 0.040671 0.124701
vt 0.025501 0.687508
vt 0.024131 0.624255
vt 0.026588 0.624224
vt 0.027961 0.687453
vt 0.033207 0.185633
vt 0.035599 0.185807
vt 0.027196 0.750617
vt 0.029641 0.750538
vt 0.004853 0.561365
vt 0.005110 0.498193
vt 0.019070 0.498161
vt 0.018838 0.561213
vt 0.182231 0.923456
vt 0.184549 0.923391
vt 0.185349 0.983314
vt 0.182973 0.982872
vt 0.177734 0.923556
vt 0.047127 0.934768
vt 0.040890 0.874467
vt 0.175494 0.864714
vt 0.178562 0.982307
vt 0.058177 0.993354
vt 0.031781 0.435440
vt 0.170395 0.435365
vt 0.023717 0.561202
vt 0.026171 0.561203
vt 0.064331 0.007311
vt 0.181816 0.019357
vt 0.177181 0.497309
vt 0.174771 0.497306
vt 0.401895 0.495592
vt 0.399486 0.495612
vt 0.398853 0.433899
vt 0.401249 0.433871
vt 0.029598 0.247355
vt 0.032010 0.247477
vt 0.029807 0.813157
vt 0.032229 0.813031
vt 0.173246 0.252176
vt 0.036695 0.247722
vt 0.173671 0.804916
vt 0.036932 0.812800
vt 0.393645 0.982822
vt 0.391327 0.983245
vt 0.392341 0.922823
vt 0.394637 0.922890
vt 0.541956 0.809120
vt 0.403916 0.803633
vt 0.405173 0.742812
vt 0.544222 0.746600
vt 0.370040 0.372737
vt 0.372411 0.372704
vt 0.372920 0.433902
vt 0.370529 0.433924
vt 0.537825 0.244552
vt 0.402322 0.251046
vt 0.400223 0.191842
vt 0.533821 0.183886
vt 0.406416 0.681354
vt 0.545582 0.683496
vt 0.369153 0.802621
vt 0.371497 0.802667
vt 0.369917 0.862507
vt 0.367603 0.862444
vt 0.521650 0.066007
vt 0.395566 0.076530
vt 0.394490 0.019853
vt 0.510693 0.010065
vt 0.406585 0.495577
vt 0.545739 0.493617
vt 0.364489 0.312084
vt 0.211486 0.313355
vt 0.212310 0.253205
vt 0.363414 0.251892
vt 0.398295 0.133586
vt 0.528822 0.124050
vt 0.397798 0.251165
vt 0.395476 0.251236
vt 0.393575 0.192068
vt 0.395858 0.191989
vt 0.179985 0.864582
vt 0.182292 0.864502
vt 0.367932 0.251818
vt 0.370256 0.251763
vt 0.371423 0.311977
vt 0.369069 0.312023
vt 0.371094 0.619486
vt 0.373497 0.619485
vt 0.373324 0.680978
vt 0.370941 0.680964
vt 0.405829 0.433824
vt 0.544385 0.431200
vt 0.400629 0.742721
vt 0.398253 0.742680
vt 0.399270 0.681276
vt 0.401668 0.681298
vt 0.537608 0.871280
vt 0.401803 0.863821
vt 0.394963 0.863539
vt 0.397286 0.863625
vt 0.540304 0.306263
vt 0.403915 0.311253
vt 0.208292 0.804286
vt 0.205955 0.804333
vt 0.204986 0.743894
vt 0.207353 0.743859
vt 0.520030 0.992406
vt 0.398206 0.982255
vt 0.399217 0.923049
vt 0.531206 0.932782
vt 0.362064 0.192715
vt 0.213578 0.193837
vt 0.215528 0.135306
vt 0.360896 0.134796
vt 0.405320 0.372296
vt 0.542815 0.368723
vt 0.174736 0.559283
vt 0.177149 0.559272
vt 0.177544 0.621316
vt 0.175137 0.621345
vt 0.364595 0.802508
vt 0.212836 0.804223
vt 0.211880 0.743806
vt 0.365508 0.741916
vt 0.363489 0.077777
vt 0.365687 0.077675
vt 0.367395 0.134617
vt 0.365163 0.134682
vt 0.366569 0.192613
vt 0.368848 0.192554
vt 0.207785 0.253103
vt 0.205459 0.253062
vt 0.206896 0.193655
vt 0.209191 0.193716
vt 0.370187 0.741987
vt 0.372554 0.742018
vt 0.365801 0.433956
vt 0.210521 0.435894
vt 0.211180 0.374350
vt 0.365509 0.372788
vt 0.206905 0.313290
vt 0.204548 0.313268
vt 0.209515 0.863943
vt 0.207210 0.863999
vt 0.186203 0.018824
vt 0.188436 0.018425
vt 0.187145 0.076591
vt 0.184923 0.076514
vt 0.205937 0.435863
vt 0.203540 0.435851
vt 0.204075 0.374296
vt 0.206461 0.374312
vt 0.210861 0.922729
vt 0.208592 0.922822
vt 0.211454 0.682557
vt 0.366388 0.680930
vt 0.398216 0.372409
vt 0.400600 0.372368
vt 0.214306 0.981594
vt 0.212063 0.982184
vt 0.391609 0.133856
vt 0.393853 0.133763
vt 0.205657 0.559348
vt 0.203254 0.559359
vt 0.203266 0.497522
vt 0.205669 0.497523
vt 0.199493 0.682689
vt 0.183070 0.682851
vt 0.182330 0.621263
vt 0.198840 0.621065
vt 0.373368 0.495626
vt 0.370963 0.495642
vt 0.212896 0.077653
vt 0.210639 0.077548
vt 0.214509 0.019389
vt 0.216779 0.020002
vt 0.391220 0.076655
vt 0.388978 0.076733
vt 0.387930 0.018908
vt 0.390226 0.019325
vt 0.371106 0.557526
vt 0.373515 0.557519
vt 0.217267 0.077883
vt 0.359101 0.077954
vt 0.208804 0.135093
vt 0.211062 0.135163
vt 0.402057 0.557653
vt 0.399647 0.557659
vt 0.204331 0.682636
vt 0.206723 0.682606
vt 0.401978 0.619501
vt 0.399574 0.619498
vt 0.210663 0.620968
vt 0.366419 0.619465
vt 0.394421 0.681222
vt 0.377983 0.681017
vt 0.378278 0.619488
vt 0.394795 0.619489
vt 0.204237 0.134934
vt 0.188803 0.134293
vt 0.191556 0.076757
vt 0.206288 0.077349
vt 0.181944 0.559253
vt 0.198474 0.559376
vt 0.200828 0.252974
vt 0.184798 0.252482
vt 0.186636 0.192795
vt 0.202408 0.193524
vt 0.200356 0.743955
vt 0.184083 0.743986
vt 0.207343 0.983133
vt 0.190046 0.983911
vt 0.189019 0.923259
vt 0.204087 0.922994
vt 0.386472 0.983835
vt 0.368912 0.983177
vt 0.372595 0.921883
vt 0.387783 0.922676
vt 0.198487 0.497515
vt 0.181971 0.497320
vt 0.182393 0.435467
vt 0.198853 0.435818
vt 0.182868 0.374041
vt 0.199249 0.374252
vt 0.186878 0.864354
vt 0.202631 0.864110
vt 0.183617 0.313041
vt 0.199860 0.313216
vt 0.185236 0.804634
vt 0.201308 0.804427
vt 0.879223 0.075640
vt 0.901898 0.131933
vt 0.900502 0.132218
vt 0.878039 0.076424
vt 0.392304 0.803307
vt 0.376162 0.802768
vt 0.377343 0.742094
vt 0.393610 0.742593
vt 0.389113 0.192211
vt 0.373457 0.192439
vt 0.371758 0.134491
vt 0.387073 0.134024
vt 0.394170 0.433945
vt 0.377756 0.433864
vt 0.377047 0.372648
vt 0.393393 0.372478
vt 0.193108 0.017870
vt 0.209997 0.018446
vt 0.392293 0.311510
vt 0.376106 0.311886
vt 0.374876 0.251655
vt 0.390856 0.251372
vt 0.384657 0.076887
vt 0.370056 0.077484
vt 0.366648 0.019178
vt 0.383390 0.018352
vt 0.390350 0.863370
vt 0.374518 0.862643
vt 0.394696 0.495648
vt 0.378152 0.495598
vt 0.394854 0.557667
vt 0.378307 0.557510
vt 0.396981 0.803427
vt 0.399334 0.803487
vt 0.363104 0.862296
vt 0.213994 0.863863
vt 0.399332 0.311344
vt 0.396976 0.311402
vt 0.368091 0.921690
vt 0.365755 0.921586
vt 0.177802 0.252315
vt 0.180145 0.252371
vt 0.178910 0.312973
vt 0.176542 0.312940
vt 0.206005 0.620992
vt 0.203607 0.621018
vt 0.178233 0.804815
vt 0.180576 0.804752
vt 0.361232 0.921354
vt 0.215385 0.922571
vt 0.364215 0.982200
vt 0.361853 0.981566
vt 0.366286 0.495645
vt 0.210341 0.497551
vt 0.176918 0.744113
vt 0.179289 0.744067
vt 0.176017 0.682952
vt 0.178404 0.682914
vt 0.179680 0.192550
vt 0.181983 0.192630
vt 0.357443 0.980644
vt 0.218737 0.980689
vt 0.182141 0.134007
vt 0.184398 0.134103
vt 0.366420 0.557512
vt 0.210329 0.559355
vt 0.359905 0.020698
vt 0.362078 0.020117
vt 0.221018 0.020895
vt 0.355614 0.021592
vt 0.027772 0.061862
vt 0.039492 0.000240
vt 0.053434 0.003189
vt 0.040801 0.063741
vt 0.020079 0.122717
vt 0.033614 0.123986
vt 0.014757 0.184428
vt 0.028446 0.185294
vt 0.011007 0.246570
vt 0.024797 0.247123
vt 0.008444 0.309160
vt 0.022314 0.309455
vt 0.006987 0.372121
vt 0.020941 0.372276
vt 0.005837 0.435178
vt 0.019785 0.435257
vt 0.005248 0.624666
vt 0.019246 0.624329
vt 0.006584 0.688106
vt 0.020608 0.687630
vt 0.008386 0.751412
vt 0.022332 0.750787
vt 0.011148 0.814334
vt 0.024988 0.813423
vt 0.015485 0.876827
vt 0.029126 0.875447
vt 0.022405 0.938356
vt 0.035496 0.936409
vt 0.032877 0.999866
vt 0.046887 0.997374
vt 0.591549 0.241336
vt 0.581987 0.178403
vt 0.583410 0.178387
vt 0.592940 0.241126
vt 0.590789 0.117528
vt 0.592149 0.117960
vt 0.619419 0.064039
vt 0.620534 0.064911
vt 0.665050 0.024584
vt 0.665770 0.025798
vt 0.721912 0.004627
vt 0.722134 0.006021
vt 0.782184 0.007170
vt 0.781871 0.008550
vt 0.837274 0.032001
vt 0.836469 0.033167
vt 0.873959 0.079064
vt 0.895717 0.133145
vt 0.856505 0.140774
vt 0.840531 0.100753
vt 0.901890 0.192827
vt 0.879092 0.249568
vt 0.877877 0.248803
vt 0.900484 0.192570
vt 0.836712 0.293996
vt 0.835863 0.292830
vt 0.780609 0.319779
vt 0.780247 0.318372
vt 0.718367 0.323272
vt 0.718542 0.321808
vt 0.657628 0.303983
vt 0.658324 0.302597
vt 0.603358 0.265160
vt 0.604293 0.263852
vt 0.671911 0.105553
vt 0.698527 0.082017
vt 0.709045 0.099762
vt 0.688565 0.118343
vt 0.731734 0.070232
vt 0.734773 0.090521
vt 0.766850 0.071786
vt 0.762012 0.091760
vt 0.823288 0.111822
vt 0.836327 0.144570
vt 0.816074 0.148347
vt 0.805992 0.122955
vt 0.798904 0.086404
vt 0.786889 0.103257
vt 0.836059 0.179938
vt 0.815729 0.175774
vt 0.611530 0.653488
vt 0.611530 0.668841
vt 0.603677 0.668841
vt 0.603677 0.653488
vt 0.822421 0.212877
vt 0.797442 0.238697
vt 0.785433 0.221478
vt 0.804906 0.201271
vt 0.764379 0.253393
vt 0.759684 0.232737
vt 0.727721 0.254640
vt 0.731221 0.233411
vt 0.692496 0.241657
vt 0.704246 0.223125
vt 0.663738 0.214306
vt 0.684166 0.201094
vt 0.663080 0.212648
vt 0.652072 0.174964
vt 0.674158 0.172516
vt 0.655515 0.137823
vt 0.676074 0.143641
vt 0.611530 0.699547
vt 0.611530 0.714900
vt 0.603677 0.714900
vt 0.603677 0.699547
vt 0.624323 0.067934
vt 0.668196 0.029978
vt 0.688181 0.064302
vt 0.655591 0.092762
vt 0.596800 0.119477
vt 0.635265 0.131794
vt 0.588368 0.178343
vt 0.630118 0.176661
vt 0.597952 0.239646
vt 0.641632 0.223026
vt 0.660625 0.298051
vt 0.607974 0.259980
vt 0.644217 0.228797
vt 0.681076 0.260710
vt 0.719183 0.316803
vt 0.724498 0.275843
vt 0.779052 0.313546
vt 0.769198 0.273919
vt 0.832997 0.288812
vt 0.809434 0.255808
vt 0.873747 0.246144
vt 0.839801 0.224299
vt 0.895680 0.191640
vt 0.856284 0.184007
vt 0.833676 0.037131
vt 0.810780 0.069692
vt 0.780755 0.013260
vt 0.771639 0.051910
vt 0.722847 0.010802
vt 0.728744 0.050021
vt 0.622286 0.653488
vt 0.633042 0.653488
vt 0.633042 0.661341
vt 0.622286 0.661341
vt 0.611530 0.730253
vt 0.603677 0.730253
vt 0.822839 0.183585
vt 0.815099 0.196667
vt 0.668998 0.129435
vt 0.673121 0.119426
vt 0.837957 0.183707
vt 0.822689 0.209882
vt 0.658248 0.130777
vt 0.666599 0.110907
vt 0.655989 0.112275
vt 0.651762 0.122130
vt 0.837874 0.209904
vt 0.845441 0.196832
vt 0.590381 0.707223
vt 0.590381 0.676518
vt 0.603677 0.684194
vt 0.620845 0.661341
vt 0.620845 0.682853
vt 0.611530 0.677475
vt 0.611530 0.666719
vt 0.630160 0.666719
vt 0.630160 0.677475
vt 0.577085 0.699547
vt 0.577085 0.684194
vt 0.611530 0.653488
vt 0.611530 0.661341
vt 0.611530 0.684194
vt 0.665310 0.653488
vt 0.676066 0.653488
vt 0.676066 0.661341
vt 0.665310 0.661341
vt 0.611530 0.745606
vt 0.603677 0.745606
vt 0.654554 0.653488
vt 0.654554 0.661341
vt 0.643798 0.653488
vt 0.643798 0.661341
vt 0.526674 0.994845
vt 0.524361 0.993901
vt 0.535862 0.933469
vt 0.538271 0.933813
vt 0.549118 0.431110
vt 0.551552 0.431050
vt 0.558187 0.556506
vt 0.572213 0.556593
vt 0.540250 0.122850
vt 0.553433 0.121495
vt 0.553175 0.620166
vt 0.550701 0.620164
vt 0.540745 0.183380
vt 0.538393 0.183562
vt 0.552827 0.683610
vt 0.550363 0.683580
vt 0.544763 0.244171
vt 0.542378 0.244307
vt 0.549690 0.872335
vt 0.563531 0.873726
vt 0.547508 0.305961
vt 0.545087 0.306067
vt 0.549972 0.368506
vt 0.547539 0.368589
vt 0.878114 0.579685
vt 0.876927 0.578885
vt 0.899856 0.522886
vt 0.901260 0.523177
vt 0.593509 0.409366
vt 0.594878 0.409622
vt 0.583257 0.471367
vt 0.581846 0.471302
vt 0.589844 0.531769
vt 0.588469 0.532159
vt 0.616931 0.585865
vt 0.615786 0.586721
vt 0.661995 0.626300
vt 0.661242 0.627515
vt 0.718652 0.647420
vt 0.718401 0.648827
vt 0.779100 0.645954
vt 0.779391 0.647354
vt 0.834570 0.622011
vt 0.835365 0.623198
vt 0.872838 0.576195
vt 0.839447 0.554096
vt 0.855793 0.514122
vt 0.895046 0.521945
vt 0.901239 0.461991
vt 0.899827 0.462254
vt 0.876767 0.405951
vt 0.877982 0.405171
vt 0.834053 0.362171
vt 0.834893 0.360989
vt 0.777827 0.337114
vt 0.778175 0.335693
vt 0.715623 0.334453
vt 0.715427 0.332978
vt 0.655060 0.354725
vt 0.654334 0.353338
vt 0.601406 0.394829
vt 0.600437 0.393529
vt 0.620817 0.582894
vt 0.652512 0.558678
vt 0.685457 0.587520
vt 0.664527 0.622112
vt 0.594536 0.530386
vt 0.633023 0.519425
vt 0.588111 0.471558
vt 0.629507 0.474666
vt 0.599661 0.411214
vt 0.642965 0.428753
vt 0.657509 0.359325
vt 0.678500 0.396574
vt 0.605300 0.398751
vt 0.716345 0.339496
vt 0.722194 0.380861
vt 0.776689 0.341989
vt 0.767248 0.381922
vt 0.831220 0.366247
vt 0.807887 0.399821
vt 0.872645 0.408665
vt 0.838872 0.430858
vt 0.855607 0.470916
vt 0.895006 0.463210
vt 0.831802 0.617980
vt 0.809307 0.584947
vt 0.778050 0.641178
vt 0.769568 0.601970
vt 0.719458 0.642596
vt 0.726224 0.603116
vt 0.000000 0.561370
vt 0.000269 0.498155
vt 0.000385 0.624733
vt 0.001720 0.688227
vt 0.003541 0.751589
vt 0.006331 0.814610
vt 0.010719 0.877267
vt 0.017800 0.939007
vt 0.028144 1.000000
vt 0.023090 0.061128
vt 0.034541 0.000000
vt 0.015369 0.122220
vt 0.010001 0.184079
vt 0.006219 0.246328
vt 0.003626 0.309006
vt 0.002151 0.372021
vt 0.001001 0.435106
vt 0.883183 0.073106
vt 0.906531 0.131059
vt 0.906531 0.193749
vt 0.883073 0.252159
vt 0.839465 0.297894
vt 0.781744 0.324449
vt 0.717729 0.328102
vt 0.655347 0.308443
vt 0.599912 0.268791
vt 0.586777 0.242757
vt 0.577085 0.178426
vt 0.586316 0.116033
vt 0.615777 0.061098
vt 0.662727 0.020531
vt 0.721247 0.000000
vt 0.783286 0.002620
vt 0.839996 0.028182
vt 0.576360 0.493323
vt 0.577085 0.556566
vt 0.577085 0.620370
vt 0.576635 0.684083
vt 0.575180 0.747562
vt 0.572602 0.810769
vt 0.568373 0.874164
vt 0.561082 0.937139
vt 0.550518 0.999276
vt 0.539127 0.003471
vt 0.549708 0.061637
vt 0.558034 0.120964
vt 0.563571 0.181710
vt 0.567775 0.242979
vt 0.570987 0.305073
vt 0.573484 0.367863
vt 0.575083 0.430628
vt 0.905911 0.524114
vt 0.882057 0.582309
vt 0.905911 0.461093
vt 0.881986 0.402569
vt 0.837655 0.357064
vt 0.779304 0.330987
vt 0.714765 0.328102
vt 0.651934 0.348764
vt 0.596739 0.389784
vt 0.577085 0.471081
vt 0.589031 0.407856
vt 0.583935 0.533473
vt 0.612014 0.589572
vt 0.658774 0.631550
vt 0.717596 0.653488
vt 0.780382 0.651979
vt 0.838023 0.627114
vn -0.0000 1.0000 0.0001
vn -0.0001 1.0000 0.0000
vn -0.7071 0.0000 -0.7071
vn -0.3827 0.0000 -0.9239
vn -0.0000 1.0000 -0.0000
vn -0.0000 1.0000 0.0002
vn 0.0000 0.0000 -1.0000
vn 0.3827 0.0000 -0.9239
vn -0.0000 1.0000 -0.0001
vn 0.0000 1.0000 -0.0003
vn 0.3827 0.0000 0.9239
vn 0.0000 0.0000 1.0000
vn -0.9239 0.0000 -0.3827
vn 1.0000 0.0000 0.0000
vn 0.9239 0.0000 0.3827
vn -1.0000 0.0000 0.0000
vn 0.9239 0.0000 -0.3827
vn -0.9239 0.0000 0.3827
vn 0.7071 0.0000 -0.7071
vn -0.3827 0.0000 0.9239
vn 0.7071 0.0000 0.7071
vn -0.0001 -1.0000 0.0002
vn -0.0002 -1.0000 0.0002
vn 0.0001 -1.0000 -0.0001
vn 0.0002 -1.0000 -0.0001
vn 0.0000 -1.0000 0.0002
vn 0.0001 -1.0000 0.0002
vn 0.0000 -1.0000 -0.0002
vn 0.0001 -1.0000 -0.0002
vn 0.0001 -1.0000 0.0001
vn -0.0001 -1.0000 -0.0000
vn -0.0001 -1.0000 -0.0001
vn 0.0002 -1.0000 0.0001
vn -0.0002 -1.0000 0.0000
vn -0.7071 0.0000 0.7071
vn -0.0001 -1.0000 -0.0002
vn 0.0000 -1.0000 0.0000
vn 0.0002 -1.0000 0.0000
vn -0.0002 -1.0000 0.0001
vn -0.8287 0.0000 0.5597
vn 0.8287 0.0000 -0.5597
vn 0.9267 0.0000 -0.3759
vn -0.0704 0.0000 -0.9975
vn 0.7888 0.0000 0.6146
vn 0.0704 0.0000 0.9975
vn -0.1378 0.0000 0.9905
vn 0.8991 0.0000 0.4378
vn -0.8991 0.0000 -0.4378
vn -0.9267 0.0000 0.3759
vn 0.1378 0.0000 -0.9905
vn -0.7888 0.0000 -0.6146
vn 0.0001 1.0000 0.0000
vn 0.0003 1.0000 -0.0000
vn -0.2680 0.7139 -0.6470
vn 0.0000 0.7138 -0.7003
vn -0.4951 0.7139 -0.4951
vn -0.6469 0.7139 -0.2680
vn -0.7002 0.7139 -0.0000
vn -0.2680 0.7139 0.6470
vn -0.4951 0.7139 0.4952
vn -0.0000 0.7139 0.7003
vn 0.6470 0.7139 0.2680
vn 0.4951 0.7140 0.4951
vn 0.7003 0.7138 0.0000
vn 0.6470 0.7139 -0.2680
vn 0.4951 0.7139 -0.4951
vn 0.2680 0.7139 -0.6470
vn 0.2680 0.7139 0.6469
vn -0.2680 -0.7139 -0.6470
vn 0.0000 -0.7139 -0.7003
vn -0.4952 -0.7139 -0.4952
vn -0.4951 -0.7139 -0.4951
vn -0.6469 -0.7139 -0.2680
vn -0.6470 -0.7138 0.2680
vn -0.7003 -0.7139 -0.0000
vn -0.4952 -0.7139 0.4952
vn -0.2680 -0.7139 0.6470
vn 0.0000 -0.7139 0.7003
vn 0.2680 -0.7139 0.6470
vn 0.4951 0.7139 0.4951
vn 0.6469 0.7139 0.2680
vn 0.4951 -0.7139 0.4951
vn 0.6469 -0.7139 0.2680
vn 0.7003 -0.7138 0.0000
vn 0.6470 -0.7139 0.2680
vn 0.6470 -0.7139 -0.2680
vn -0.7002 -0.7139 -0.0000
vn 0.2680 -0.7139 -0.6470
vn -0.0000 0.7139 -0.7002
vn -0.2680 0.7139 -0.6469
vn -0.6469 0.7139 0.2680
vn -0.4951 0.7139 0.4951
vn -0.2680 0.7139 0.6469
vn -0.0000 0.7139 0.7002
vn 0.7002 0.7139 0.0000
vn 0.6469 0.7139 -0.2680
vn 0.2680 0.7139 -0.6469
vn -0.2680 -0.7138 -0.6470
vn 0.0000 -0.7138 -0.7003
vn -0.6470 -0.7139 -0.2680
vn -0.4952 -0.7138 0.4952
vn -0.2680 -0.7138 0.6470
vn 0.0000 -0.7138 0.7003
vn 0.4952 -0.7139 0.4952
vn 0.4952 -0.7139 -0.4952
vn 0.2680 -0.7139 0.6469
vn -0.2680 -0.7139 -0.6469
vn 0.0000 -0.7139 0.7002
vn 0.2680 -0.7139 -0.6469
vn 0.0000 -0.7139 -0.7002
vn -0.2680 -0.7139 0.6469
vn 0.4951 -0.7139 -0.4951
vn -0.4951 -0.7139 0.4951
vn 0.6469 -0.7139 -0.2680
vn -0.6469 -0.7139 0.2680
vn 0.7002 -0.7139 0.0000
vn 0.6469 0.7139 0.2679
vn 0.6469 0.7139 -0.2679
vn 0.2679 0.7139 -0.6469
vn 0.2679 0.7139 0.6469
vn -0.6470 0.7139 0.2680
usemtl Barrel
s 1
f 99/1/1 126/2/1 544/3/2 571/4/2
f 120/5/3 279/6/3 271/7/4 117/8/4
f 573/9/5 130/10/5 546/11/6 104/12/6
f 549/13/7 90/14/7 115/15/8 570/16/8
f 92/17/9 118/18/9 541/19/10 89/20/10
f 564/21/11 574/22/11 103/23/12 562/24/12
f 554/25/13 95/26/13 93/27/3 552/28/3
f 567/29/14 109/30/14 107/31/15 566/32/15
f 555/33/16 97/34/16 95/26/13 554/25/13
f 105/35/9 131/36/9 130/10/5 573/9/5
f 571/4/2 544/3/2 123/37/2 98/38/2
f 568/39/17 111/40/17 109/30/14 567/29/14
f 557/41/18 572/42/18 97/34/16 555/33/16
f 569/43/19 113/44/19 111/40/17 568/39/17
f 562/45/12 103/46/12 101/47/20 561/48/20
f 570/16/8 115/15/8 113/44/19 569/43/19
f 255/49/15 164/50/15 248/51/21 284/52/21
f 245/53/16 150/54/16 234/55/13 289/56/13
f 280/57/19 256/58/19 167/59/17 238/60/17
f 210/61/22 208/62/23 154/63/23 156/64/22
f 224/65/24 222/66/25 168/67/25 257/68/24
f 212/69/26 210/61/22 156/64/22 158/70/26
f 281/71/5 442/72/5 438/73/5 162/74/5
f 214/75/27 212/76/26 158/77/26 160/78/27
f 197/79/28 226/80/29 171/81/29 141/82/28
f 268/83/4 143/84/4 142/85/7 267/86/7
f 284/52/21 248/51/21 159/87/11 272/88/11
f 289/56/13 234/55/13 145/89/3 276/90/3
f 216/91/30 214/75/27 160/78/27 249/92/30
f 202/93/31 200/94/32 146/95/32 235/96/31
f 218/97/33 216/91/30 249/92/30 163/98/33
f 204/99/34 202/93/31 235/96/31 149/100/34
f 175/101/4 174/102/7 196/103/7 199/104/4
f 229/105/5 440/106/5 434/107/5 261/108/5
f 228/109/20 155/110/20 153/111/35 232/112/35
f 260/113/12 157/114/12 155/110/20 228/109/20
f 267/86/7 142/85/7 172/115/8 161/116/8
f 200/94/32 198/117/36 144/118/36 146/95/32
f 272/88/11 159/87/11 157/119/12 260/120/12
f 276/90/3 145/89/3 143/84/4 268/83/4
f 162/74/5 438/73/5 397/121/5 266/122/5
f 265/123/37 436/124/37 405/125/37 147/126/37
f 222/66/25 220/127/38 166/128/38 168/67/25
f 208/62/23 206/129/39 152/130/39 154/63/23
f 252/131/14 165/132/14 164/50/15 255/49/15
f 242/133/18 151/134/18 150/54/16 245/53/16
f 238/60/17 167/59/17 165/132/14 252/131/14
f 232/112/35 153/111/35 151/134/18 242/133/18
f 262/135/37 401/136/37 409/137/37 169/138/37
f 543/139/18 241/140/18 246/141/16 124/142/16
f 302/143/5 381/144/5 403/145/5 326/146/5
f 547/147/14 251/148/14 258/149/15 134/150/15
f 220/127/38 218/97/33 163/98/33 166/128/38
f 124/142/16 246/141/16 290/151/13 122/152/13
f 342/153/5 419/154/5 411/155/5 334/156/5
f 129/157/11 275/158/11 263/159/12 545/160/12
f 206/129/39 204/99/34 149/100/34 152/130/39
f 117/8/4 271/7/4 264/161/7 542/162/7
f 339/163/17 336/164/17 348/165/14 351/166/14
f 134/150/15 258/149/15 287/167/21 132/168/21
f 250/169/37 427/170/37 370/171/37 259/172/37
f 198/117/36 197/79/28 141/82/28 144/118/36
f 233/173/5 444/174/5 440/106/5 229/105/5
f 122/152/13 290/151/13 279/6/3 120/5/3
f 350/175/5 425/176/5 415/177/5 338/178/5
f 132/168/21 287/167/21 275/158/11 129/157/11
f 306/179/5 385/180/5 377/181/5 294/182/5
f 542/162/7 264/161/7 148/183/8 140/184/8
f 247/185/37 374/186/37 362/187/37 291/188/37
f 125/189/35 231/190/35 241/140/18 543/139/18
f 169/138/37 409/137/37 413/191/37 230/192/37
f 135/193/17 237/194/17 251/148/14 547/147/14
f 341/195/37 476/196/37 423/197/37 346/198/37
f 545/199/12 263/200/12 170/201/20 128/202/20
f 352/203/15 355/204/15 296/205/21 299/206/21
f 140/184/8 148/183/8 283/207/19 138/208/19
f 269/209/5 432/210/5 356/211/5 277/212/5
f 128/202/20 170/201/20 231/190/35 125/189/35
f 343/213/18 340/214/18 347/215/16 344/216/16
f 138/208/19 283/207/19 237/194/17 135/193/17
f 310/217/5 387/218/5 379/219/5 298/220/5
f 266/122/5 397/121/5 432/210/5 269/209/5
f 353/221/5 482/222/5 425/176/5 350/175/5
f 349/223/37 480/224/37 429/225/37 354/226/37
f 345/227/5 478/228/5 419/154/5 342/153/5
f 327/229/8 324/230/8 300/231/19 303/232/19
f 337/233/37 474/234/37 480/224/37 349/223/37
f 161/116/8 172/115/8 256/58/19 280/57/19
f 333/235/37 472/236/37 476/196/37 341/195/37
f 261/237/5 434/238/5 430/239/5 273/240/5
f 325/241/37 468/242/37 456/243/37 301/244/37
f 351/166/14 348/165/14 355/204/15 352/203/15
f 329/245/37 470/246/37 472/236/37 333/235/37
f 344/216/16 347/215/16 292/247/13 295/248/13
f 303/232/19 300/231/19 336/164/17 339/163/17
f 147/126/37 405/125/37 383/249/37 282/250/37
f 321/251/37 466/252/37 470/246/37 329/245/37
f 259/172/37 370/171/37 369/253/37 286/254/37
f 313/255/37 462/256/37 395/257/37 318/258/37
f 453/259/13 358/260/13 357/261/3 459/262/3
f 326/146/5 403/145/5 464/263/5 317/264/5
f 294/182/5 377/181/5 478/228/5 345/227/5
f 309/265/37 460/266/37 466/267/37 321/268/37
f 274/269/37 389/270/37 401/271/37 262/272/37
f 314/273/5 391/274/5 385/180/5 306/179/5
f 299/206/21 296/205/21 308/275/11 311/276/11
f 354/226/37 429/225/37 454/277/37 297/278/37
f 270/279/37 393/280/37 436/124/37 265/123/37
f 346/198/37 423/197/37 452/281/37 293/282/37
f 298/220/5 379/219/5 482/222/5 353/221/5
f 297/278/37 454/277/37 460/266/37 309/265/37
f 278/283/37 361/284/37 393/280/37 270/279/37
f 295/248/13 292/247/13 304/285/3 307/286/3
f 363/287/13 376/288/13 384/289/3 360/290/3
f 455/291/21 365/292/21 431/293/11 461/294/11
f 459/262/3 357/261/3 433/295/4 463/296/4
f 481/297/14 451/298/14 366/299/15 428/300/15
f 422/301/16 372/302/16 358/260/13 453/259/13
f 467/303/12 435/304/12 441/305/20 471/306/20
f 400/307/12 398/308/12 406/309/20 408/310/20
f 394/311/7 396/312/7 439/313/8 469/314/8
f 469/314/8 439/313/8 443/315/19 457/316/19
f 471/306/20 441/305/20 445/317/35 473/318/35
f 457/316/19 443/315/19 447/319/17 475/320/17
f 473/318/35 445/317/35 449/321/18 477/322/18
f 475/320/17 447/319/17 451/298/14 481/297/14
f 484/323/12 485/324/11 511/325/11 510/326/12
f 420/327/18 418/328/18 479/329/16 375/330/16
f 371/331/15 483/332/15 378/333/21 368/334/21
f 477/322/18 449/321/18 372/302/16 422/301/16
f 404/335/8 402/336/8 380/337/19 382/338/19
f 461/294/11 431/293/11 435/339/12 467/340/12
f 416/341/17 414/342/17 424/343/14 426/344/14
f 388/345/11 386/346/11 398/347/12 400/348/12
f 412/349/35 410/350/35 418/328/18 420/327/18
f 382/338/19 380/337/19 414/342/17 416/341/17
f 437/351/7 465/352/7 402/336/8 404/335/8
f 463/296/4 433/295/4 396/312/7 394/311/7
f 408/310/20 406/309/20 410/350/35 412/349/35
f 392/353/4 390/354/4 465/352/7 437/351/7
f 375/330/16 479/329/16 376/288/13 363/287/13
f 426/344/14 424/343/14 483/332/15 371/331/15
f 360/290/3 384/289/3 390/354/4 392/353/4
f 368/334/21 378/333/21 386/346/11 388/345/11
f 428/300/15 366/299/15 365/292/21 455/291/21
f 226/80/29 224/65/24 257/68/24 171/81/29
f 338/178/5 415/177/5 381/144/5 302/143/5
f 230/192/37 413/191/37 421/355/37 240/356/37
f 335/357/35 332/358/35 340/214/18 343/213/18
f 236/359/37 417/360/37 427/170/37 250/169/37
f 334/156/5 411/155/5 407/361/5 330/362/5
f 253/363/5 450/364/5 446/365/5 239/366/5
f 305/367/37 458/368/37 462/256/37 313/255/37
f 243/369/5 448/370/5 444/174/5 233/173/5
f 301/244/37 456/243/37 474/234/37 337/233/37
f 282/250/37 383/249/37 417/360/37 236/359/37
f 331/371/20 328/372/20 332/358/35 335/357/35
f 239/366/5 446/365/5 442/72/5 281/71/5
f 330/362/5 407/361/5 399/373/5 322/374/5
f 240/356/37 421/355/37 374/186/37 247/185/37
f 316/375/7 319/376/7 324/230/8 327/229/8
f 244/377/5 373/378/5 448/370/5 243/369/5
f 317/264/5 464/263/5 391/274/5 314/273/5
f 288/379/5 359/380/5 373/378/5 244/377/5
f 318/258/37 395/257/37 468/242/37 325/241/37
f 254/381/5 367/382/5 450/364/5 253/363/5
f 323/383/12 320/384/12 328/372/20 331/371/20
f 285/385/5 364/386/5 367/382/5 254/381/5
f 291/188/37 362/187/37 361/284/37 278/283/37
f 315/387/4 312/388/4 319/376/7 316/375/7
f 293/282/37 452/281/37 458/368/37 305/367/37
f 277/212/5 356/211/5 359/380/5 288/379/5
f 322/389/5 399/390/5 387/218/5 310/217/5
f 286/254/37 369/253/37 389/270/37 274/269/37
f 311/276/11 308/275/11 320/391/12 323/392/12
f 273/240/5 430/239/5 364/386/5 285/385/5
f 307/286/3 304/285/3 312/388/4 315/387/4
f 186/393/11 184/394/12 213/395/12 215/396/11
f 188/397/21 186/393/11 215/396/11 217/398/21
f 190/399/15 188/397/21 217/398/21 219/400/15
f 191/401/14 190/399/15 219/400/15 221/402/14
f 192/403/17 191/401/14 221/402/14 223/404/17
f 194/405/19 192/403/17 223/404/17 225/406/19
f 174/102/7 195/407/8 227/408/8 196/103/7
f 195/407/8 194/405/19 225/406/19 227/408/8
f 177/409/3 175/101/4 199/104/4 201/410/3
f 178/411/13 177/409/3 201/410/3 203/412/13
f 179/413/16 178/411/13 203/412/13 205/414/16
f 180/415/18 179/413/16 205/414/16 207/416/18
f 181/417/35 180/415/18 207/416/18 209/418/35
f 182/419/20 181/417/35 209/418/35 211/420/20
f 184/421/12 182/419/20 211/420/20 213/422/12
f 497/423/7 498/424/4 527/425/4 525/426/7
f 498/424/4 499/427/3 529/428/3 527/425/4
f 499/427/3 501/429/13 531/430/13 529/428/3
f 501/429/13 503/431/16 533/432/16 531/430/13
f 503/431/16 504/433/18 535/434/18 533/432/16
f 504/433/18 506/435/35 537/436/35 535/434/18
f 506/435/35 508/437/20 539/438/20 537/436/35
f 508/437/20 484/323/12 510/326/12 539/438/20
f 509/439/5 512/440/5 21/441/5 22/442/5
f 487/443/21 489/444/15 515/445/15 513/446/21
f 485/324/11 487/443/21 513/446/21 511/325/11
f 489/444/15 491/447/14 517/448/14 515/445/15
f 491/447/14 493/449/17 519/450/17 517/448/14
f 493/449/17 495/451/19 521/452/19 519/450/17
f 495/451/19 496/453/8 523/454/8 521/452/19
f 496/453/8 497/455/7 525/456/7 523/454/8
f 56/457/5 33/458/5 13/459/5 52/460/5
f 33/458/5 34/461/5 14/462/5 13/459/5
f 34/461/5 35/463/5 15/464/5 14/462/5
f 48/465/5 36/466/5 2/467/5 1/468/5
f 35/463/5 37/469/5 16/470/5 15/464/5
f 36/466/5 53/471/5 49/472/5 2/467/5
f 37/469/5 48/465/5 1/468/5 16/470/5
f 25/473/40 39/474/40 63/475/40 71/476/40
f 54/477/5 40/478/5 5/479/5 50/480/5
f 40/478/5 41/481/5 6/482/5 5/479/5
f 41/481/5 42/483/5 7/484/5 6/482/5
f 42/483/5 43/485/5 8/486/5 7/484/5
f 43/485/5 44/487/5 9/488/5 8/486/5
f 44/489/5 45/490/5 10/491/5 9/488/5
f 45/490/5 55/492/5 51/493/5 10/491/5
f 3/494/41 38/495/41 64/496/41 65/497/41
f 1/468/5 2/467/5 49/472/5 50/480/5 5/479/5 6/482/5 7/484/5 8/486/5 9/488/5 10/491/5 51/493/5 52/460/5 13/459/5 14/462/5 15/464/5 16/470/5
f 532/498/5 534/499/5 17/500/5 57/501/5
f 530/502/5 532/498/5 57/501/5 58/503/5
f 528/504/5 530/502/5 58/503/5 31/505/5
f 526/506/5 528/504/5 31/505/5 30/507/5
f 524/508/5 526/509/5 30/510/5 29/511/5
f 522/512/5 524/508/5 29/511/5 28/513/5
f 520/514/5 522/512/5 28/513/5 27/515/5
f 518/516/5 520/514/5 27/515/5 26/517/5
f 516/518/5 518/516/5 26/517/5 59/519/5
f 512/440/5 514/520/5 60/521/5 21/441/5
f 514/520/5 516/518/5 59/519/5 60/521/5
f 540/522/5 509/439/5 22/442/5 23/523/5
f 538/524/5 540/522/5 23/523/5 20/525/5
f 536/526/5 538/524/5 20/525/5 19/527/5
f 534/499/5 536/526/5 19/527/5 17/500/5
f 18/528/42 47/529/42 61/530/42 69/531/42
f 31/505/5 58/503/5 55/492/5 45/490/5
f 30/507/5 31/505/5 45/490/5 44/489/5
f 29/511/5 30/510/5 44/487/5 43/485/5
f 28/513/5 29/511/5 43/485/5 42/483/5
f 27/515/5 28/513/5 42/483/5 41/481/5
f 26/517/5 27/515/5 41/481/5 40/478/5
f 59/519/5 26/517/5 40/478/5 54/477/5
f 38/495/43 24/532/43 72/533/43 64/496/43
f 23/523/5 22/442/5 48/465/5 37/469/5
f 21/441/5 60/521/5 53/471/5 36/466/5
f 20/525/5 23/523/5 37/469/5 35/463/5
f 22/442/5 21/441/5 36/466/5 48/465/5
f 19/527/5 20/525/5 35/463/5 34/461/5
f 17/500/5 19/527/5 34/461/5 33/458/5
f 57/501/5 17/500/5 33/458/5 56/457/5
f 3/534/5 4/535/5 50/480/5 49/472/5
f 11/536/5 12/537/5 52/460/5 51/493/5
f 38/538/5 3/534/5 49/472/5 53/471/5
f 4/535/5 39/539/5 54/477/5 50/480/5
f 46/540/5 11/536/5 51/493/5 55/492/5
f 47/541/5 18/542/5 57/501/5 56/457/5
f 18/542/5 32/543/5 58/503/5 57/501/5
f 25/544/5 24/545/5 60/521/5 59/519/5
f 24/545/5 38/538/5 53/471/5 60/521/5
f 39/539/5 25/544/5 59/519/5 54/477/5
f 32/543/5 46/540/5 55/492/5 58/503/5
f 12/537/5 47/541/5 56/457/5 52/460/5
f 64/546/5 63/547/5 66/548/5 65/497/5
f 62/549/5 61/550/5 68/551/5 67/552/5
f 70/553/5 69/554/5 61/550/5 62/549/5
f 72/555/5 71/556/5 63/547/5 64/546/5
f 32/557/44 18/528/44 69/531/44 70/558/44
f 39/474/45 4/559/45 66/548/45 63/475/45
f 46/560/46 32/561/46 70/562/46 62/563/46
f 4/559/47 3/494/47 65/497/47 66/548/47
f 24/532/48 25/564/48 71/565/48 72/533/48
f 11/566/49 46/560/49 62/563/49 67/567/49
f 47/529/50 12/568/50 68/569/50 61/530/50
f 12/568/51 11/566/51 67/567/51 68/569/51
f 104/570/6 546/571/6 127/572/1 102/573/1
f 89/20/10 541/19/10 139/574/9 116/575/9
f 552/28/3 93/27/3 91/576/4 551/577/4
f 566/32/15 107/31/15 106/578/21 565/579/21
f 94/580/5 119/581/5 118/18/9 92/17/9
f 108/582/52 133/583/52 131/36/9 105/35/9
f 96/584/5 121/585/5 119/581/5 94/580/5
f 565/579/21 106/578/21 574/22/11 564/21/11
f 98/38/2 123/37/2 121/585/5 96/584/5
f 110/586/53 548/587/53 133/583/52 108/582/52
f 561/48/20 101/47/20 100/588/35 559/589/35
f 112/590/52 136/591/52 548/587/53 110/586/53
f 102/573/1 127/572/1 126/2/1 99/1/1
f 114/592/5 137/593/5 136/591/52 112/590/52
f 559/589/35 100/588/35 572/42/18 557/41/18
f 116/575/9 139/574/9 137/593/5 114/592/5
f 576/594/12 601/595/12 604/596/11 577/597/11
f 586/598/7 618/599/7 620/600/4 588/601/4
f 588/601/4 620/600/4 622/602/3 589/603/3
f 589/603/3 622/602/3 624/604/13 591/605/13
f 591/605/13 624/604/13 626/606/16 593/607/16
f 593/607/16 626/606/16 628/608/18 595/609/18
f 595/609/18 628/608/18 630/610/35 597/611/35
f 597/611/35 630/610/35 632/612/20 599/613/20
f 599/613/20 632/612/20 601/595/12 576/594/12
f 602/614/37 77/615/37 76/616/37 603/617/37
f 578/618/21 606/619/21 608/620/15 580/621/15
f 577/597/11 604/596/11 606/619/21 578/618/21
f 580/621/15 608/620/15 610/622/14 581/623/14
f 581/623/14 610/622/14 612/624/17 583/625/17
f 583/625/17 612/624/17 614/626/19 584/627/19
f 584/627/19 614/626/19 616/628/8 585/629/8
f 585/629/8 616/628/8 618/630/7 586/631/7
f 623/632/37 85/633/37 73/634/37 625/635/37
f 621/636/37 86/637/37 85/633/37 623/632/37
f 619/638/37 84/639/37 86/637/37 621/636/37
f 617/640/37 83/641/37 84/639/37 619/638/37
f 615/642/37 82/643/37 83/641/37 617/644/37
f 613/645/37 81/646/37 82/643/37 615/642/37
f 611/647/37 80/648/37 81/646/37 613/645/37
f 609/649/37 79/650/37 80/648/37 611/647/37
f 607/651/37 87/652/37 79/650/37 609/649/37
f 603/617/37 76/616/37 88/653/37 605/654/37
f 605/654/37 88/653/37 87/652/37 607/651/37
f 631/655/37 78/656/37 77/615/37 602/614/37
f 629/657/37 75/658/37 78/656/37 631/655/37
f 627/659/37 74/660/37 75/658/37 629/657/37
f 625/635/37 73/634/37 74/660/37 627/659/37
f 85/633/37 86/637/37 84/639/37 83/641/37 82/643/37 81/646/37 80/648/37 79/650/37 87/652/37 88/653/37 76/616/37 77/615/37 78/656/37 75/658/37 74/660/37 73/634/37
f 92/17/54 89/20/55 90/14/55 91/576/54
f 94/580/56 92/17/54 91/576/54 93/27/56
f 96/584/57 94/580/56 93/27/56 95/26/57
f 98/38/58 96/584/57 95/26/57 97/34/58
f 102/573/59 99/1/60 100/588/60 101/47/59
f 104/570/61 102/573/59 101/47/59 103/46/61
f 108/582/62 105/35/63 106/578/63 107/31/62
f 110/586/64 108/582/62 107/31/62 109/30/64
f 112/590/65 110/586/64 109/30/64 111/40/65
f 114/592/66 112/590/65 111/40/65 113/44/66
f 116/575/67 114/592/66 113/44/66 115/15/67
f 89/20/55 116/575/67 115/15/67 90/14/55
f 120/5/56 117/8/54 118/18/54 119/581/56
f 122/152/57 120/5/56 119/581/56 121/585/57
f 124/142/58 122/152/57 121/585/57 123/37/58
f 128/202/59 125/189/60 126/2/60 127/572/59
f 132/168/63 129/157/68 130/10/68 131/36/63
f 134/150/62 132/168/63 131/36/63 133/583/62
f 138/208/66 135/193/65 136/591/65 137/593/66
f 140/184/67 138/208/66 137/593/66 139/574/67
f 144/118/69 141/82/70 142/85/70 143/84/69
f 146/95/71 144/118/69 143/84/69 145/89/71
f 277/212/56 288/379/57 289/56/57 276/90/56
f 279/6/72 290/151/73 291/188/73 278/283/72
f 152/130/74 149/100/75 150/54/75 151/134/74
f 154/63/76 152/130/74 151/134/74 153/111/76
f 156/64/77 154/63/76 153/111/76 155/110/77
f 158/70/78 156/64/77 155/110/77 157/114/78
f 160/78/79 158/77/78 157/119/78 159/87/79
f 285/385/80 254/381/81 255/49/81 284/52/80
f 287/167/82 258/149/83 259/172/83 286/254/82
f 166/128/84 163/98/85 164/50/85 165/132/84
f 168/67/86 166/128/84 165/132/84 167/59/86
f 288/379/57 244/377/58 245/53/58 289/56/57
f 290/151/73 246/141/87 247/185/87 291/188/73
f 141/82/70 171/81/88 172/115/88 142/85/70
f 174/102/89 175/101/90 176/661/90 173/662/89
f 175/101/90 177/409/56 486/663/56 176/661/90
f 177/409/56 178/411/57 488/664/57 486/663/56
f 178/411/57 179/413/58 490/665/58 488/664/57
f 179/413/58 180/415/91 492/666/91 490/665/58
f 180/415/91 181/417/92 494/667/92 492/666/91
f 181/417/92 182/419/93 183/668/93 494/667/92
f 182/419/93 184/421/94 185/669/94 183/668/93
f 184/394/94 186/393/68 187/670/68 185/671/94
f 186/393/68 188/397/80 189/672/80 187/670/68
f 188/397/80 190/399/81 500/673/81 189/672/80
f 190/399/81 191/401/95 502/674/95 500/673/81
f 191/401/95 192/403/96 193/675/96 502/674/95
f 192/403/96 194/405/66 505/676/66 193/675/96
f 194/405/66 195/407/97 507/677/97 505/676/66
f 195/407/97 174/102/89 173/662/89 507/677/97
f 199/104/98 196/103/99 197/79/99 198/117/98
f 201/410/71 199/104/98 198/117/98 200/94/71
f 203/412/100 201/410/71 200/94/71 202/93/100
f 205/414/75 203/412/100 202/93/100 204/99/75
f 207/416/74 205/414/75 204/99/75 206/129/74
f 209/418/101 207/416/74 206/129/74 208/62/101
f 211/420/102 209/418/101 208/62/101 210/61/102
f 213/422/103 211/420/102 210/61/102 212/69/103
f 215/396/79 213/395/103 212/76/103 214/75/79
f 217/398/104 215/396/79 214/75/79 216/91/104
f 219/400/85 217/398/104 216/91/104 218/97/85
f 221/402/84 219/400/85 218/97/85 220/127/84
f 223/404/86 221/402/84 220/127/84 222/66/86
f 225/406/105 223/404/86 222/66/86 224/65/105
f 227/408/88 225/406/105 224/65/105 226/80/88
f 196/103/99 227/408/88 226/80/88 197/79/99
f 235/96/100 146/95/71 145/89/71 234/55/100
f 149/100/75 235/96/100 234/55/100 150/54/75
f 249/92/104 160/78/79 159/87/79 248/51/104
f 163/98/85 249/92/104 248/51/104 164/50/85
f 257/68/105 168/67/86 167/59/86 256/58/105
f 171/81/88 257/68/105 256/58/105 172/115/88
f 275/158/106 287/167/82 286/254/82 274/269/106
f 273/240/68 285/385/80 284/52/80 272/88/68
f 271/7/107 279/6/72 278/283/72 270/279/107
f 269/209/90 277/212/56 276/90/56 268/83/90
f 263/159/108 275/158/106 274/269/106 262/272/108
f 261/237/94 273/240/68 272/88/68 260/120/94
f 148/183/109 264/161/110 265/123/110 147/126/109
f 162/74/97 266/122/89 267/86/89 161/116/97
f 264/161/110 271/7/107 270/279/107 265/123/110
f 266/122/89 269/209/90 268/83/90 267/86/89
f 170/201/111 263/200/108 262/135/108 169/138/111
f 229/105/93 261/108/94 260/113/94 228/109/93
f 283/207/112 148/183/109 147/126/109 282/250/112
f 281/71/66 162/74/97 161/116/97 280/57/66
f 231/190/113 170/201/111 169/138/111 230/192/113
f 233/173/92 229/105/93 228/109/93 232/112/92
f 237/194/114 283/207/112 282/250/112 236/359/114
f 239/366/96 281/71/66 280/57/66 238/60/96
f 241/140/115 231/190/113 230/192/113 240/356/115
f 243/369/91 233/173/92 232/112/92 242/133/91
f 251/148/116 237/194/114 236/359/114 250/169/116
f 253/363/95 239/366/96 238/60/96 252/131/95
f 246/141/87 241/140/115 240/356/115 247/185/87
f 244/377/58 243/369/91 242/133/91 245/53/58
f 258/149/83 251/148/116 250/169/116 259/172/83
f 254/381/81 253/363/95 252/131/95 255/49/81
f 353/221/117 350/175/95 351/166/95 352/203/117
f 355/204/83 348/165/116 349/223/116 354/226/83
f 345/227/58 342/153/91 343/213/91 344/216/58
f 347/215/87 340/214/115 341/195/115 346/198/87
f 350/175/95 338/178/118 339/163/118 351/166/95
f 348/165/116 336/164/114 337/233/114 349/223/116
f 342/153/91 334/156/92 335/357/92 343/213/91
f 340/214/115 332/358/113 333/235/113 341/195/115
f 338/178/118 302/143/66 303/232/66 339/163/118
f 336/164/114 300/231/112 301/244/112 337/233/114
f 334/156/92 330/362/93 331/371/93 335/357/92
f 332/358/113 328/372/111 329/245/111 333/235/113
f 302/143/66 326/146/119 327/229/119 303/232/66
f 300/231/112 324/230/109 325/241/109 301/244/112
f 330/362/93 322/374/94 323/383/94 331/371/93
f 328/372/111 320/384/108 321/251/108 329/245/111
f 317/264/89 314/273/90 315/387/90 316/375/89
f 319/376/110 312/388/107 313/255/107 318/258/110
f 326/146/119 317/264/89 316/375/89 327/229/119
f 324/230/109 319/376/110 318/258/110 325/241/109
f 322/389/94 310/217/120 311/276/120 323/392/94
f 320/391/108 308/275/106 309/265/106 321/268/108
f 314/273/90 306/179/56 307/286/56 315/387/90
f 312/388/107 304/285/72 305/367/72 313/255/107
f 310/217/120 298/220/80 299/206/80 311/276/120
f 308/275/106 296/205/82 297/278/82 309/265/106
f 306/179/56 294/182/57 295/248/57 307/286/56
f 304/285/72 292/247/73 293/282/73 305/367/72
f 298/220/80 353/221/117 352/203/117 299/206/80
f 296/205/82 355/204/83 354/226/83 297/278/82
f 294/182/57 345/227/58 344/216/58 295/248/57
f 292/247/73 347/215/87 346/198/87 293/282/73
f 357/261/56 358/260/57 359/380/57 356/211/56
f 361/284/72 362/187/73 363/287/73 360/290/72
f 365/292/80 366/299/81 367/382/81 364/386/80
f 369/253/82 370/171/83 371/331/83 368/334/82
f 358/260/57 372/302/58 373/378/58 359/380/57
f 362/187/73 374/186/87 375/330/87 363/287/73
f 389/270/106 369/253/82 368/334/82 388/345/106
f 431/293/68 365/292/80 364/386/80 430/239/68
f 393/280/107 361/284/72 360/290/72 392/353/107
f 433/295/90 357/261/56 356/211/56 432/210/90
f 401/271/108 389/270/106 388/345/106 400/348/108
f 435/339/94 431/293/68 430/239/68 434/238/94
f 405/125/109 436/124/110 437/351/110 404/335/109
f 439/313/97 396/312/89 397/121/89 438/73/97
f 436/124/110 393/280/107 392/353/107 437/351/110
f 396/312/89 433/295/90 432/210/90 397/121/89
f 409/137/111 401/136/108 400/307/108 408/310/111
f 441/305/93 435/304/94 434/107/94 440/106/93
f 383/249/112 405/125/109 404/335/109 382/338/112
f 443/315/66 439/313/97 438/73/97 442/72/66
f 413/191/113 409/137/111 408/310/111 412/349/113
f 445/317/92 441/305/93 440/106/93 444/174/92
f 417/360/114 383/249/112 382/338/112 416/341/114
f 447/319/96 443/315/66 442/72/66 446/365/96
f 421/355/115 413/191/113 412/349/113 420/327/115
f 449/321/91 445/317/92 444/174/92 448/370/91
f 427/170/116 417/360/114 416/341/114 426/344/116
f 451/298/95 447/319/96 446/365/96 450/364/95
f 374/186/87 421/355/115 420/327/115 375/330/87
f 372/302/58 449/321/91 448/370/91 373/378/58
f 370/171/83 427/170/116 426/344/116 371/331/83
f 366/299/81 451/298/95 450/364/95 367/382/81
f 483/332/117 424/343/95 425/176/95 482/222/117
f 429/225/83 480/224/116 481/297/116 428/300/83
f 479/329/58 418/328/91 419/154/91 478/228/58
f 423/197/87 476/196/115 477/322/115 422/301/87
f 424/343/95 414/342/118 415/177/118 425/176/95
f 480/224/116 474/234/114 475/320/114 481/297/116
f 418/328/91 410/350/92 411/155/92 419/154/91
f 476/196/115 472/236/113 473/318/113 477/322/115
f 414/342/118 380/337/66 381/144/66 415/177/118
f 474/234/114 456/243/112 457/316/112 475/320/114
f 410/350/92 406/309/93 407/361/93 411/155/92
f 472/236/113 470/246/111 471/306/111 473/318/113
f 380/337/66 402/336/119 403/145/119 381/144/66
f 456/243/112 468/242/109 469/314/109 457/316/112
f 406/309/93 398/308/94 399/373/94 407/361/93
f 470/246/111 466/252/108 467/303/108 471/306/111
f 465/352/89 390/354/90 391/274/90 464/263/89
f 395/257/110 462/256/107 463/296/107 394/311/110
f 402/336/119 465/352/89 464/263/89 403/145/119
f 468/242/109 395/257/110 394/311/110 469/314/109
f 398/347/94 386/346/120 387/218/120 399/390/94
f 466/267/108 460/266/106 461/294/106 467/340/108
f 390/354/90 384/289/56 385/180/56 391/274/90
f 462/256/107 458/368/72 459/262/72 463/296/107
f 386/346/120 378/333/80 379/219/80 387/218/120
f 460/266/106 454/277/82 455/291/82 461/294/106
f 384/289/56 376/288/57 377/181/57 385/180/56
f 458/368/72 452/281/73 453/259/73 459/262/72
f 378/333/80 483/332/117 482/222/117 379/219/80
f 454/277/82 429/225/83 428/300/83 455/291/82
f 376/288/57 479/329/58 478/228/58 377/181/57
f 452/281/73 423/197/87 422/301/87 453/259/73
f 173/678/94 176/679/68 485/324/68 484/323/94
f 176/679/68 486/680/80 487/443/80 485/324/68
f 486/680/80 488/681/81 489/444/81 487/443/80
f 488/681/81 490/682/95 491/447/95 489/444/81
f 490/682/95 492/683/96 493/449/96 491/447/95
f 492/683/96 494/684/66 495/451/66 493/449/96
f 494/684/66 183/685/97 496/453/97 495/451/66
f 183/685/97 185/686/89 497/455/89 496/453/97
f 185/687/89 187/688/90 498/424/90 497/423/89
f 187/688/90 189/689/56 499/427/56 498/424/90
f 189/689/56 500/690/57 501/429/57 499/427/56
f 500/690/57 502/691/58 503/431/58 501/429/57
f 502/691/58 193/692/91 504/433/91 503/431/58
f 193/692/91 505/693/92 506/435/92 504/433/91
f 505/693/92 507/694/93 508/437/93 506/435/92
f 507/694/93 173/678/94 484/323/94 508/437/93
f 510/326/94 511/325/68 512/440/68 509/439/94
f 511/325/68 513/446/80 514/520/80 512/440/68
f 513/446/80 515/445/81 516/518/81 514/520/80
f 515/445/81 517/448/95 518/516/95 516/518/81
f 517/448/95 519/450/96 520/514/96 518/516/95
f 519/450/96 521/452/66 522/512/66 520/514/96
f 521/452/66 523/454/97 524/508/97 522/512/66
f 523/454/97 525/456/89 526/509/89 524/508/97
f 525/426/89 527/425/90 528/504/90 526/506/89
f 527/425/90 529/428/56 530/502/56 528/504/90
f 529/428/56 531/430/57 532/498/57 530/502/56
f 531/430/57 533/432/58 534/499/58 532/498/57
f 533/432/58 535/434/91 536/526/91 534/499/58
f 535/434/91 537/436/92 538/524/92 536/526/91
f 537/436/92 539/438/93 540/522/93 538/524/92
f 539/438/93 510/326/94 509/439/94 540/522/93
f 542/162/55 140/184/67 139/574/67 541/19/55
f 135/193/65 547/147/64 548/587/64 136/591/65
f 547/147/64 134/150/62 133/583/62 548/587/64
f 129/157/68 545/160/61 546/11/61 130/10/68
f 545/199/61 128/202/59 127/572/59 546/571/61
f 125/189/60 543/139/91 544/3/91 126/2/60
f 543/139/91 124/142/58 123/37/58 544/3/91
f 117/8/54 542/162/55 541/19/55 118/18/54
f 105/35/63 573/9/68 574/22/68 106/578/63
f 573/9/68 104/12/61 103/23/61 574/22/68
f 99/1/60 571/4/91 572/42/121 100/588/60
f 571/4/91 98/38/58 97/34/58 572/42/121
f 575/695/110 550/696/107 551/577/107 549/13/110
f 550/696/107 579/697/72 552/28/72 551/577/107
f 579/697/72 553/698/73 554/25/73 552/28/72
f 553/698/73 582/699/87 555/33/87 554/25/73
f 582/699/87 556/700/115 557/41/115 555/33/87
f 556/700/115 558/701/113 559/589/113 557/41/115
f 558/701/113 560/702/111 561/48/111 559/589/113
f 560/702/111 587/703/108 562/45/108 561/48/111
f 587/704/108 563/705/106 564/21/106 562/24/108
f 563/705/106 590/706/82 565/579/82 564/21/106
f 590/706/82 592/707/83 566/32/83 565/579/82
f 592/707/83 594/708/116 567/29/116 566/32/83
f 594/708/116 596/709/114 568/39/114 567/29/116
f 596/709/114 598/710/112 569/43/112 568/39/114
f 598/710/112 600/711/109 570/16/109 569/43/112
f 600/711/109 575/695/110 549/13/110 570/16/109
f 576/594/108 577/597/106 550/712/106 575/713/108
f 577/597/106 578/618/82 579/714/82 550/712/106
f 578/618/82 580/621/83 553/715/83 579/714/82
f 580/621/83 581/623/116 582/716/116 553/715/83
f 581/623/116 583/625/114 556/717/114 582/716/116
f 583/625/114 584/627/112 558/718/112 556/717/114
f 584/627/112 585/629/109 560/719/109 558/718/112
f 585/629/109 586/631/110 587/720/110 560/719/109
f 586/598/110 588/601/107 563/721/107 587/722/110
f 588/601/107 589/603/72 590/723/72 563/721/107
f 589/603/72 591/605/73 592/724/73 590/723/72
f 591/605/73 593/607/87 594/725/87 592/724/73
f 593/607/87 595/609/115 596/726/115 594/725/87
f 595/609/115 597/611/113 598/727/113 596/726/115
f 597/611/113 599/613/111 600/728/111 598/727/113
f 599/613/111 576/594/108 575/713/108 600/728/111
f 602/614/108 603/617/106 604/596/106 601/595/108
f 603/617/106 605/654/82 606/619/82 604/596/106
f 605/654/82 607/651/83 608/620/83 606/619/82
f 607/651/83 609/649/116 610/622/116 608/620/83
f 609/649/116 611/647/114 612/624/114 610/622/116
f 611/647/114 613/645/112 614/626/112 612/624/114
f 613/645/112 615/642/109 616/628/109 614/626/112
f 615/642/109 617/644/110 618/630/110 616/628/109
f 617/640/110 619/638/107 620/600/107 618/599/110
f 619/638/107 621/636/72 622/602/72 620/600/107
f 621/636/72 623/632/73 624/604/73 622/602/72
f 623/632/73 625/635/87 626/606/87 624/604/73
f 625/635/87 627/659/115 628/608/115 626/606/87
f 627/659/115 629/657/113 630/610/113 628/608/115
f 629/657/113 631/655/111 632/612/111 630/610/113
f 631/655/111 602/614/108 601/595/108 632/612/111
f 551/577/4 91/576/4 90/14/7 549/13/7
