# Blender v3.3.1 OBJ File: 'GoofyAhhKnifeVULKAN.blend'
# www.blender.org
mtllib 1.5Stand.mtl
o Cube.001_Cube.002
v -2.397323 -1.089507 0.194591
v -2.397323 -0.687304 0.194591
v -2.397323 -1.089507 -0.194591
v -2.397323 -0.687304 -0.194591
v 2.397323 -1.089507 0.194591
v 2.397323 -0.687304 0.194591
v 2.397323 -1.089507 -0.194591
v 2.397323 -0.687304 -0.194591
v 1.389368 -1.091339 -0.208509
v -0.000000 -1.091339 -0.208509
v -1.390885 -1.091339 -0.208509
v -1.390186 -0.616632 -0.216304
v -0.000000 -0.665639 -0.208509
v 1.389093 -0.616632 -0.216304
v -1.390885 -1.091339 0.208509
v 0.000000 -1.091339 0.208509
v 1.389367 -1.091339 0.208509
v 1.389093 -0.616632 0.216304
v -0.000000 -0.665639 0.208509
v -1.390186 -0.616632 0.216304
v 1.631380 -0.616632 -0.216304
v 1.631020 -1.091339 0.208509
v 1.631020 -1.091339 -0.208509
v 1.631380 -0.616632 0.216304
v -1.630284 -1.091339 -0.208509
v -1.630850 -0.616632 0.216304
v -1.630850 -0.616632 -0.216304
v -1.630284 -1.091339 0.208509
v -1.626051 -0.126516 -0.208509
v -1.395423 -0.126516 -0.208509
v 1.626786 -0.227718 0.208509
v 1.393906 -0.227718 0.208509
v 1.393906 -0.227718 -0.208509
v -1.395423 -0.126516 0.208509
v 1.626786 -0.227718 -0.208509
v -1.626050 -0.126516 0.208509
v -2.401903 -1.044893 0.208509
v -2.401903 -1.044893 -0.208509
v 2.401903 -1.044893 -0.208509
v 2.401903 -1.044893 0.208509
v 1.389367 -1.044893 0.236346
v 0.000000 -1.044893 0.236346
v -1.390885 -1.044893 0.236346
v -1.390885 -1.044893 -0.236346
v -0.000000 -1.044893 -0.236346
v 1.389367 -1.044893 -0.236346
v 1.631020 -1.044893 0.236346
v 1.631020 -1.044893 -0.236346
v -1.630284 -1.044893 -0.236346
v -1.630284 -1.044893 0.236346
v -2.401903 -1.091339 -0.038170
v -2.401903 -1.091339 0.038170
v -2.401903 -0.665639 0.038170
v -2.401903 -0.665639 -0.038170
v 2.401903 -1.091339 0.038170
v 2.401903 -1.091339 -0.038170
v 2.401903 -0.665639 -0.038170
v 2.401903 -0.665639 0.038170
v 1.383849 -0.571095 -0.038170
v 1.383849 -0.571095 0.038170
v 0.000000 -0.622311 -0.038170
v 0.000000 -0.622311 0.038170
v -1.383849 -0.571095 -0.038170
v -1.383849 -0.571095 0.038170
v -1.390885 -1.095003 -0.038170
v -1.390885 -1.095003 0.038170
v 0.000000 -1.095003 -0.038170
v 0.000000 -1.095003 0.038170
v 1.389367 -1.095003 -0.038170
v 1.389367 -1.095003 0.038170
v 1.636538 -0.571095 -0.038170
v 1.636538 -0.571095 0.038170
v 1.631020 -1.095003 -0.038170
v 1.631020 -1.095003 0.038170
v -1.630284 -1.095003 -0.038170
v -1.630284 -1.095003 0.038170
v -1.636539 -0.571095 -0.038170
v -1.636539 -0.571095 0.038170
v 1.392361 -0.237738 -0.042387
v 1.392361 -0.237738 0.042387
v -1.393453 -0.136536 -0.042387
v -1.393453 -0.136536 0.042387
v 1.628332 -0.237738 -0.042387
v 1.628332 -0.237738 0.042387
v -1.627802 -0.136536 -0.042387
v -1.627802 -0.136536 0.042387
v 2.411063 -1.044893 -0.038170
v 2.411063 -1.044893 0.038170
v -2.411063 -1.044893 0.038170
v -2.411063 -1.044893 -0.038170
v -1.622923 0.015683 -0.194591
v -1.398941 0.015683 -0.194591
v 1.624027 -0.085518 0.194591
v 1.396665 -0.085518 0.194591
v 1.396665 -0.085518 0.057255
v -1.398941 0.015683 0.057255
v -1.398941 0.015683 0.194591
v 1.396665 -0.085518 -0.194591
v 1.624027 -0.085518 -0.194591
v 1.624027 -0.085518 0.057255
v -1.622923 0.015683 0.194591
v -1.622923 0.015683 0.057255
v 1.396665 -0.085518 -0.057255
v -1.398941 0.015683 -0.057255
v 1.624027 -0.085518 -0.057255
v -1.622923 0.015683 -0.057255
v -1.769873 -1.091339 -0.208509
v -1.769872 -0.665639 0.208509
v -1.769872 -0.665639 -0.208509
v -1.769872 -1.091339 0.208509
v -1.769872 -1.044893 -0.236346
v -1.769872 -1.044893 0.236346
v -1.769872 -1.095003 -0.038170
v -1.769872 -1.095003 0.038170
v -1.769872 -0.622311 -0.038170
v -1.769872 -0.622311 0.038170
v 1.769872 -0.665639 -0.208509
v 1.769872 -1.091339 0.208509
v 1.769872 -1.091339 -0.208509
v 1.769872 -0.665639 0.208509
v 1.769872 -1.044893 0.236346
v 1.769872 -1.044893 -0.236346
v 1.769872 -0.622311 -0.038170
v 1.769872 -0.622311 0.038170
v 1.769872 -1.095003 -0.038170
v 1.769872 -1.095003 0.038170
v -1.138837 -1.091339 -0.208509
v -1.138837 -0.665639 -0.208509
v -1.138837 -1.091339 0.208509
v -1.138837 -0.665639 0.208509
v -1.138837 -1.044893 -0.236346
v -1.138837 -1.044893 0.236346
v -1.138837 -1.095003 -0.038170
v -1.138837 -1.095003 0.038170
v -1.138837 -0.622311 -0.038170
v -1.138837 -0.622311 0.038170
v 1.138837 -1.091339 -0.208509
v 1.138837 -0.665639 -0.208509
v 1.138837 -1.091339 0.208509
v 1.138837 -0.665639 0.208509
v 1.138837 -1.044893 -0.236346
v 1.138837 -1.044893 0.236346
v 1.138837 -1.095003 -0.038170
v 1.138837 -1.095003 0.038170
v 1.138837 -0.622311 -0.038170
v 1.138837 -0.622311 0.038170
v -2.401903 -1.091339 0.094480
v 2.401903 -0.665639 0.094480
v 1.383849 -0.571095 0.094480
v 0.000000 -0.622311 0.094480
v -1.383849 -0.571095 0.094480
v -1.390885 -1.095003 0.094480
v 0.000000 -1.095003 0.094480
v 1.389367 -1.095003 0.094480
v 1.636538 -0.571095 0.094480
v 1.631020 -1.095003 0.094480
v -1.630284 -1.095003 0.094480
v -1.636539 -0.571095 0.094480
v 1.388387 -0.227718 0.094480
v -1.388387 -0.126517 0.094480
v 1.632305 -0.227718 0.094480
v -1.632305 -0.126517 0.094480
v 2.411063 -1.044893 0.094480
v -2.401903 -0.665639 0.094480
v 2.401903 -1.091339 0.094480
v -2.411063 -1.044893 0.094480
v 1.393906 -0.065742 0.094480
v -1.395423 0.035459 0.094480
v 1.626786 -0.065742 0.094480
v -1.626050 0.035459 0.094480
v -1.769872 -1.095003 0.094480
v -1.769872 -0.622311 0.094480
v 1.769872 -0.622311 0.094480
v 1.769872 -1.095003 0.094480
v -1.138837 -1.095003 0.094480
v -1.138837 -0.622311 0.094480
v 1.138837 -1.095003 0.094480
v 1.138837 -0.622311 0.094480
v -2.401903 -0.665639 -0.094480
v 2.401903 -1.091339 -0.094480
v -2.411063 -1.044893 -0.094480
v -2.401903 -1.091339 -0.094480
v 2.401903 -0.665639 -0.094480
v 1.383849 -0.571095 -0.094480
v 0.000000 -0.622311 -0.094480
v -1.383849 -0.571095 -0.094480
v -1.390885 -1.095003 -0.094480
v 0.000000 -1.095003 -0.094480
v 1.389367 -1.095003 -0.094480
v 1.636538 -0.571095 -0.094480
v 1.631020 -1.095003 -0.094480
v -1.630284 -1.095003 -0.094480
v -1.636539 -0.571095 -0.094480
v 1.388387 -0.227718 -0.094480
v -1.388387 -0.126517 -0.094480
v 1.632305 -0.227718 -0.094480
v -1.632305 -0.126516 -0.094480
v 2.411063 -1.044893 -0.094480
v 1.393906 -0.065742 -0.094480
v -1.395423 0.035459 -0.094480
v 1.626786 -0.065742 -0.094480
v -1.626050 0.035459 -0.094480
v -1.769872 -0.622311 -0.094480
v -1.769872 -1.095003 -0.094480
v 1.769872 -1.095003 -0.094480
v 1.769872 -0.622311 -0.094480
v -1.138837 -0.622311 -0.094480
v -1.138837 -1.095003 -0.094480
v 1.138837 -0.622311 -0.094480
v 1.138837 -1.095003 -0.094480
v 2.248861 -0.665639 -0.208509
v 2.248862 -1.091339 0.208509
v 2.248862 -1.044893 -0.236346
v 2.248861 -0.622311 -0.038170
v 2.248861 -0.622311 0.038170
v 2.248861 -1.091339 -0.208509
v 2.248862 -0.665639 0.208509
v 2.248861 -1.044893 0.236346
v 2.248861 -1.095003 -0.038170
v 2.248861 -1.095003 0.038170
v 2.248861 -0.622311 0.094480
v 2.248862 -1.095003 0.094480
v 2.248861 -0.622311 -0.094480
v 2.248861 -1.095003 -0.094480
v -2.248862 -1.091339 -0.208509
v -2.248862 -0.665639 0.208509
v -2.248862 -1.044893 0.236346
v -2.248862 -1.095003 -0.038170
v -2.248862 -1.095003 0.038170
v -2.248862 -0.665639 -0.208509
v -2.248862 -1.091339 0.208509
v -2.248861 -1.044893 -0.236346
v -2.248862 -0.622311 -0.038170
v -2.248862 -0.622311 0.038170
v -2.248862 -1.095003 0.094480
v -2.248862 -0.622311 0.094480
v -2.248862 -1.095003 -0.094480
v -2.248862 -0.622311 -0.094480
v -2.401119 -1.091025 0.150696
v -2.401119 -0.710451 0.206125
v -2.401119 -0.669350 -0.150696
v -2.401118 -1.079799 -0.206125
v -2.368438 -1.091025 -0.206125
v 2.368438 -0.669350 -0.206125
v 2.401118 -1.079799 -0.206125
v 2.401118 -1.091025 -0.150696
v 2.401119 -0.669350 0.150696
v 2.401118 -1.079799 0.206125
v 2.368438 -1.091025 0.206125
v -2.368438 -0.669350 0.206125
v 1.408077 -1.091339 -0.207000
v -1.347295 -1.091339 -0.208509
v -1.412368 -0.614660 -0.232586
v 1.346961 -0.660541 -0.209345
v -1.412349 -1.091339 0.207000
v 1.347105 -1.091339 0.208509
v 1.408142 -0.614660 0.232586
v -1.347073 -0.660541 0.209345
v 1.384395 -0.575845 0.153335
v 0.000000 -0.627727 0.152500
v -1.384507 -0.575845 0.153335
v -1.390885 -1.094545 0.152500
v 0.000000 -1.094545 0.152500
v 1.389367 -1.094545 0.152500
v 1.389367 -1.080037 0.232867
v 0.000000 -1.080037 0.232867
v -1.390885 -1.080037 0.232867
v -1.390885 -1.080037 -0.232867
v -0.000000 -1.080037 -0.232867
v 1.389367 -1.080037 -0.232867
v 1.612527 -0.614660 -0.232586
v 1.612576 -1.091339 0.207000
v 1.658866 -1.091339 -0.208509
v 1.659019 -0.660541 0.209345
v 1.631020 -1.080037 0.232867
v 1.636002 -0.575845 0.153335
v 1.631020 -1.094545 0.152500
v 1.631020 -1.080037 -0.232867
v -1.610651 -1.091339 -0.207000
v -1.610623 -0.614660 0.232586
v -1.658965 -0.660541 -0.209345
v -1.658774 -1.091339 0.208509
v -1.630284 -1.080037 -0.232867
v -1.630284 -1.094545 0.152500
v -1.635948 -0.575845 0.153335
v -1.630284 -1.080037 0.232867
v -1.412916 -0.126517 -0.231181
v 1.408644 -0.227718 0.231181
v 1.389077 -0.227718 0.152500
v -1.389267 -0.126517 0.152500
v 1.612047 -0.227718 -0.231181
v 1.631615 -0.227718 0.152500
v -1.610122 -0.126517 0.231181
v -1.631523 -0.126517 0.152500
v 1.393404 -0.472943 -0.209345
v 1.627266 -0.472943 -0.209345
v -1.626552 -0.472943 0.209345
v -1.626552 -0.472943 -0.209345
v -1.394876 -0.472943 -0.209345
v -2.401119 -1.079799 0.206125
v -1.610651 -1.044893 0.234635
v -1.658774 -1.044893 -0.236346
v 1.612576 -1.044893 -0.234635
v 1.658866 -1.044893 0.236346
v 1.347105 -1.044893 -0.236346
v -1.412349 -1.044893 -0.234635
v -1.347295 -1.044893 0.236346
v 1.408077 -1.044893 0.234635
v -2.369032 -1.044893 0.232867
v 2.409919 -1.044893 0.152500
v 2.369032 -1.044893 -0.232867
v -2.409919 -1.044893 -0.152500
v -2.401119 -0.710451 -0.206125
v 2.401119 -0.710451 -0.206125
v 2.401119 -0.710451 0.206125
v 1.389338 -0.702545 0.234282
v -0.000000 -0.707643 0.232867
v -1.390810 -0.702545 0.234282
v -1.390810 -0.702545 -0.234282
v 0.000000 -0.707643 -0.232867
v 1.389338 -0.702545 -0.234282
v 1.631058 -0.702545 0.234282
v 1.631059 -0.702545 -0.234282
v -1.630345 -0.702545 -0.234282
v -1.630345 -0.702545 0.234282
v -2.409919 -1.080037 0.038170
v -2.409919 -1.080037 -0.038170
v 2.409919 -1.080037 -0.038170
v 2.409919 -1.080037 0.038170
v -1.412705 -0.124215 -0.035957
v -1.412705 -0.124215 0.035957
v 1.612213 -0.225416 -0.035957
v 1.612213 -0.225416 0.035957
v -2.369032 -1.094545 -0.038170
v -2.369032 -1.094545 0.038170
v 1.408077 -1.095003 -0.037893
v 1.408077 -1.095003 0.037893
v 2.369032 -0.627727 -0.038170
v 2.369032 -0.627727 0.038170
v -1.347295 -1.095003 -0.038170
v -1.347295 -1.095003 0.038170
v -1.610651 -1.095003 -0.037893
v -1.610651 -1.095003 0.037893
v 1.346415 -0.615909 -0.038170
v 1.346415 -0.615909 0.038170
v -1.659556 -0.615909 -0.038170
v -1.659556 -0.615909 0.038170
v 1.658866 -1.095003 -0.038170
v 1.658866 -1.095003 0.038170
v 2.409919 -0.707643 -0.038170
v 2.409919 -0.707643 0.038170
v -2.409919 -0.707643 0.038170
v -2.409919 -0.707643 -0.038170
v -1.413372 0.032071 -0.204633
v 1.409002 -0.069130 0.204633
v 1.394378 -0.069130 0.150696
v -1.396026 0.032072 0.150696
v 1.611690 -0.069130 -0.204633
v 1.626314 -0.069130 0.150696
v -1.609716 0.032071 0.204633
v -1.625515 0.032071 0.150696
v -1.413372 0.032071 -0.055737
v -1.413372 0.032072 0.055737
v 1.611690 -0.069130 -0.055737
v 1.611690 -0.069130 0.055737
v 1.626479 -0.148876 0.054747
v 1.626314 -0.147881 0.206125
v -1.625703 -0.047675 0.054747
v -1.395815 -0.047675 0.054747
v -1.396026 -0.046679 -0.206125
v -1.395815 -0.047675 -0.054747
v -1.396026 -0.046679 0.206125
v -1.625515 -0.046679 0.206125
v 1.626479 -0.148876 -0.054747
v 1.394213 -0.148876 -0.054747
v 1.394213 -0.148876 0.054747
v -1.625515 -0.046679 -0.206125
v 1.626314 -0.147881 -0.206125
v 1.394378 -0.147881 0.206125
v -1.625703 -0.047675 -0.054747
v 1.394378 -0.147881 -0.206125
v -1.658774 -1.091339 -0.208509
v -1.658965 -0.660541 0.209345
v -1.658774 -1.044893 0.236346
v -1.658774 -1.095003 -0.038170
v -1.658774 -1.095003 0.038170
v -1.769872 -1.080037 0.232867
v -1.769872 -1.080037 -0.232867
v -1.769872 -1.094545 0.152500
v -1.769872 -0.707643 -0.232867
v -1.769872 -0.627727 0.152500
v -1.769872 -0.707643 0.232867
v 1.659020 -0.660541 -0.209345
v 1.658866 -1.091339 0.208509
v 1.658866 -1.044893 -0.236346
v 1.659556 -0.615909 -0.038170
v 1.659556 -0.615909 0.038170
v 1.769872 -1.080037 -0.232867
v 1.769872 -1.080037 0.232867
v 1.769872 -0.627727 0.152500
v 1.769872 -0.707643 0.232867
v 1.769872 -1.094545 0.152500
v 1.769872 -0.707643 -0.232867
v -1.347073 -0.660541 -0.209345
v -1.347295 -1.091339 0.208509
v -1.347295 -1.044893 -0.236346
v -1.346416 -0.615909 -0.038170
v -1.346416 -0.615909 0.038170
v -1.138837 -1.080037 0.232867
v -1.138837 -1.080037 -0.232867
v -1.138837 -0.707643 -0.232867
v -1.138837 -0.707643 0.232867
v -1.138837 -1.094545 0.152500
v -1.138837 -0.627727 0.152500
v 1.347105 -1.091339 -0.208509
v 1.346961 -0.660541 0.209345
v 1.347105 -1.044893 0.236346
v 1.347105 -1.095003 -0.038170
v 1.347105 -1.095003 0.038170
v 1.138837 -1.080037 0.232867
v 1.138837 -1.080037 -0.232867
v 1.138837 -0.707643 -0.232867
v 1.138837 -0.707643 0.232867
v 1.138837 -1.094545 0.152500
v 1.138837 -0.627727 0.152500
v 1.393404 -0.472943 0.209345
v 1.627266 -0.472943 0.209345
v 1.632834 -0.468193 0.038170
v 1.632834 -0.468193 -0.038170
v 1.387820 -0.468193 -0.038170
v 1.387820 -0.468193 0.038170
v -1.394876 -0.472943 0.209345
v -1.387820 -0.468193 0.038170
v -1.387820 -0.468193 -0.038170
v -1.632834 -0.468193 -0.038170
v -1.632834 -0.468193 0.038170
v -2.401119 -0.669350 0.150696
v 2.401119 -1.091025 0.150696
v -2.409919 -1.044893 0.152500
v -1.632834 -0.468193 0.094480
v -1.387820 -0.468193 0.094480
v 1.387820 -0.468193 0.094480
v 1.632834 -0.468193 0.094480
v 1.346415 -0.615909 0.094480
v -1.347295 -1.095003 0.094480
v 1.658866 -1.095003 0.094480
v 2.369032 -0.627727 0.094480
v -1.659556 -0.615909 0.094480
v -2.369032 -1.094545 0.094480
v -1.389267 -0.044116 0.094480
v 1.389077 -0.145317 0.094480
v -1.631523 -0.044116 0.094480
v -1.412916 0.070067 0.093796
v 1.612047 -0.031134 0.093796
v -2.409919 -0.707643 0.094480
v 1.631615 -0.145317 0.094480
v -2.409919 -1.080037 0.094480
v 2.409919 -1.080037 0.094480
v -1.658774 -1.095003 0.094480
v 1.408077 -1.095003 0.093796
v 1.659556 -0.615909 0.094480
v 1.347105 -1.095003 0.094480
v -1.610651 -1.095003 0.093796
v -1.346415 -0.615909 0.094480
v 2.409919 -0.707643 0.094480
v -2.401119 -1.091025 -0.150696
v 2.401118 -0.669350 -0.150696
v 1.384395 -0.575845 -0.153335
v 0.000000 -0.627727 -0.152500
v -1.384507 -0.575845 -0.153335
v -1.390885 -1.094545 -0.152500
v 0.000000 -1.094545 -0.152500
v 1.389367 -1.094545 -0.152500
v 1.636002 -0.575845 -0.153335
v 1.631020 -1.094545 -0.152500
v -1.630284 -1.094545 -0.152500
v -1.635947 -0.575845 -0.153335
v 1.389077 -0.227718 -0.152500
v -1.389267 -0.126517 -0.152500
v 1.631615 -0.227718 -0.152500
v -1.631523 -0.126517 -0.152500
v 2.409919 -1.044893 -0.152500
v 1.394378 -0.069130 -0.150696
v -1.396026 0.032071 -0.150696
v 1.626314 -0.069130 -0.150696
v -1.625515 0.032072 -0.150696
v -1.769872 -0.627727 -0.152500
v -1.769872 -1.094545 -0.152500
v 1.769872 -1.094545 -0.152500
v 1.769872 -0.627727 -0.152500
v -1.138837 -0.627727 -0.152500
v -1.138837 -1.094545 -0.152500
v 1.138837 -0.627727 -0.152500
v 1.138837 -1.094545 -0.152500
v -1.387820 -0.468193 -0.094480
v -1.632834 -0.468193 -0.094480
v 1.632834 -0.468193 -0.094480
v 1.387820 -0.468193 -0.094480
v 1.346415 -0.615909 -0.094480
v -1.347295 -1.095003 -0.094480
v 2.369032 -0.627727 -0.094480
v 1.658866 -1.095003 -0.094480
v -2.369032 -1.094545 -0.094480
v -1.659556 -0.615909 -0.094480
v 1.389077 -0.145317 -0.094480
v -1.631523 -0.044116 -0.094480
v 1.631615 -0.145317 -0.094480
v 1.612047 -0.031134 -0.093796
v -1.412916 0.070067 -0.093796
v 2.409919 -0.707643 -0.094480
v -1.346416 -0.615909 -0.094480
v -1.610651 -1.095003 -0.093796
v 1.347105 -1.095003 -0.094480
v 1.659556 -0.615909 -0.094480
v 1.408077 -1.095003 -0.093796
v -1.658774 -1.095003 -0.094480
v 2.409919 -1.080037 -0.094480
v -2.409919 -1.080037 -0.094480
v -1.389267 -0.044116 -0.094480
v -2.409919 -0.707643 -0.094480
v -1.610623 -0.614660 -0.232586
v -1.610651 -1.091339 0.207000
v -1.610121 -0.126517 -0.231181
v -1.610651 -1.044893 -0.234635
v -1.610309 -0.124215 -0.035957
v -1.610309 -0.124215 0.035957
v -1.609716 0.032071 -0.204633
v -1.609716 0.032071 -0.055737
v -1.609716 0.032071 0.055737
v -1.610121 0.070067 0.093796
v -1.610121 0.070067 -0.093796
v -1.412349 -1.091339 -0.207000
v -1.412368 -0.614660 0.232586
v -1.412916 -0.126517 0.231181
v -1.412349 -1.044893 0.234635
v -1.412349 -1.095003 -0.037893
v -1.412349 -1.095003 0.037893
v -1.413372 0.032071 0.204633
v -1.412349 -1.095003 0.093796
v -1.412349 -1.095003 -0.093796
v 1.612576 -1.091339 -0.207000
v 1.612527 -0.614660 0.232586
v 1.408142 -0.614660 -0.232586
v 1.408077 -1.091339 0.207000
v 1.612047 -0.227718 0.231181
v 1.408644 -0.227718 -0.231181
v 1.408077 -1.044893 -0.234635
v 1.612576 -1.044893 0.234635
v 1.408479 -0.225416 -0.035957
v 1.408479 -0.225416 0.035957
v 1.612576 -1.095003 -0.037893
v 1.612576 -1.095003 0.037893
v 1.611690 -0.069130 0.204633
v 1.409002 -0.069130 -0.204633
v 1.409002 -0.069130 -0.055737
v 1.409002 -0.069130 0.055737
v 1.408644 -0.031134 0.093796
v 1.612576 -1.095003 0.093796
v 1.408644 -0.031134 -0.093796
v 1.612576 -1.095003 -0.093796
v 2.368438 -1.091025 -0.206125
v 2.368438 -0.669350 0.206125
v 2.369032 -1.044893 0.232867
v 2.369032 -1.094545 -0.038170
v 2.369032 -1.094545 0.038170
v 2.369032 -1.094545 0.094480
v 2.369032 -1.094545 -0.094480
v 2.248862 -1.094545 -0.152500
v 2.248862 -0.627727 -0.152500
v 2.248861 -0.707643 0.232867
v 2.248862 -0.627727 0.152500
v 2.248862 -1.080037 0.232867
v 2.248861 -1.080037 -0.232867
v 2.248861 -1.094545 0.152500
v 2.248862 -0.707643 -0.232867
v -2.368438 -0.669350 -0.206125
v -2.368438 -1.091025 0.206125
v -2.369032 -1.044893 -0.232867
v -2.369032 -0.627727 -0.038170
v -2.369032 -0.627727 0.038170
v -2.369032 -0.627727 0.094480
v -2.369032 -0.627727 -0.094480
v -2.248862 -0.627727 -0.152500
v -2.248862 -1.094545 -0.152500
v -2.248862 -0.707643 -0.232867
v -2.248862 -1.094545 0.152500
v -2.248862 -1.080037 -0.232867
v -2.248862 -1.080037 0.232867
v -2.248862 -0.627727 0.152500
v -2.248862 -0.707643 0.232867
v -2.408816 -0.708345 -0.152049
v 2.368884 -0.708345 -0.229516
v 2.408816 -0.708345 0.152049
v -2.368884 -0.708345 0.229516
v 2.368884 -1.094104 0.152049
v -2.368884 -0.632942 0.152049
v -1.346543 -0.621384 0.152709
v -1.412349 -1.094545 0.151396
v 1.347105 -1.094545 0.152500
v 1.408070 -0.701300 0.234267
v -1.347276 -0.706635 0.233076
v -1.412330 -0.701300 -0.234267
v 1.347098 -0.706635 -0.233076
v 1.658876 -0.706635 0.233076
v 1.659450 -0.621384 0.152709
v 1.612576 -1.094545 0.151396
v 1.612586 -0.701300 -0.234267
v -1.658789 -0.706635 -0.233076
v -1.658774 -1.094545 0.152500
v -1.610666 -0.701300 0.234267
v -1.413030 -0.044757 0.227854
v -1.390114 -0.044757 -0.152049
v -1.610651 -1.080037 0.231181
v -1.658774 -1.080037 -0.232867
v 1.612576 -1.080037 -0.231181
v 1.658866 -1.080037 0.232867
v 1.347105 -1.080037 -0.232867
v -1.412349 -1.080037 -0.231181
v -1.347295 -1.080037 0.232867
v 1.408077 -1.080037 0.231181
v -2.368884 -1.079977 0.229516
v 2.408816 -1.079977 0.152049
v 2.368883 -1.079977 -0.229516
v -2.408816 -1.079977 -0.152049
v -1.610067 -0.044633 0.051410
v 1.408734 -0.035895 0.150948
v -1.610020 0.065306 0.150948
v 1.611999 -0.145834 -0.051410
v -1.630770 -0.044757 0.152049
v 1.408692 -0.145834 0.051410
v -1.610020 -0.044757 -0.227854
v 1.630950 -0.145958 -0.152049
v 1.611958 -0.145958 0.227854
v 1.389741 -0.145958 0.152049
v 1.408734 -0.145958 -0.227854
v -1.412977 -0.044633 -0.051410
v -1.658774 -1.080037 0.232867
v -1.659441 -0.621384 0.152709
v -1.658789 -0.706635 0.233076
v 1.658866 -1.080037 -0.232867
v 1.658866 -1.094545 0.152500
v 1.658876 -0.706635 -0.233076
v -1.347295 -1.080037 -0.232867
v -1.347276 -0.706635 -0.233076
v -1.347295 -1.094545 0.152500
v 1.347105 -1.080037 0.232867
v 1.347098 -0.706635 0.233076
v 1.346523 -0.621384 0.152709
v 1.632154 -0.469155 -0.152709
v 1.612145 -0.473668 0.231388
v 1.388502 -0.469155 0.152709
v 1.408543 -0.473668 -0.231388
v -1.388681 -0.469155 -0.152709
v -1.610225 -0.473668 -0.231388
v -1.632067 -0.469155 0.152709
v -1.412802 -0.473668 0.231388
v -1.388681 -0.469155 0.152709
v 1.632154 -0.469155 0.152709
v -1.390114 -0.044757 0.152049
v -2.408816 -0.708345 0.152049
v 1.630951 -0.145958 0.152049
v -2.408816 -1.079977 0.152049
v -1.632067 -0.469155 -0.152709
v 1.388502 -0.469155 -0.152709
v 1.346523 -0.621384 -0.152709
v -1.347295 -1.094545 -0.152500
v 1.658866 -1.094545 -0.152500
v -1.659441 -0.621384 -0.152709
v 1.389741 -0.145958 -0.152049
v -1.630770 -0.044757 -0.152049
v 1.408734 -0.035895 -0.150948
v -1.610020 0.065306 -0.150948
v 2.408816 -0.708345 -0.152049
v 2.368884 -1.094104 -0.152049
v -2.368884 -0.632942 -0.152049
v -1.346543 -0.621384 -0.152709
v -1.412349 -1.094545 -0.151396
v 1.347105 -1.094545 -0.152500
v 1.659450 -0.621384 -0.152709
v 1.612576 -1.094545 -0.151396
v -1.658774 -1.094545 -0.152500
v 2.408816 -1.079977 -0.152049
v -1.610651 -1.094545 -0.151396
v -1.610225 -0.473668 0.231388
v -1.610067 -0.044633 -0.051410
v -1.610651 -1.080037 -0.231181
v -1.610020 -0.044757 0.227854
v -1.610666 -0.701300 -0.234267
v -1.610651 -1.094545 0.151396
v -1.412330 -0.701300 0.234267
v -1.412348 -1.080037 0.231181
v -1.412977 -0.044633 0.051410
v -1.413030 0.065306 0.150948
v -1.413030 -0.044757 -0.227854
v -1.412802 -0.473668 -0.231388
v -1.413030 0.065306 -0.150948
v 1.408077 -1.094545 -0.151396
v 1.611958 -0.035895 -0.150948
v 1.612145 -0.473668 -0.231388
v 1.408542 -0.473668 0.231388
v 1.611958 -0.145958 -0.227854
v 1.408734 -0.145958 0.227854
v 1.611999 -0.145834 0.051410
v 1.408692 -0.145834 -0.051410
v 1.611958 -0.035895 0.150948
v 1.612576 -1.080037 0.231181
v 1.408077 -1.080037 -0.231181
v 1.408070 -0.701300 -0.234267
v 1.408077 -1.094545 0.151396
v 1.612586 -0.701300 0.234267
v 2.368884 -0.632942 -0.152049
v 2.368883 -0.708345 0.229516
v 2.368884 -0.632942 0.152049
v 2.368884 -1.079977 0.229516
v -2.368884 -1.094104 -0.152049
v -2.368884 -0.708345 -0.229516
v -2.368884 -1.094104 0.152049
v -2.368884 -1.079977 -0.229516
vt 0.670571 0.527624
vt 0.670571 0.536490
vt 0.658868 0.535737
vt 0.658587 0.527501
vt 0.649731 0.532095
vt 0.647330 0.527222
vt 0.154086 0.031853
vt 0.145213 0.031857
vt 0.145972 0.006965
vt 0.154214 0.006868
vt 0.149646 0.000955
vt 0.154526 0.000162
vt 0.583413 0.792444
vt 0.583413 0.801312
vt 0.571711 0.800559
vt 0.571429 0.792322
vt 0.562573 0.796920
vt 0.560172 0.792047
vt 0.308809 0.968133
vt 0.317960 0.968137
vt 0.317233 0.993029
vt 0.308724 0.993118
vt 0.313718 0.999043
vt 0.308709 0.999832
vt 0.530860 0.031859
vt 0.530860 0.006844
vt 0.542845 0.006875
vt 0.542939 0.031859
vt 0.530862 0.000000
vt 0.542565 0.000163
vt 0.551703 0.000953
vt 0.554103 0.006967
vt 0.554599 0.031858
vt 0.670745 0.275561
vt 0.670745 0.300566
vt 0.658761 0.300525
vt 0.658667 0.275551
vt 0.709906 0.545016
vt 0.709906 0.536490
vt 0.721609 0.535737
vt 0.721890 0.543938
vt 0.730746 0.532095
vt 0.733147 0.536405
vt 0.647504 0.300364
vt 0.647007 0.275480
vt 0.736716 0.601287
vt 0.748505 0.600603
vt 0.748332 0.651414
vt 0.736672 0.651316
vt 0.571509 0.043384
vt 0.571509 0.280445
vt 0.559849 0.280374
vt 0.559849 0.043314
vt 0.530860 0.500001
vt 0.542939 0.500001
vt 0.542938 0.737070
vt 0.530860 0.737070
vt 0.583587 0.517515
vt 0.583587 0.560736
vt 0.571465 0.560753
vt 0.571509 0.517505
vt 0.675333 0.009230
vt 0.675333 0.019295
vt 0.663081 0.018325
vt 0.663212 0.008099
vt 0.649973 0.009996
vt 0.651422 0.000000
vt 0.559676 0.560790
vt 0.559849 0.517434
vt 0.468104 0.206882
vt 0.468104 0.164312
vt 0.479677 0.164313
vt 0.479677 0.206883
vt 0.530718 0.794007
vt 0.530860 0.789538
vt 0.542938 0.789538
vt 0.542709 0.794006
vt 0.554599 0.789537
vt 0.554285 0.794005
vt 0.554599 0.500000
vt 0.554599 0.737069
vt 0.317960 0.262925
vt 0.317960 0.499994
vt 0.308809 0.499991
vt 0.308810 0.262921
vt 0.530860 0.262932
vt 0.530860 0.219577
vt 0.542939 0.219577
vt 0.542939 0.262931
vt 0.530860 0.210779
vt 0.542939 0.210779
vt 0.554599 0.210778
vt 0.554599 0.219576
vt 0.554599 0.262930
vt 0.310100 0.206876
vt 0.328098 0.206860
vt 0.327983 0.210828
vt 0.309841 0.210774
vt 0.145213 0.737068
vt 0.145213 0.499998
vt 0.154086 0.499994
vt 0.154086 0.737063
vt 0.308809 0.737062
vt 0.317960 0.737064
vt 0.319002 0.780413
vt 0.309015 0.780452
vt 0.327982 0.789386
vt 0.309841 0.789514
vt 0.542709 0.835287
vt 0.554285 0.835286
vt 0.152774 0.793996
vt 0.134735 0.794003
vt 0.135057 0.789390
vt 0.153033 0.789516
vt 0.224286 0.737064
vt 0.224286 0.499995
vt 0.231580 0.499995
vt 0.231580 0.737065
vt 0.154086 0.262924
vt 0.145213 0.262929
vt 0.144157 0.219604
vt 0.153877 0.219571
vt 0.135057 0.210832
vt 0.153033 0.210777
vt 0.308810 0.131560
vt 0.317960 0.131563
vt 0.319002 0.154639
vt 0.309015 0.154666
vt 0.327983 0.160391
vt 0.309841 0.160457
vt 0.670745 0.425297
vt 0.670745 0.448273
vt 0.658623 0.448284
vt 0.658667 0.425287
vt 0.685259 0.701673
vt 0.685259 0.711436
vt 0.673007 0.710464
vt 0.673137 0.700541
vt 0.659899 0.702113
vt 0.661348 0.692440
vt 0.646833 0.448300
vt 0.647007 0.425216
vt 0.328098 0.164313
vt 0.310100 0.164302
vt 0.530718 0.164314
vt 0.530860 0.160475
vt 0.542939 0.160475
vt 0.542709 0.164314
vt 0.554599 0.160474
vt 0.554285 0.164313
vt 0.238837 0.206879
vt 0.238837 0.164309
vt 0.542709 0.206884
vt 0.554285 0.206883
vt 0.152774 0.164305
vt 0.134735 0.164316
vt 0.135057 0.160395
vt 0.153033 0.160459
vt 0.154086 0.868425
vt 0.145213 0.868429
vt 0.144157 0.845342
vt 0.153877 0.845302
vt 0.135057 0.839488
vt 0.153033 0.839379
vt 0.530860 0.868432
vt 0.530860 0.845304
vt 0.542938 0.845304
vt 0.542938 0.868432
vt 0.530860 0.839374
vt 0.542938 0.839374
vt 0.554599 0.839373
vt 0.554599 0.845304
vt 0.554599 0.868431
vt 0.687055 0.040691
vt 0.702947 0.040691
vt 0.703825 0.109499
vt 0.686177 0.109499
vt 0.646833 0.040079
vt 0.651422 0.039854
vt 0.651596 0.111616
vt 0.646876 0.111982
vt 0.724594 0.651302
vt 0.724594 0.601472
vt 0.152774 0.835283
vt 0.224277 0.794002
vt 0.224277 0.835281
vt 0.310100 0.835280
vt 0.328098 0.835271
vt 0.327982 0.839484
vt 0.309841 0.839377
vt 0.134735 0.835274
vt 0.652092 0.128164
vt 0.647569 0.128918
vt 0.654493 0.141141
vt 0.652403 0.144837
vt 0.714669 0.111468
vt 0.726747 0.111487
vt 0.726653 0.128438
vt 0.714669 0.128553
vt 0.738406 0.111616
vt 0.737910 0.128164
vt 0.735509 0.141141
vt 0.726371 0.144474
vt 0.714669 0.145163
vt 0.429357 0.835159
vt 0.429357 0.794107
vt 0.446373 0.794131
vt 0.446373 0.835138
vt 0.656759 0.732125
vt 0.661348 0.731959
vt 0.661521 0.782759
vt 0.656802 0.783067
vt 0.462725 0.794205
vt 0.462725 0.835077
vt 0.134735 0.206863
vt 0.152774 0.206878
vt 0.736716 0.732641
vt 0.748505 0.731959
vt 0.748332 0.782759
vt 0.736672 0.782658
vt 0.224277 0.164308
vt 0.224277 0.206879
vt 0.600147 0.601171
vt 0.616038 0.601171
vt 0.616916 0.669981
vt 0.599269 0.669981
vt 0.639882 0.600988
vt 0.651671 0.600316
vt 0.651498 0.672093
vt 0.639838 0.671981
vt 0.724594 0.782643
vt 0.724594 0.732826
vt 0.696981 0.601472
vt 0.712872 0.601472
vt 0.713750 0.649307
vt 0.696103 0.649307
vt 0.559925 0.600499
vt 0.564514 0.600316
vt 0.564687 0.672093
vt 0.559968 0.672418
vt 0.627760 0.671965
vt 0.627760 0.601171
vt 0.656260 0.600499
vt 0.656217 0.672418
vt 0.753094 0.600762
vt 0.753051 0.651716
vt 0.726790 0.040509
vt 0.738580 0.039854
vt 0.675333 0.111468
vt 0.675333 0.040691
vt 0.714669 0.040691
vt 0.743125 0.111982
vt 0.743169 0.040079
vt 0.105388 0.835191
vt 0.033146 0.835168
vt 0.033146 0.794116
vt 0.105388 0.794094
vt 0.231611 0.835283
vt 0.238837 0.835282
vt 0.238806 0.839369
vt 0.231580 0.839370
vt 0.559325 0.835282
vt 0.559676 0.839370
vt 0.467790 0.868430
vt 0.462725 0.868426
vt 0.462725 0.845300
vt 0.467790 0.845304
vt 0.231580 0.868427
vt 0.224286 0.868426
vt 0.224286 0.845299
vt 0.231580 0.845300
vt 0.224286 0.839368
vt 0.231580 0.839369
vt 0.462725 0.839369
vt 0.467790 0.839373
vt 0.357359 0.164391
vt 0.408369 0.164408
vt 0.408369 0.206750
vt 0.357359 0.206775
vt 0.231571 0.164309
vt 0.224286 0.160468
vt 0.231580 0.160469
vt 0.463076 0.164309
vt 0.462725 0.160470
vt 0.467790 0.160473
vt 0.554599 0.131569
vt 0.559676 0.131565
vt 0.559676 0.154674
vt 0.554599 0.154676
vt 0.231580 0.131565
vt 0.238806 0.131564
vt 0.238806 0.154673
vt 0.231580 0.154674
vt 0.238806 0.160469
vt 0.231580 0.160470
vt 0.559676 0.160470
vt 0.467790 0.262930
vt 0.462725 0.262926
vt 0.462725 0.219571
vt 0.467790 0.219575
vt 0.231580 0.262926
vt 0.224286 0.262925
vt 0.224286 0.219570
vt 0.231580 0.219571
vt 0.224286 0.210773
vt 0.231580 0.210773
vt 0.462725 0.210773
vt 0.467790 0.210777
vt 0.238806 0.262926
vt 0.238806 0.499995
vt 0.231580 0.499996
vt 0.231580 0.262927
vt 0.462725 0.737065
vt 0.462725 0.499996
vt 0.467790 0.499999
vt 0.467790 0.737069
vt 0.357359 0.794089
vt 0.357359 0.835186
vt 0.231571 0.794003
vt 0.224286 0.789533
vt 0.231580 0.789534
vt 0.468104 0.794005
vt 0.463076 0.794002
vt 0.462725 0.789534
vt 0.467790 0.789537
vt 0.559676 0.737065
vt 0.559676 0.780460
vt 0.554599 0.780463
vt 0.231580 0.737066
vt 0.238806 0.737065
vt 0.238806 0.780459
vt 0.231580 0.780460
vt 0.238806 0.789534
vt 0.231580 0.789535
vt 0.559676 0.789535
vt 0.559676 0.262927
vt 0.559676 0.499996
vt 0.463076 0.206879
vt 0.231571 0.206879
vt 0.231611 0.206880
vt 0.238806 0.210773
vt 0.231580 0.210774
vt 0.559325 0.206880
vt 0.559676 0.210774
vt 0.554599 0.968141
vt 0.559676 0.968138
vt 0.558978 0.993122
vt 0.554103 0.993033
vt 0.231580 0.968139
vt 0.238806 0.968137
vt 0.238869 0.993154
vt 0.231653 0.993124
vt 0.239308 1.000000
vt 0.232112 0.999838
vt 0.554109 0.999832
vt 0.551703 0.999045
vt 0.583413 0.713143
vt 0.583413 0.715316
vt 0.571429 0.715352
vt 0.571711 0.713224
vt 0.583413 0.722571
vt 0.571335 0.722595
vt 0.559676 0.722763
vt 0.560172 0.715550
vt 0.562573 0.713619
vt 0.467790 0.031858
vt 0.462725 0.031855
vt 0.463422 0.006870
vt 0.468286 0.006966
vt 0.231580 0.031854
vt 0.224286 0.031854
vt 0.224267 0.006838
vt 0.231550 0.006870
vt 0.224135 0.000000
vt 0.231386 0.000164
vt 0.468292 0.000159
vt 0.470688 0.000953
vt 0.670571 0.448301
vt 0.670571 0.450478
vt 0.658587 0.450513
vt 0.658868 0.448382
vt 0.670571 0.457735
vt 0.658493 0.457759
vt 0.646833 0.457923
vt 0.647330 0.450707
vt 0.649731 0.448774
vt 0.463076 0.835282
vt 0.468104 0.835285
vt 0.310100 0.793993
vt 0.238837 0.794002
vt 0.559325 0.164310
vt 0.239308 0.000000
vt 0.308709 0.000159
vt 0.308724 0.006866
vt 0.238869 0.006839
vt 0.503247 0.500001
vt 0.503247 0.737070
vt 0.491525 0.737070
vt 0.491525 0.500001
vt 0.709906 0.527624
vt 0.698184 0.527624
vt 0.698184 0.457735
vt 0.709906 0.457735
vt 0.682293 0.527624
vt 0.682293 0.457735
vt 0.622748 0.792444
vt 0.611026 0.792444
vt 0.611026 0.722571
vt 0.622748 0.722571
vt 0.698184 0.450478
vt 0.709906 0.450478
vt 0.595135 0.792444
vt 0.595135 0.722571
vt 0.682293 0.450478
vt 0.309015 0.845299
vt 0.238806 0.845300
vt 0.611026 0.715316
vt 0.622748 0.715316
vt 0.698184 0.448301
vt 0.709906 0.448301
vt 0.595135 0.715316
vt 0.682293 0.448301
vt 0.611026 0.713143
vt 0.622748 0.713143
vt 0.663212 0.040509
vt 0.663255 0.111487
vt 0.595135 0.713143
vt 0.588425 0.671965
vt 0.588425 0.601171
vt 0.576303 0.600988
vt 0.576347 0.671981
vt 0.685259 0.732826
vt 0.696981 0.732826
vt 0.696103 0.780651
vt 0.685259 0.782643
vt 0.673137 0.732641
vt 0.673181 0.782658
vt 0.712872 0.732826
vt 0.713750 0.780651
vt 0.693530 0.799094
vt 0.685259 0.799724
vt 0.685259 0.651302
vt 0.685259 0.601472
vt 0.760816 0.097902
vt 0.743169 0.097902
vt 0.744507 0.094284
vt 0.759477 0.094284
vt 0.231611 0.794003
vt 0.736520 0.205461
vt 0.733991 0.201818
vt 0.752550 0.202254
vt 0.753165 0.205509
vt 0.765748 0.202832
vt 0.769150 0.205582
vt 0.736520 0.246596
vt 0.753165 0.246537
vt 0.760816 0.049120
vt 0.743169 0.049120
vt 0.744507 0.045787
vt 0.759477 0.045787
vt 0.769150 0.246454
vt 0.693008 0.812268
vt 0.685259 0.816306
vt 0.231611 0.164310
vt 0.673137 0.601287
vt 0.673181 0.651316
vt 0.661521 0.651414
vt 0.661348 0.600603
vt 0.491525 0.839374
vt 0.503247 0.839374
vt 0.503247 0.845304
vt 0.491525 0.845304
vt 0.519138 0.839374
vt 0.519138 0.845304
vt 0.491525 0.160475
vt 0.503247 0.160475
vt 0.503304 0.164314
vt 0.491667 0.164313
vt 0.503247 0.868432
vt 0.491525 0.868432
vt 0.519138 0.160475
vt 0.519081 0.164314
vt 0.519138 0.868432
vt 0.724594 0.711436
vt 0.712872 0.711436
vt 0.712872 0.701673
vt 0.724594 0.701673
vt 0.698358 0.325590
vt 0.682467 0.325590
vt 0.682467 0.300566
vt 0.698358 0.300566
vt 0.503304 0.206884
vt 0.491667 0.206884
vt 0.696981 0.711436
vt 0.696981 0.701673
vt 0.519138 0.031859
vt 0.519138 0.131570
vt 0.503247 0.131570
vt 0.503247 0.031859
vt 0.491525 0.210779
vt 0.503247 0.210779
vt 0.503247 0.219577
vt 0.491525 0.219577
vt 0.710080 0.448273
vt 0.698358 0.448273
vt 0.698358 0.425297
vt 0.710080 0.425297
vt 0.519138 0.210779
vt 0.519138 0.219577
vt 0.682467 0.448273
vt 0.682467 0.425297
vt 0.519138 0.500001
vt 0.519138 0.737070
vt 0.503247 0.262931
vt 0.491525 0.262931
vt 0.611200 0.280455
vt 0.611200 0.043395
vt 0.622922 0.043395
vt 0.622922 0.280455
vt 0.519138 0.262932
vt 0.491525 0.789538
vt 0.503247 0.789538
vt 0.503304 0.794006
vt 0.491667 0.794006
vt 0.519138 0.789538
vt 0.519081 0.794007
vt 0.231571 0.835282
vt 0.714669 0.019295
vt 0.702947 0.019295
vt 0.702947 0.009230
vt 0.714669 0.009230
vt 0.491667 0.835287
vt 0.503304 0.835287
vt 0.687055 0.019295
vt 0.687055 0.009230
vt 0.595309 0.280455
vt 0.595309 0.043395
vt 0.622922 0.560737
vt 0.611200 0.560737
vt 0.611200 0.517515
vt 0.622922 0.517515
vt 0.595309 0.517515
vt 0.595309 0.560737
vt 0.682293 0.536490
vt 0.682293 0.545016
vt 0.670571 0.545016
vt 0.698184 0.536490
vt 0.698184 0.545016
vt 0.503249 0.000000
vt 0.503247 0.006844
vt 0.491525 0.006844
vt 0.491527 0.000000
vt 0.710080 0.300566
vt 0.698358 0.300566
vt 0.698358 0.275561
vt 0.710080 0.275561
vt 0.519140 0.000000
vt 0.519139 0.006844
vt 0.682467 0.300566
vt 0.682467 0.275561
vt 0.622748 0.801312
vt 0.611026 0.801312
vt 0.491525 0.031859
vt 0.595135 0.801312
vt 0.588425 0.705648
vt 0.596174 0.701615
vt 0.596490 0.705280
vt 0.588567 0.713143
vt 0.698358 0.175855
vt 0.682467 0.175855
vt 0.682467 0.152904
vt 0.698358 0.152904
vt 0.519081 0.206884
vt 0.724452 0.692440
vt 0.724594 0.684970
vt 0.736297 0.684277
vt 0.736349 0.691456
vt 0.745434 0.680929
vt 0.747525 0.684576
vt 0.759477 0.003378
vt 0.744507 0.003378
vt 0.743169 0.000000
vt 0.760816 0.000000
vt 0.744507 0.053150
vt 0.759477 0.053150
vt 0.627618 0.713143
vt 0.627760 0.705648
vt 0.639463 0.704957
vt 0.639515 0.712159
vt 0.648600 0.701615
vt 0.650691 0.705280
vt 0.685259 0.684970
vt 0.693008 0.680929
vt 0.693324 0.684576
vt 0.685401 0.692440
vt 0.745889 0.417369
vt 0.745889 0.376364
vt 0.757064 0.376489
vt 0.757064 0.417360
vt 0.596696 0.688433
vt 0.588425 0.689051
vt 0.745889 0.335274
vt 0.745889 0.292971
vt 0.757064 0.293088
vt 0.757064 0.335280
vt 0.768851 0.493958
vt 0.768851 0.451765
vt 0.777417 0.451696
vt 0.777417 0.494038
vt 0.736083 0.451655
vt 0.733644 0.448301
vt 0.752295 0.448687
vt 0.752866 0.451701
vt 0.765480 0.449197
vt 0.639744 0.688934
vt 0.627760 0.689051
vt 0.651001 0.688643
vt 0.736083 0.494066
vt 0.752866 0.494023
vt 0.736520 0.156054
vt 0.733991 0.152697
vt 0.752550 0.153081
vt 0.753165 0.156096
vt 0.765748 0.153591
vt 0.769150 0.156160
vt 0.777417 0.501479
vt 0.777417 0.542531
vt 0.768851 0.542441
vt 0.768851 0.501568
vt 0.565184 0.688643
vt 0.560660 0.689358
vt 0.567585 0.701615
vt 0.565494 0.705280
vt 0.736578 0.799605
vt 0.724594 0.799724
vt 0.747835 0.799304
vt 0.745434 0.812268
vt 0.736297 0.815614
vt 0.724594 0.816306
vt 0.753165 0.198418
vt 0.736520 0.198464
vt 0.662018 0.799304
vt 0.657494 0.800002
vt 0.664419 0.812268
vt 0.662328 0.815920
vt 0.769150 0.198353
vt 0.736578 0.668267
vt 0.724594 0.668386
vt 0.747835 0.667963
vt 0.683604 0.127953
vt 0.675333 0.128553
vt 0.683082 0.141141
vt 0.675333 0.145163
vt 0.693530 0.667754
vt 0.685259 0.668386
vt 0.710080 0.175855
vt 0.710080 0.152904
vt 0.425385 0.164426
vt 0.425385 0.206731
vt 0.656802 0.651716
vt 0.662018 0.667963
vt 0.657494 0.668655
vt 0.664419 0.680929
vt 0.662328 0.684576
vt 0.441737 0.164484
vt 0.441737 0.206677
vt 0.519081 0.835287
vt 0.736083 0.501429
vt 0.733644 0.497422
vt 0.752295 0.497915
vt 0.752866 0.501487
vt 0.765480 0.498565
vt 0.503247 0.968143
vt 0.491525 0.968143
vt 0.600147 0.570024
vt 0.616038 0.570024
vt 0.616038 0.579778
vt 0.600147 0.579778
vt 0.588425 0.570024
vt 0.588425 0.579778
vt 0.519138 0.154677
vt 0.503247 0.154677
vt 0.491525 0.131570
vt 0.491525 0.154677
vt 0.308809 0.868423
vt 0.238806 0.868427
vt 0.154086 0.968136
vt 0.224286 0.968137
vt 0.231580 0.968138
vt 0.153877 0.154669
vt 0.224286 0.154672
vt 0.559676 0.845300
vt 0.231580 0.845301
vt 0.231580 0.868428
vt 0.559676 0.868427
vt 0.542938 0.968143
vt 0.530860 0.968143
vt 0.462725 0.968137
vt 0.467790 0.968141
vt 0.145213 0.968140
vt 0.627760 0.579778
vt 0.627760 0.570024
vt 0.639882 0.568892
vt 0.640012 0.578806
vt 0.670745 0.152904
vt 0.670745 0.175855
vt 0.658667 0.175845
vt 0.658623 0.152869
vt 0.647007 0.175774
vt 0.646833 0.152697
vt 0.651671 0.560790
vt 0.653120 0.570461
vt 0.319002 0.845339
vt 0.317960 0.868426
vt 0.710080 0.325590
vt 0.154086 0.131563
vt 0.224286 0.131564
vt 0.308810 0.031850
vt 0.238806 0.031854
vt 0.231580 0.031855
vt 0.462725 0.154673
vt 0.467790 0.154676
vt 0.231580 0.154673
vt 0.231580 0.131564
vt 0.462725 0.131565
vt 0.467790 0.131569
vt 0.658667 0.325581
vt 0.670745 0.325590
vt 0.559676 0.031855
vt 0.647007 0.325510
vt 0.317960 0.031853
vt 0.530860 0.154678
vt 0.542938 0.154677
vt 0.530860 0.131570
vt 0.542939 0.131570
vt 0.144157 0.154643
vt 0.145213 0.131567
vt 0.519138 0.780465
vt 0.503247 0.780464
vt 0.491525 0.780464
vt 0.595309 0.000197
vt 0.611200 0.000197
vt 0.622922 0.000197
vt 0.153877 0.780454
vt 0.224286 0.780458
vt 0.309015 0.219568
vt 0.238806 0.219571
vt 0.462725 0.780459
vt 0.467790 0.780463
vt 0.231580 0.780459
vt 0.144157 0.780416
vt 0.583587 0.280455
vt 0.530860 0.780465
vt 0.542938 0.780464
vt 0.696981 0.570025
vt 0.712872 0.570025
vt 0.712872 0.580074
vt 0.696981 0.580074
vt 0.685259 0.570025
vt 0.685259 0.580074
vt 0.733644 0.457923
vt 0.733147 0.527222
vt 0.721890 0.527501
vt 0.721984 0.457759
vt 0.559676 0.219572
vt 0.231580 0.219572
vt 0.319002 0.219600
vt 0.724594 0.580074
vt 0.724594 0.570025
vt 0.736716 0.568893
vt 0.736846 0.579101
vt 0.583587 0.000197
vt 0.583587 0.043395
vt 0.571465 0.000164
vt 0.559676 0.000000
vt 0.748505 0.560790
vt 0.749954 0.570747
vt 0.736846 0.710464
vt 0.749954 0.702113
vt 0.753094 0.732125
vt 0.753051 0.783067
vt 0.656510 0.702916
vt 0.037173 0.164433
vt 0.037173 0.206738
vt 0.021060 0.206687
vt 0.021060 0.164494
vt 0.656510 0.571545
vt 0.659899 0.570747
vt 0.656759 0.600762
vt 0.054205 0.206757
vt 0.054205 0.164414
vt 0.726921 0.018325
vt 0.740029 0.009996
vt 0.559676 0.571283
vt 0.563065 0.570461
vt 0.752866 0.542514
vt 0.328098 0.794001
vt 0.357907 0.790360
vt 0.519138 0.968143
vt 0.733817 0.425216
vt 0.722158 0.425287
vt 0.722158 0.325581
vt 0.733817 0.325510
vt 0.716323 0.667754
vt 0.663349 0.128438
vt 0.663631 0.144474
vt 0.716845 0.680929
vt 0.619489 0.688433
vt 0.620011 0.701615
vt 0.619695 0.705280
vt 0.733991 0.417384
vt 0.733991 0.376334
vt 0.716529 0.684576
vt 0.736083 0.542563
vt 0.673275 0.799605
vt 0.673556 0.815614
vt 0.730746 0.448774
vt 0.733147 0.450707
vt 0.721890 0.450513
vt 0.721609 0.448382
vt 0.646486 0.722763
vt 0.645989 0.792047
vt 0.634733 0.792322
vt 0.634826 0.722595
vt 0.724452 0.823782
vt 0.716529 0.815920
vt 0.716845 0.812268
vt 0.479447 0.262931
vt 0.479447 0.500001
vt 0.576173 0.578806
vt 0.716323 0.799094
vt 0.673007 0.579101
vt 0.646660 0.517434
vt 0.635000 0.517505
vt 0.635000 0.280445
vt 0.646660 0.280374
vt 0.661348 0.560790
vt 0.673137 0.568893
vt 0.646833 0.000000
vt 0.646660 0.043314
vt 0.635000 0.043384
vt 0.635044 0.000164
vt 0.479447 0.780464
vt 0.479447 0.789538
vt 0.479447 0.737070
vt 0.479447 0.868432
vt 0.479447 0.968142
vt 0.479447 0.154677
vt 0.479447 0.160474
vt 0.479447 0.131570
vt 0.479447 0.031859
vt 0.564514 0.560790
vt 0.576303 0.568892
vt 0.733991 0.152697
vt 0.733817 0.175774
vt 0.722158 0.175845
vt 0.722202 0.152869
vt 0.673275 0.668267
vt 0.673556 0.684277
vt 0.576441 0.688934
vt 0.576722 0.704957
vt 0.530718 0.206884
vt 0.673504 0.691456
vt 0.693324 0.815920
vt 0.685401 0.823782
vt 0.777263 0.205491
vt 0.777263 0.246542
vt 0.576670 0.712159
vt 0.643588 0.796920
vt 0.634451 0.800559
vt 0.479541 0.006874
vt 0.479825 0.000163
vt 0.733817 0.275480
vt 0.733321 0.300364
vt 0.722064 0.300525
vt 0.722158 0.275551
vt 0.647330 0.536405
vt 0.658587 0.543938
vt 0.646833 0.560790
vt 0.635044 0.560753
vt 0.738580 0.000000
vt 0.726790 0.008099
vt 0.530718 0.835287
vt 0.479677 0.794006
vt 0.479447 0.219576
vt 0.479447 0.210778
vt 0.733991 0.448300
vt 0.722201 0.448284
vt 0.748505 0.692440
vt 0.736716 0.700541
vt 0.733991 0.250748
vt 0.745167 0.250630
vt 0.745167 0.292933
vt 0.733991 0.292940
vt 0.757064 0.250603
vt 0.757064 0.292943
vt 0.479447 0.845304
vt 0.479447 0.839374
vt 0.643588 0.713619
vt 0.645989 0.715550
vt 0.634733 0.715352
vt 0.634451 0.713224
vt 0.706398 0.127953
vt 0.706920 0.141141
vt 0.479677 0.835287
vt 0.745167 0.376319
vt 0.745167 0.335313
vt 0.757064 0.335283
vt 0.757064 0.376334
vt 0.683398 0.144837
vt 0.675476 0.152697
vt 0.656510 0.571283
vt 0.016114 0.835147
vt 0.016114 0.794140
vt 0.733644 0.546206
vt 0.752295 0.545770
vt 0.000000 0.835088
vt 0.000000 0.794215
vt 0.765480 0.545191
vt 0.714526 0.152697
vt 0.706604 0.144837
vt 0.743169 0.049120
vt 0.760816 0.049120
vt 0.559325 0.794003
vt 0.655525 0.689358
vt 0.733991 0.250602
vt 0.752550 0.250109
vt 0.765748 0.249458
vt 0.663578 0.151713
vt 0.742433 0.128918
vt 0.737599 0.144837
vt 0.105118 0.790366
vt 0.726424 0.151713
vt 0.747525 0.815920
vt 0.736349 0.822798
vt 0.777263 0.156078
vt 0.777263 0.198421
vt 0.105388 0.206779
vt 0.105388 0.164395
vt 0.753344 0.702916
vt 0.753343 0.571545
vt 0.752359 0.800002
vt 0.752359 0.668655
vt 0.733991 0.201819
vt 0.752550 0.201431
vt 0.765748 0.200921
vt 0.733644 0.497423
vt 0.752295 0.497038
vt 0.765480 0.496527
vt 0.733991 0.292943
vt 0.733991 0.335283
vt 0.673504 0.822798
vt 0.645989 0.801243
vt 0.634733 0.808774
vt 0.733321 0.300611
vt 0.722064 0.300587
vt 0.710080 0.300566
vt 0.622748 0.809852
vt 0.670745 0.300566
vt 0.595135 0.809852
vt 0.583413 0.809852
vt 0.313718 0.000951
vt 0.317233 0.006962
vt 0.571429 0.808774
vt 0.658760 0.300587
vt 0.647503 0.300611
vt 0.560172 0.801243
vt 0.554109 0.000160
vt 0.558978 0.006870
vt 0.232112 0.000164
vt 0.231653 0.006870
vt 0.611026 0.809852
vt 0.519139 0.993157
vt 0.503247 0.993157
vt 0.224135 1.000000
vt 0.154526 0.999835
vt 0.154214 0.993121
vt 0.224267 0.993153
vt 0.470688 0.999045
vt 0.468286 0.993032
vt 0.479541 0.993127
vt 0.479825 0.999836
vt 0.491525 0.993157
vt 0.491527 0.999999
vt 0.530860 0.993157
vt 0.530862 0.999999
vt 0.519140 0.999999
vt 0.149646 0.999047
vt 0.145972 0.993032
vt 0.542845 0.993127
vt 0.542565 0.999836
vt 0.468292 0.999832
vt 0.463422 0.993122
vt 0.231386 0.999837
vt 0.231550 0.993123
vt 0.503249 0.999999
vt 0.733991 0.376309
vt 0.733991 0.335439
vn -0.9952 0.0970 -0.0108
vn -0.8969 0.4418 -0.0213
vn -0.8684 0.4657 -0.1702
vn -0.9909 0.1034 -0.0863
vn -0.7909 0.4356 -0.4297
vn -0.8297 0.1790 -0.5287
vn 0.0151 0.2663 -0.9638
vn 0.0173 0.6840 -0.7293
vn 0.3306 0.6597 -0.6749
vn 0.3093 0.2523 -0.9169
vn 0.7909 0.4356 -0.4297
vn 0.8297 0.1790 -0.5287
vn 0.9952 0.0970 0.0108
vn 0.8969 0.4418 0.0213
vn 0.8684 0.4657 0.1702
vn 0.9909 0.1034 0.0863
vn 0.7909 0.4356 0.4297
vn 0.8297 0.1790 0.5287
vn -0.0151 0.2663 0.9638
vn -0.0173 0.6840 0.7293
vn -0.3306 0.6597 0.6749
vn -0.3093 0.2523 0.9169
vn -0.7909 0.4356 0.4297
vn -0.8297 0.1790 0.5287
vn 0.0019 -1.0000 0.0039
vn 0.0503 -0.9987 0.0038
vn 0.0473 -0.9984 0.0309
vn 0.0019 -0.9995 0.0325
vn 0.5033 -0.8641 0.0063
vn 0.5152 -0.8557 0.0483
vn 0.4873 -0.8501 0.1995
vn 0.1100 -0.9541 0.2785
vn 0.0039 -0.9695 0.2452
vn -0.0223 0.9987 0.0462
vn -0.4302 0.9018 0.0404
vn -0.3916 0.8722 0.2931
vn -0.0210 0.9417 0.3359
vn -0.8969 0.4418 0.0213
vn -0.8684 0.4657 0.1702
vn -0.9985 0.0197 0.0509
vn -0.9321 0.0192 0.3616
vn -0.9437 0.0092 0.3306
vn -0.9988 0.0054 0.0490
vn -0.0141 0.9406 0.3393
vn 0.0000 0.9414 0.3373
vn 0.0000 0.6821 0.7313
vn -0.0085 0.6756 0.7373
vn 0.0000 -1.0000 0.0039
vn 0.0000 -0.9995 0.0325
vn 0.0154 0.9988 0.0466
vn 0.4421 0.8960 0.0426
vn 0.4388 0.8354 0.3310
vn 0.0141 0.9406 0.3393
vn 0.9358 0.3519 0.0196
vn 0.9393 0.3108 0.1452
vn 0.6674 0.2607 0.6975
vn 0.2402 0.5621 0.7914
vn 0.0085 0.6756 0.7373
vn 0.0098 -0.9707 -0.2399
vn -0.0099 -0.9708 -0.2399
vn -0.0011 -0.9995 -0.0322
vn 0.0011 -0.9995 -0.0322
vn -0.0001 -1.0000 0.0039
vn -0.0001 -1.0000 0.0040
vn -0.0010 -0.9995 0.0330
vn -0.0009 -0.9995 0.0323
vn -0.0092 -0.9688 0.2477
vn -0.0086 -0.9706 0.2405
vn 0.0000 -0.9699 0.2433
vn 0.0000 0.2647 0.9643
vn -0.0025 0.2581 0.9661
vn 0.0001 -1.0000 0.0040
vn 0.0011 -0.9995 0.0331
vn 0.0106 -0.9686 0.2482
vn -0.0953 0.0335 0.9949
vn -0.3104 0.0425 0.9497
vn -0.6958 0.2591 0.6698
vn -0.1588 0.1069 0.9815
vn 0.0085 0.6756 -0.7373
vn 0.0000 0.6821 -0.7313
vn 0.0000 0.2647 -0.9643
vn 0.0025 0.2581 -0.9661
vn 0.0025 0.2581 0.9661
vn 0.0672 0.1985 0.9778
vn 0.1469 0.1067 0.9834
vn 0.0010 -0.9995 0.0323
vn 0.0094 -0.9707 0.2402
vn 0.0833 0.0336 -0.9960
vn 0.2793 0.0429 -0.9592
vn 0.6674 0.2607 -0.6975
vn 0.1469 0.1067 -0.9834
vn 0.0001 -0.0443 -0.9990
vn 0.0000 -0.0442 -0.9990
vn 0.0000 -0.5790 -0.8153
vn -0.0025 0.2581 -0.9661
vn -0.0085 0.6756 -0.7373
vn -0.2438 0.5620 -0.7904
vn -0.0688 0.1986 -0.9777
vn -0.6958 0.2591 -0.6698
vn -0.1588 0.1069 -0.9815
vn 0.0047 0.2578 0.9662
vn 0.0160 0.6747 0.7379
vn 0.3247 0.5350 0.7799
vn 0.1000 0.1951 0.9757
vn 0.7572 0.2122 0.6178
vn 0.1966 0.1060 0.9747
vn 0.0289 0.9985 0.0466
vn 0.5520 0.8329 0.0398
vn 0.5581 0.7704 0.3081
vn 0.0266 0.9401 0.3398
vn 0.9688 0.2474 0.0142
vn 0.9694 0.2211 0.1066
vn 0.3122 0.0423 0.9491
vn 0.0963 0.0334 0.9948
vn -0.0011 -0.9995 0.0331
vn -0.0011 -0.9995 0.0322
vn -0.0107 -0.9686 0.2483
vn -0.0099 -0.9708 0.2399
vn 0.0341 -0.0479 0.9983
vn -0.0346 -0.0479 0.9983
vn 0.0011 -0.9995 0.0322
vn 0.0098 -0.9707 0.2399
vn 0.0963 0.0334 -0.9948
vn 0.3122 0.0423 -0.9491
vn 0.7572 0.2122 -0.6178
vn 0.1966 0.1060 -0.9747
vn -0.0047 0.2578 -0.9662
vn -0.0160 0.6747 -0.7379
vn -0.3214 0.5353 -0.7811
vn -0.0984 0.1952 -0.9758
vn -0.7445 0.2139 -0.6325
vn -0.1897 0.1060 -0.9761
vn 0.0011 -0.9995 0.0330
vn 0.0101 -0.9687 0.2480
vn 0.9996 0.0259 -0.0118
vn 0.9996 0.0259 0.0118
vn 0.9751 0.2169 0.0455
vn 0.9751 0.2169 -0.0455
vn 0.4032 0.0122 0.9150
vn 0.9125 0.0202 0.4085
vn 0.9252 0.0103 0.3793
vn 0.4355 0.0189 0.9000
vn -0.9995 0.0113 -0.0310
vn -0.9997 0.0226 -0.0034
vn -0.0906 0.0335 -0.9953
vn -0.0297 -0.0479 -0.9984
vn 0.0325 -0.0479 -0.9983
vn -0.0906 0.0335 0.9953
vn -0.2978 0.0425 0.9537
vn -0.7445 0.2139 0.6325
vn -0.1897 0.1060 0.9761
vn -0.2978 0.0425 -0.9537
vn 0.9164 0.0743 0.3932
vn 0.4146 0.1473 0.8980
vn 0.9003 0.2380 0.3645
vn 0.4292 0.5639 0.7056
vn 0.9991 0.0130 0.0393
vn 0.9980 0.0062 -0.0622
vn 0.9972 0.0430 -0.0608
vn 0.9970 0.0464 0.0624
vn 0.9252 0.0103 -0.3793
vn 0.9164 0.0743 -0.3932
vn 0.9003 0.2380 -0.3645
vn 0.9485 0.2946 -0.1165
vn 0.9388 0.3121 0.1455
vn -0.4554 0.0186 0.8901
vn -0.4336 0.1460 0.8892
vn 0.4403 0.0120 0.8978
vn 0.9326 0.0185 0.3605
vn 0.9438 0.0091 0.3305
vn 0.4711 0.0187 0.8819
vn -0.4452 0.5588 0.6997
vn -0.3104 0.0425 -0.9497
vn -0.0953 0.0335 -0.9949
vn 0.9986 0.0185 -0.0504
vn 0.9326 0.0185 -0.3605
vn 0.9438 0.0091 -0.3305
vn 0.9988 0.0053 -0.0489
vn -0.0346 -0.0479 -0.9983
vn 0.0341 -0.0479 -0.9983
vn -0.9997 0.0239 0.0105
vn -0.9997 0.0239 -0.0105
vn -0.9565 0.2159 -0.1964
vn -0.9565 0.2159 0.1964
vn -0.9982 0.0185 0.0563
vn -0.9239 0.0188 0.3821
vn -0.9356 0.0095 0.3528
vn -0.9985 0.0056 0.0553
vn 0.9995 0.0113 0.0310
vn 0.9998 0.0212 0.0034
vn -0.9996 0.0270 0.0093
vn -0.9996 0.0270 -0.0093
vn -0.9603 0.2083 -0.1856
vn -0.9603 0.2083 0.1856
vn -0.4240 0.0119 -0.9056
vn -0.9239 0.0188 -0.3821
vn -0.9356 0.0095 -0.3528
vn -0.4554 0.0186 -0.8901
vn -0.9993 0.0116 -0.0350
vn -0.9998 0.0205 -0.0039
vn -0.4240 0.0119 0.9056
vn -0.4395 0.0121 0.8981
vn -0.4711 0.0187 0.8819
vn 0.9978 0.0200 -0.0630
vn 0.9125 0.0202 -0.4085
vn 0.9991 0.0130 -0.0393
vn 0.9997 0.0221 -0.0044
vn 0.9997 0.0221 0.0044
vn 0.4355 0.0189 -0.9000
vn 0.4032 0.0122 -0.9150
vn 0.0346 -0.5842 0.8108
vn 0.0325 -0.0479 0.9983
vn 0.0269 -0.0463 0.9986
vn 0.0346 -0.5722 0.8194
vn 0.0000 -0.9699 -0.2433
vn -0.0002 -0.0443 -0.9990
vn -0.0057 -0.0449 -0.9990
vn 0.0269 -0.0463 -0.9986
vn 0.0346 -0.5722 -0.8194
vn 0.0101 -0.9687 -0.2480
vn -0.0368 -0.5846 -0.8105
vn -0.0289 -0.0463 -0.9985
vn -0.0368 -0.5718 -0.8196
vn -0.0107 -0.9686 -0.2483
vn 0.0000 -0.5790 0.8153
vn 0.0002 -0.0443 0.9990
vn 0.0058 -0.0449 0.9990
vn -0.0289 -0.0463 0.9985
vn -0.0368 -0.5718 0.8196
vn -0.0001 -0.0443 -0.9990
vn -0.0038 -0.0449 -0.9990
vn 0.0303 -0.0463 -0.9985
vn 0.0363 -0.5719 -0.8195
vn 0.0106 -0.9686 -0.2482
vn -0.0001 -0.0443 0.9990
vn 0.0000 -0.0442 0.9990
vn -0.0316 -0.5837 -0.8113
vn -0.0261 -0.0463 -0.9986
vn -0.0317 -0.5728 -0.8191
vn -0.0086 -0.9706 -0.2405
vn -0.0092 -0.9688 -0.2477
vn 0.0001 -0.0443 0.9990
vn 0.0037 -0.0449 0.9990
vn -0.0261 -0.0463 0.9986
vn -0.0317 -0.5728 0.8191
vn 0.0362 -0.5845 -0.8106
vn 0.0362 -0.5845 0.8106
vn 0.0303 -0.0463 0.9985
vn 0.0363 -0.5719 0.8195
vn -0.0039 -0.9695 0.2452
vn -0.0115 -0.5760 0.8174
vn -0.2660 -0.5191 0.8122
vn -0.1100 -0.9541 0.2785
vn -0.0142 -0.0438 0.9989
vn -0.3219 -0.0397 0.9459
vn -0.8543 -0.0259 0.5192
vn -0.7589 -0.4290 0.4899
vn -0.4873 -0.8501 0.1995
vn 0.9481 -0.3177 0.0091
vn 0.9505 -0.3017 0.0746
vn 0.9998 -0.0145 0.0097
vn 0.9966 -0.0145 0.0808
vn 0.8543 -0.0259 0.5192
vn 0.7589 -0.4290 0.4899
vn 0.0039 -0.9695 -0.2452
vn 0.0115 -0.5760 -0.8174
vn 0.2660 -0.5191 -0.8122
vn 0.1100 -0.9541 -0.2785
vn 0.0142 -0.0438 -0.9989
vn 0.3219 -0.0397 -0.9459
vn 0.8543 -0.0259 -0.5192
vn 0.7589 -0.4290 -0.4899
vn 0.4873 -0.8501 -0.1995
vn -0.5033 -0.8641 -0.0063
vn -0.9481 -0.3177 -0.0091
vn -0.9505 -0.3017 -0.0746
vn -0.5152 -0.8557 -0.0483
vn -0.9998 -0.0145 -0.0097
vn -0.9966 -0.0145 -0.0808
vn -0.8543 -0.0259 -0.5192
vn -0.7589 -0.4290 -0.4899
vn -0.4873 -0.8501 -0.1995
vn 0.0346 -0.5842 -0.8108
vn 0.0094 -0.9707 -0.2402
vn 0.0833 0.0336 0.9960
vn -0.0297 -0.0479 0.9984
vn -0.0368 -0.5846 0.8105
vn 0.3093 0.2523 0.9169
vn 0.3219 -0.0397 0.9459
vn 0.0000 -1.0000 0.0000
vn 0.0000 -1.0000 -0.0039
vn -0.9952 0.0970 0.0108
vn -0.9954 0.0958 -0.0000
vn -0.9999 -0.0146 -0.0000
vn -0.9998 -0.0145 0.0097
vn 0.9952 0.0970 -0.0108
vn 0.9954 0.0958 0.0000
vn 0.9999 -0.0146 0.0000
vn 0.9998 -0.0145 -0.0097
vn -0.9477 -0.3190 -0.0000
vn -0.9482 -0.3177 0.0091
vn -0.0984 0.1952 0.9758
vn -0.0057 -0.0449 0.9990
vn 0.9477 -0.3191 0.0000
vn 0.9481 -0.3177 -0.0091
vn -0.5017 -0.8650 0.0000
vn -0.5033 -0.8641 0.0063
vn 0.5017 -0.8650 0.0000
vn 0.5033 -0.8641 -0.0063
vn 0.9978 0.0200 0.0630
vn 0.9980 0.0062 0.0622
vn -0.9993 0.0116 0.0350
vn -0.9998 0.0205 0.0039
vn -0.9982 0.0185 -0.0563
vn -0.9985 0.0056 -0.0553
vn 0.9998 0.0212 -0.0034
vn 0.9996 0.0257 -0.0093
vn 0.9603 0.2082 -0.1856
vn 0.9995 0.0113 -0.0310
vn 0.9986 0.0185 0.0504
vn 0.9988 0.0053 0.0489
vn 0.9996 0.0257 0.0093
vn 0.9603 0.2082 0.1856
vn 0.7830 0.0865 -0.6160
vn 0.9981 0.0364 -0.0492
vn -0.9995 0.0113 0.0310
vn -0.9997 0.0226 0.0034
vn -0.3276 0.9448 -0.0000
vn -0.0316 -0.5837 0.8113
vn -0.2003 0.1744 -0.9641
vn -0.7715 0.0900 -0.6299
vn -0.1350 0.1129 -0.9844
vn -0.7372 0.1707 -0.6537
vn -0.3632 0.4319 -0.8255
vn 0.1825 0.1751 -0.9675
vn 0.1240 0.1134 -0.9858
vn -0.3489 0.9371 -0.0000
vn 0.3436 0.4359 -0.8318
vn 0.7484 0.1606 -0.6435
vn 0.9539 0.2718 -0.1276
vn -0.9985 0.0197 -0.0509
vn -0.9988 0.0054 -0.0490
vn -0.9437 0.0092 -0.3306
vn -0.9321 0.0192 -0.3616
vn 0.0001 -1.0000 -0.0040
vn -0.0001 -1.0000 -0.0040
vn -0.0001 -1.0000 -0.0039
vn 0.9688 0.2474 -0.0142
vn 0.9676 0.2525 -0.0000
vn 0.5456 0.8380 0.0000
vn 0.5520 0.8329 -0.0398
vn 0.0225 0.9997 0.0000
vn 0.4357 0.9001 0.0000
vn 0.0001 -1.0000 -0.0039
vn 0.0019 -1.0000 -0.0000
vn 0.0290 0.9996 0.0000
vn 0.0289 0.9985 -0.0466
vn 0.0000 1.0000 0.0000
vn -0.0154 0.9999 0.0000
vn -0.0154 0.9988 -0.0466
vn 0.0000 0.9989 -0.0465
vn 0.9358 0.3519 -0.0196
vn 0.9333 0.3590 0.0000
vn 0.4375 0.8992 0.0000
vn 0.4421 0.8960 -0.0426
vn 0.0154 0.9999 0.0000
vn 0.0154 0.9988 -0.0466
vn -0.8998 0.4362 0.0000
vn -0.4357 0.9001 0.0000
vn -0.4302 0.9018 -0.0404
vn -0.8998 0.4363 -0.0000
vn 0.0505 -0.9987 0.0000
vn 0.0503 -0.9987 -0.0038
vn -0.0225 0.9997 0.0000
vn -0.0223 0.9987 -0.0462
vn 0.8969 0.4418 -0.0213
vn 0.8998 0.4363 0.0000
vn 0.0019 -1.0000 -0.0039
vn -0.9474 0.2898 0.1359
vn -0.7372 0.1707 0.6537
vn -0.3632 0.4319 0.8255
vn -0.4679 0.8362 0.2861
vn -0.0290 0.9996 0.0000
vn -0.5456 0.8380 0.0000
vn -0.4784 0.8306 -0.2850
vn -0.9539 0.2718 -0.1276
vn -0.9618 0.2549 0.1000
vn -0.5040 0.8235 0.2604
vn -0.9236 0.2073 0.3226
vn -0.4575 0.5547 0.6950
vn 0.3489 0.9371 0.0000
vn 0.3033 0.9529 0.0000
vn -0.4679 0.8362 -0.2861
vn -0.9474 0.2898 -0.1359
vn -0.9561 0.2726 0.1076
vn -0.4927 0.8298 0.2621
vn -0.9135 0.2210 0.3415
vn -0.9539 0.2718 0.1276
vn -0.7484 0.1606 0.6435
vn -0.3788 0.4285 0.8203
vn -0.4784 0.8306 0.2850
vn 0.4780 0.8377 0.2641
vn -0.7715 0.0901 0.6299
vn -0.9976 0.0413 0.0556
vn 0.5040 0.8235 0.2604
vn 0.4575 0.5547 0.6950
vn 0.3788 0.4285 0.8203
vn 0.4784 0.8306 0.2850
vn 0.2163 0.1737 0.9608
vn 0.7830 0.0865 0.6160
vn 0.1447 0.1123 0.9831
vn 0.7484 0.1606 0.6435
vn -0.9978 0.0382 0.0541
vn -0.9976 0.0413 -0.0556
vn -0.9275 0.0690 0.3673
vn -0.2163 0.1737 0.9608
vn -0.1447 0.1123 0.9831
vn -0.2163 0.1737 -0.9608
vn -0.7830 0.0865 -0.6160
vn -0.1447 0.1123 -0.9831
vn -0.7484 0.1606 -0.6435
vn -0.3788 0.4285 -0.8203
vn 0.4542 0.8433 0.2874
vn 0.3436 0.4359 0.8318
vn -0.9275 0.0690 -0.3673
vn -0.4336 0.1460 -0.8892
vn -0.9135 0.2210 -0.3415
vn -0.4452 0.5588 -0.6997
vn 0.9983 0.0338 -0.0478
vn 0.9981 0.0364 0.0492
vn 0.9361 0.0643 -0.3458
vn 0.9236 0.2073 -0.3226
vn 0.9618 0.2549 -0.1000
vn 0.9539 0.2718 0.1276
vn 0.1447 0.1123 -0.9831
vn 0.2163 0.1737 -0.9608
vn 0.9361 0.0643 0.3458
vn 0.4485 0.1448 0.8820
vn 0.9236 0.2073 0.3226
vn 0.3788 0.4285 -0.8203
vn -0.9983 0.0338 0.0478
vn -0.9981 0.0364 -0.0492
vn -0.9361 0.0643 0.3458
vn 0.9893 0.0454 -0.1384
vn 0.9970 0.0464 -0.0624
vn 0.7242 0.1831 -0.6648
vn 0.9388 0.3121 -0.1455
vn -0.7830 0.0865 0.6160
vn -0.9981 0.0364 0.0492
vn -0.0289 0.9985 -0.0466
vn -0.5519 0.8330 -0.0400
vn -0.4485 0.1448 0.8820
vn -0.4711 0.0187 -0.8819
vn -0.9361 0.0643 -0.3458
vn -0.4485 0.1448 -0.8820
vn -0.9236 0.2073 -0.3226
vn -0.4575 0.5547 -0.6950
vn 0.1825 0.1751 0.9675
vn 0.3179 0.1593 0.9346
vn 0.2599 0.1129 0.9590
vn 0.1240 0.1134 0.9858
vn 0.7242 0.1831 0.6648
vn -0.0019 -1.0000 0.0000
vn -0.0019 -1.0000 -0.0039
vn -0.9676 0.2525 0.0000
vn -0.9688 0.2476 -0.0147
vn -0.0047 0.2578 0.9662
vn -0.0002 -0.0443 0.9990
vn -0.0151 0.2663 -0.9638
vn -0.0142 -0.0438 -0.9989
vn -0.0115 -0.5760 -0.8174
vn 0.1000 0.1951 -0.9757
vn 0.0058 -0.0449 -0.9990
vn -0.0019 -0.9995 0.0325
vn -0.0019 -1.0000 0.0039
vn -0.0039 -0.9695 -0.2452
vn -0.0173 0.6840 -0.7293
vn -0.9688 0.2476 0.0147
vn -0.5519 0.8330 0.0400
vn -0.5564 0.7709 0.3099
vn -0.9686 0.2222 0.1114
vn -0.0289 0.9985 0.0466
vn -0.0266 0.9401 0.3399
vn -0.0160 0.6747 0.7379
vn -0.3214 0.5353 0.7811
vn 0.0223 0.9987 -0.0462
vn 0.0047 0.2578 -0.9662
vn 0.0002 -0.0443 -0.9990
vn 0.0151 0.2663 0.9638
vn 0.0142 -0.0438 0.9989
vn 0.0115 -0.5760 0.8174
vn 0.0210 0.9417 0.3359
vn 0.0223 0.9987 0.0462
vn 0.0173 0.6840 0.7293
vn 0.3247 0.5350 -0.7799
vn 0.0160 0.6747 -0.7379
vn -0.4375 0.8992 0.0000
vn -0.4423 0.8959 -0.0423
vn 0.0672 0.1985 -0.9778
vn 0.0037 -0.0449 -0.9990
vn -0.0688 0.1986 0.9777
vn -0.0038 -0.0449 0.9990
vn 0.2402 0.5621 -0.7914
vn 0.0000 0.9989 0.0465
vn -0.9333 0.3590 0.0000
vn -0.9359 0.3517 -0.0187
vn -0.9909 0.1034 0.0863
vn -0.9966 -0.0145 0.0808
vn -0.2438 0.5620 0.7904
vn -0.9359 0.3517 0.0187
vn -0.4423 0.8959 0.0423
vn -0.4414 0.8350 0.3285
vn -0.9414 0.3088 0.1354
vn -0.0154 0.9988 0.0466
vn 0.9694 0.2211 -0.1066
vn 0.4403 0.0120 -0.8978
vn 0.4711 0.0187 -0.8819
vn 0.4485 0.1448 -0.8820
vn 0.4575 0.5547 -0.6950
vn -0.4395 0.0121 -0.8981
vn 0.9393 0.3108 -0.1452
vn -0.1350 0.1129 0.9844
vn 0.2793 0.0429 0.9592
vn 0.0266 0.9401 -0.3398
vn 0.0210 0.9417 -0.3359
vn 0.9972 0.0430 0.0608
vn 0.9485 0.2946 0.1165
vn 0.4542 0.8433 -0.2874
vn -0.2003 0.1744 0.9641
vn 0.9983 0.0338 0.0478
vn 0.9618 0.2549 0.1000
vn -0.9505 -0.3017 0.0746
vn -0.5152 -0.8557 0.0483
vn 0.9909 0.1034 -0.0863
vn 0.9966 -0.0145 -0.0808
vn 0.0000 -0.9995 -0.0325
vn -0.9686 0.2222 -0.1114
vn -0.9414 0.3088 -0.1354
vn 0.0141 0.9406 -0.3393
vn 0.0000 0.9414 -0.3373
vn -0.4414 0.8350 -0.3285
vn -0.0141 0.9406 -0.3393
vn -0.0010 -0.9995 -0.0330
vn -0.0019 -0.9995 -0.0325
vn -0.0011 -0.9995 -0.0331
vn 0.0019 -0.9995 -0.0325
vn -0.5564 0.7709 -0.3099
vn -0.0266 0.9401 -0.3399
vn -0.9983 0.0338 -0.0478
vn -0.9618 0.2549 -0.1000
vn -0.9978 0.0382 -0.0541
vn -0.9561 0.2726 -0.1076
vn 0.0001 -1.0000 0.0039
vn -0.5040 0.8235 -0.2604
vn 0.4784 0.8306 -0.2850
vn -0.4927 0.8298 -0.2621
vn 0.8684 0.4657 -0.1702
vn 0.0473 -0.9984 -0.0309
vn 0.5152 -0.8557 -0.0483
vn -0.3306 0.6597 -0.6749
vn -0.3916 0.8722 -0.2931
vn -0.0210 0.9417 -0.3359
vn 0.4388 0.8354 -0.3310
vn -0.0009 -0.9995 -0.0323
vn 0.0011 -0.9995 -0.0331
vn 0.5581 0.7704 -0.3081
vn 0.5040 0.8235 -0.2604
vn 0.0011 -0.9995 -0.0330
vn 0.9505 -0.3017 -0.0746
vn 0.9893 0.0454 0.1384
vn 0.0010 -0.9995 -0.0323
vn 0.4780 0.8377 -0.2641
vn 0.4146 0.1473 -0.8980
vn 0.4292 0.5639 -0.7056
vn 0.3179 0.1593 -0.9346
vn 0.2599 0.1129 -0.9590
vn 0.3916 0.8722 -0.2931
vn 0.4302 0.9018 -0.0404
vn 0.4302 0.9018 0.0404
vn 0.3306 0.6597 0.6749
vn 0.3916 0.8722 0.2931
vn 0.2660 -0.5191 0.8122
vn -0.0505 -0.9987 0.0000
vn -0.3093 0.2523 -0.9169
vn -0.3219 -0.0397 -0.9459
vn -0.1100 -0.9541 -0.2785
vn -0.0473 -0.9984 -0.0309
vn -0.0503 -0.9987 -0.0038
vn -0.0503 -0.9987 0.0038
vn -0.0473 -0.9984 0.0309
vn -0.2660 -0.5191 -0.8122
usemtl (null)
s 1
f 520/1/1 179/2/2 241/3/3 591/4/4
f 591/4/4 241/3/3 4/5/5 313/6/6
f 575/7/7 211/8/8 244/9/9 592/10/10
f 592/10/10 244/9/9 8/11/11 314/12/12
f 465/13/13 148/14/14 247/15/15 593/16/16
f 593/16/16 247/15/15 6/17/17 315/18/18
f 590/19/19 226/20/20 250/21/21 594/22/22
f 594/22/22 250/21/21 2/23/23 240/24/24
f 222/25/25 566/26/26 595/27/27 574/28/28
f 566/26/26 165/29/29 438/30/30 595/27/27
f 595/27/27 438/30/30 5/31/31 249/32/32
f 574/28/28 595/27/27 249/32/32 212/33/33
f 236/34/34 581/35/35 596/36/36 589/37/37
f 581/38/35 164/39/38 437/40/39 596/41/36
f 596/41/36 437/40/39 2/42/23 250/43/21
f 589/37/37 596/36/36 250/44/21 226/45/20
f 651/46/40 426/47/41 32/48/42 289/49/43
f 425/50/44 260/51/45 19/52/46 140/53/47
f 153/54/48 263/55/49 413/56/49 175/57/48
f 176/58/50 464/59/51 597/60/52 414/61/53
f 464/62/51 151/63/54 261/64/55 597/65/52
f 597/65/52 261/64/55 20/66/56 258/67/57
f 414/61/53 597/60/52 258/68/57 130/69/58
f 251/70/59 541/71/60 680/72/61 697/73/62
f 539/74/63 152/75/64 262/76/65 598/77/66
f 598/77/66 262/76/65 15/78/67 255/79/68
f 413/56/49 263/55/49 16/80/69 129/81/69
f 140/82/47 19/83/46 317/84/70 423/85/71
f 177/86/48 462/87/48 599/88/49 424/89/49
f 462/87/48 154/90/72 264/91/73 599/88/49
f 599/88/49 264/91/73 17/92/74 256/93/69
f 424/89/49 599/88/49 256/93/69 139/94/69
f 600/95/75 257/96/76 18/97/77 316/98/78
f 128/99/79 13/100/80 320/101/81 411/102/82
f 412/103/83 130/104/58 258/105/57 601/106/84
f 601/106/84 258/105/57 20/107/56 318/108/85
f 689/109/86 598/77/66 255/79/68 522/110/87
f 602/111/88 253/112/89 12/113/90 319/114/91
f 131/115/92 45/116/93 269/117/94 410/118/94
f 422/119/95 138/120/96 254/121/97 603/122/98
f 603/122/98 254/121/97 14/123/99 321/124/100
f 401/125/101 120/126/102 274/127/103 604/128/104
f 604/128/104 274/127/103 24/129/105 322/130/106
f 173/131/107 461/132/108 605/133/109 400/134/110
f 461/135/108 155/136/111 276/137/112 605/138/109
f 605/138/109 276/137/112 24/139/105 274/140/103
f 400/134/110 605/133/109 274/141/103 120/142/102
f 542/143/113 257/96/76 600/95/75 710/144/114
f 558/145/63 156/146/64 277/147/115 606/148/116
f 606/148/116 277/147/115 22/149/117 272/150/118
f 710/144/114 600/95/75 308/151/119 548/152/120
f 709/153/121 606/148/116 272/150/118 544/154/122
f 607/155/123 271/156/124 21/157/125 323/158/126
f 390/159/127 109/160/128 281/161/129 608/162/130
f 608/162/130 281/161/129 27/163/131 324/164/132
f 171/165/48 459/166/48 609/167/49 389/168/49
f 459/166/48 157/169/72 284/170/133 609/167/49
f 609/167/49 284/170/133 28/171/134 282/172/69
f 389/168/49 609/167/49 282/172/69 110/173/69
f 433/174/135 434/175/136 81/176/137 82/177/138
f 656/178/139 432/179/140 34/180/141 534/181/142
f 289/49/43 159/182/143 442/183/144 651/46/40
f 688/184/145 602/111/88 306/185/146 524/186/147
f 610/187/148 280/188/149 26/189/150 325/190/151
f 521/191/152 253/112/89 602/111/88 688/184/145
f 534/181/142 34/180/141 372/192/153 611/193/154
f 611/193/154 372/192/153 97/194/155 538/195/156
f 195/196/157 479/197/158 612/198/159 519/199/160
f 479/197/158 30/200/161 370/201/162 612/198/159
f 612/198/159 370/201/162 92/202/163 484/203/164
f 519/199/160 612/198/159 484/203/164 200/204/165
f 293/205/166 534/206/142 611/207/154 687/208/167
f 650/209/168 427/210/169 31/211/170 545/212/171
f 687/208/167 611/207/154 538/213/156 360/214/172
f 543/215/173 271/156/124 607/155/123 708/216/174
f 649/217/175 296/218/176 35/219/177 480/220/178
f 708/216/174 607/155/123 303/221/179 547/222/180
f 435/223/181 436/224/182 86/225/183 85/226/184
f 655/227/185 297/228/186 36/229/187 294/230/188
f 480/220/178 196/231/189 497/232/190 649/217/175
f 430/233/191 431/234/192 80/235/193 79/236/194
f 654/237/195 298/238/196 29/239/197 523/240/198
f 294/230/188 162/241/199 440/242/200 655/227/185
f 684/243/201 293/244/166 36/229/187 297/228/186
f 700/245/202 288/246/203 32/48/42 426/47/41
f 653/247/204 299/248/205 30/200/161 479/197/158
f 82/177/138 160/249/206 441/250/207 433/174/135
f 479/197/158 195/196/157 495/251/208 653/247/204
f 287/252/209 30/200/161 299/248/205 695/253/210
f 654/254/195 523/255/198 287/256/209 695/257/210
f 613/258/211 301/259/212 50/260/213 286/261/214
f 522/110/87 613/262/211 286/263/214 28/171/134
f 107/264/215 388/265/94 614/266/94 382/267/215
f 388/268/94 111/269/216 302/270/217 614/271/94
f 614/271/94 302/270/217 49/272/218 283/273/219
f 382/267/215 614/266/94 283/274/219 25/275/220
f 650/276/168 545/277/171 288/278/203 700/279/202
f 615/280/221 303/221/179 48/281/222 278/282/223
f 541/71/60 615/283/221 278/284/223 23/285/224
f 118/286/69 399/287/225 616/288/225 394/289/69
f 399/290/225 121/291/226 304/292/227 616/293/225
f 616/293/225 304/292/227 47/294/228 275/295/229
f 394/289/69 616/288/225 275/296/229 22/149/117
f 137/297/215 421/298/94 617/299/94 415/300/215
f 421/301/94 141/302/230 305/303/231 617/304/94
f 617/304/94 305/303/231 46/305/232 270/306/233
f 415/300/215 617/299/94 270/307/233 9/308/234
f 142/309/235 42/310/236 266/311/225 420/312/225
f 410/313/94 269/314/94 10/315/215 127/316/215
f 656/317/139 534/206/142 293/205/166 684/318/201
f 618/319/237 306/185/146 44/320/238 268/321/239
f 532/322/240 618/323/237 268/324/239 11/325/241
f 129/81/69 409/326/225 619/327/225 405/328/69
f 409/329/225 132/330/242 307/331/243 619/332/225
f 619/332/225 307/331/243 43/333/244 267/334/245
f 405/328/69 619/327/225 267/335/245 15/78/67
f 420/336/225 266/337/225 16/80/69 139/94/69
f 707/338/246 615/283/221 541/71/60 251/70/59
f 547/222/180 303/221/179 615/280/221 707/339/246
f 620/340/247 308/151/119 41/341/248 265/342/249
f 544/154/122 620/343/247 265/344/249 17/92/74
f 231/345/250 588/346/251 621/347/252 577/348/253
f 588/349/251 227/350/254 309/351/255 621/352/252
f 621/352/252 309/351/255 37/353/256 300/354/257
f 577/348/253 621/347/252 300/355/257 1/356/258
f 165/357/29 458/358/259 622/359/260 438/360/30
f 458/358/259 163/361/261 310/362/262 622/359/260
f 622/359/260 310/362/262 40/363/263 248/364/264
f 438/360/30 622/359/260 248/364/264 5/365/31
f 216/366/265 573/367/266 623/368/267 561/369/268
f 573/370/266 213/371/269 311/372/270 623/373/267
f 623/373/267 311/372/270 39/374/271 245/375/272
f 561/369/268 623/368/267 245/376/272 7/377/273
f 182/378/274 518/379/275 624/380/276 466/381/277
f 518/379/275 181/382/278 312/383/279 624/380/276
f 624/380/276 312/383/279 38/384/280 242/385/281
f 466/381/277 624/380/276 242/385/281 3/386/282
f 686/387/283 618/323/237 532/322/240 279/388/284
f 43/333/244 318/108/85 690/389/285 535/390/286
f 111/269/216 390/159/127 608/162/130 302/270/217
f 608/162/130 324/164/132 49/272/218 302/270/217
f 607/155/123 323/158/126 48/281/222 303/221/179
f 706/391/287 620/343/247 544/154/122 272/150/118
f 40/392/263 315/393/18 712/394/288 563/395/289
f 121/291/226 401/125/101 604/128/104 304/292/227
f 604/128/104 322/130/106 47/294/228 304/292/227
f 141/302/230 422/119/95 603/122/98 305/303/231
f 603/122/98 321/124/100 46/305/232 305/303/231
f 131/115/92 411/102/82 320/101/81 45/116/93
f 602/111/88 319/114/91 44/320/238 306/185/146
f 47/294/228 322/130/106 710/144/114 548/152/120
f 132/330/242 412/103/83 601/106/84 307/331/243
f 601/106/84 318/108/85 43/333/244 307/331/243
f 142/309/235 423/85/71 317/84/70 42/310/236
f 67/396/290 133/397/290 208/398/291 188/399/291
f 600/95/75 316/98/78 41/341/248 308/151/119
f 46/305/232 321/124/100 708/216/174 547/222/180
f 227/350/254 590/19/19 594/22/22 309/351/255
f 594/22/22 240/24/24 37/353/256 309/351/255
f 163/361/261 465/13/13 593/16/16 310/362/262
f 593/16/16 315/18/18 40/363/263 310/362/262
f 213/371/269 575/7/7 592/10/10 311/372/270
f 592/10/10 314/12/12 39/374/271 311/372/270
f 181/382/278 520/1/1 591/4/4 312/383/279
f 591/4/4 313/6/6 38/384/280 312/383/279
f 455/400/292 352/401/293 89/402/294 166/403/295
f 89/402/294 352/401/293 353/404/293 90/405/294
f 510/406/296 350/407/297 87/408/298 198/409/299
f 166/403/295 89/402/294 326/410/300 457/411/301
f 350/407/297 351/412/297 88/413/298 87/408/298
f 89/402/294 90/405/294 327/414/300 326/410/300
f 50/260/213 325/190/151 639/415/302 384/416/303
f 198/409/299 87/408/298 328/417/304 517/418/305
f 457/411/301 326/410/300 52/419/306 147/420/307
f 87/408/298 88/413/298 329/421/304 328/417/304
f 326/410/300 327/414/300 51/422/306 52/419/306
f 517/418/305 328/417/304 56/423/308 180/424/309
f 657/425/310 290/426/311 34/180/141 432/179/140
f 328/417/304 329/421/304 55/427/308 56/423/308
f 85/226/184 197/428/312 496/429/313 435/223/181
f 663/430/314 481/431/315 29/239/197 298/238/196
f 443/432/316 428/433/317 84/434/318 161/435/319
f 658/436/320 292/437/321 31/211/170 427/210/169
f 428/433/317 429/438/322 83/439/323 84/434/318
f 84/434/318 366/440/324 456/441/325 161/435/319
f 79/236/194 194/442/326 498/443/327 430/233/191
f 85/444/184 86/445/183 526/446/328 525/447/328
f 691/448/329 535/390/286 301/259/212 613/258/211
f 526/449/330 86/450/183 368/451/331 625/452/332
f 625/452/332 368/451/331 102/453/333 529/454/334
f 331/455/335 526/449/330 625/452/332 692/456/336
f 79/457/194 80/458/193 550/459/337 549/460/337
f 692/456/336 625/452/332 529/454/334 363/461/338
f 456/441/325 366/440/324 100/462/339 169/463/340
f 548/152/120 308/151/119 620/340/247 706/464/287
f 664/465/341 478/466/342 33/467/343 295/468/344
f 192/469/345 75/470/290 385/471/290 516/472/291
f 443/432/316 161/435/319 292/437/321 658/436/320
f 75/470/290 76/473/290 386/474/290 385/471/290
f 191/475/346 73/476/290 551/477/290 560/478/347
f 516/472/291 385/471/290 113/479/290 204/480/291
f 73/476/290 74/481/290 552/482/290 551/477/290
f 385/471/290 386/474/290 114/483/290 113/479/290
f 190/484/348 71/485/349 396/486/350 514/487/351
f 214/488/352 215/489/352 339/490/353 338/491/353
f 551/477/290 336/492/290 515/493/354 560/478/347
f 71/485/349 72/494/349 397/495/350 396/486/350
f 220/496/355 126/497/290 125/498/290 219/499/355
f 189/500/345 69/501/290 418/502/290 513/503/291
f 514/504/351 396/505/350 123/506/356 206/507/357
f 69/501/290 70/508/290 419/509/290 418/502/290
f 396/505/350 397/510/350 124/511/356 123/506/356
f 68/512/290 134/513/290 133/397/290 67/396/290
f 513/503/291 418/502/290 143/514/290 210/515/291
f 61/516/358 145/517/359 209/518/360 185/519/361
f 418/502/290 419/509/290 144/520/290 143/514/290
f 187/521/346 65/522/290 536/523/290 540/524/347
f 65/522/290 66/525/290 537/526/290 536/523/290
f 524/186/147 306/185/146 618/319/237 686/527/283
f 186/528/362 63/529/363 407/530/364 511/531/365
f 512/532/354 540/524/347 536/523/290 342/533/290
f 63/529/363 64/534/363 408/535/364 407/530/364
f 62/536/358 146/537/359 145/517/359 61/516/358
f 511/538/365 407/539/364 135/540/366 207/541/367
f 136/542/366 62/536/358 61/516/358 135/540/366
f 407/539/364 408/543/364 136/542/366 135/540/366
f 54/544/368 579/545/369 582/546/370 179/2/2
f 53/547/371 580/548/369 579/545/369 54/544/368
f 56/549/308 564/550/372 567/551/373 180/552/309
f 582/553/370 579/554/369 233/555/374 238/556/375
f 55/557/308 565/558/372 564/550/372 56/549/308
f 579/554/369 580/559/369 234/560/374 233/555/374
f 183/561/376 57/562/377 350/407/297 510/406/296
f 567/551/373 564/550/372 219/499/355 224/563/378
f 57/562/377 58/564/377 351/412/297 350/407/297
f 564/550/372 565/558/372 220/496/355 219/499/355
f 164/39/38 53/547/371 352/401/293 455/400/292
f 53/547/371 54/544/368 353/404/293 352/401/293
f 202/565/379 106/566/380 528/567/381 531/568/382
f 115/569/383 116/570/383 347/571/384 346/572/384
f 551/477/290 552/482/290 337/573/290 336/492/290
f 557/574/385 167/575/386 356/576/387 626/577/388
f 626/577/388 356/576/387 94/578/389 355/579/390
f 332/580/391 333/581/391 84/582/318 83/583/323
f 525/447/328 526/446/328 331/584/392 330/585/392
f 530/586/393 170/587/394 361/588/395 627/589/396
f 627/589/396 361/588/395 101/590/397 360/591/172
f 336/492/290 337/573/290 70/508/290 69/501/290
f 512/532/354 342/533/290 75/470/290 192/469/345
f 199/592/398 103/593/399 555/594/400 559/595/401
f 693/596/402 627/597/396 360/598/172 538/599/156
f 197/428/312 85/226/184 380/600/403 506/601/404
f 705/602/405 626/603/388 355/604/390 553/605/406
f 555/606/400 364/607/407 508/608/408 559/609/401
f 332/610/409 83/611/323 374/612/410 628/613/411
f 628/613/411 374/612/410 105/614/412 364/607/407
f 515/493/354 336/492/290 69/501/290 189/500/345
f 162/241/199 294/230/188 629/615/413 452/616/414
f 294/230/188 36/229/187 373/617/415 629/615/413
f 629/615/413 373/617/415 101/590/397 361/588/395
f 452/616/414 629/615/413 361/588/395 170/587/394
f 549/618/416 332/610/409 628/613/411 704/619/417
f 550/620/418 80/621/193 376/622/419 630/623/420
f 630/623/420 376/622/419 95/624/421 556/625/422
f 704/619/417 628/613/411 364/607/407 555/606/400
f 509/626/423 531/627/382 528/628/381 362/629/424
f 523/240/198 29/239/197 377/630/425 631/631/426
f 631/631/426 377/630/425 91/632/427 527/633/428
f 196/231/189 480/220/178 632/634/429 507/635/430
f 480/220/178 35/219/177 378/636/431 632/634/429
f 632/634/429 378/636/431 99/637/432 485/638/433
f 507/635/430 632/634/429 485/638/433 201/639/434
f 550/620/418 630/623/420 703/640/435 333/641/436
f 545/212/171 31/211/170 367/642/437 633/643/438
f 633/643/438 367/642/437 93/644/439 553/645/406
f 703/640/435 630/623/420 556/625/422 365/646/440
f 159/182/143 289/49/43 634/647/441 451/648/442
f 289/49/43 32/48/42 379/649/443 634/647/441
f 634/647/441 379/649/443 94/578/389 356/576/387
f 451/648/442 634/647/441 356/576/387 167/575/386
f 506/601/404 380/600/403 106/566/380 202/565/379
f 82/177/138 369/650/444 450/651/445 160/249/206
f 450/651/445 369/650/444 96/652/446 168/653/447
f 194/442/326 79/236/194 375/654/448 505/655/449
f 505/655/449 375/654/448 103/593/399 199/592/398
f 203/656/450 115/569/383 346/572/384 504/657/451
f 545/277/171 633/658/438 702/659/452 288/278/203
f 546/660/453 33/467/343 381/661/454 635/662/455
f 635/662/455 381/661/454 98/663/456 554/664/457
f 702/659/452 633/658/438 553/665/406 355/666/390
f 342/533/290 536/523/290 537/526/290 343/667/290
f 330/668/458 81/669/459 371/670/460 636/671/461
f 636/671/461 371/670/460 104/672/462 362/629/424
f 113/479/290 228/673/463 237/674/464 204/480/291
f 346/675/384 347/676/384 78/677/465 77/678/465
f 504/679/451 346/675/384 77/678/465 193/680/466
f 125/498/290 126/497/290 349/681/290 348/682/290
f 205/683/291 125/498/290 348/682/290 502/684/291
f 384/416/303 639/415/302 392/685/467 112/686/468
f 585/687/469 390/159/127 111/269/216 232/688/470
f 232/688/470 111/269/216 388/268/94 587/689/471
f 48/281/222 323/158/126 642/690/472 395/691/473
f 28/171/134 286/263/214 637/692/225 282/172/69
f 286/261/214 50/260/213 384/416/303 637/693/225
f 637/693/225 384/416/303 112/686/468 387/694/225
f 282/172/69 637/692/225 387/695/225 110/173/69
f 171/165/48 389/168/49 586/696/474 235/697/475
f 587/698/471 388/265/94 107/264/215 225/699/476
f 586/696/474 389/168/49 110/173/69 231/345/250
f 230/700/477 109/160/128 390/159/127 585/687/469
f 124/511/356 215/489/352 214/488/352 123/506/356
f 158/701/478 448/702/479 638/703/480 285/704/481
f 448/705/479 172/706/482 391/707/483 638/708/480
f 638/708/480 391/707/483 108/709/484 383/710/485
f 285/704/481 638/703/480 383/711/485 26/712/150
f 325/190/151 26/189/150 383/713/485 639/415/302
f 639/415/302 383/713/485 108/714/484 392/685/467
f 123/506/356 214/488/352 223/715/486 206/507/357
f 348/682/290 349/681/290 74/481/290 73/476/290
f 502/684/291 348/682/290 73/476/290 191/475/346
f 135/540/366 61/516/358 185/519/361 207/541/367
f 395/691/473 642/690/472 403/716/487 122/717/488
f 570/718/489 401/125/101 121/291/226 218/719/490
f 218/719/490 121/291/226 399/290/225 572/720/491
f 317/84/70 412/103/83 132/330/242 42/310/236
f 23/285/224 278/284/223 640/721/94 273/722/215
f 278/282/223 48/281/222 395/691/473 640/723/94
f 640/723/94 395/691/473 122/717/488 398/724/94
f 273/722/215 640/721/94 398/725/94 119/726/215
f 173/131/107 400/134/110 571/727/492 221/728/493
f 572/729/491 399/287/225 118/286/69 212/33/33
f 571/727/492 400/134/110 120/142/102 217/730/494
f 217/731/494 120/126/102 401/125/101 570/718/489
f 173/131/107 221/728/493 215/489/352 124/511/356
f 156/146/64 446/732/48 641/733/49 277/147/115
f 446/732/48 174/734/48 402/735/49 641/733/49
f 641/733/49 402/735/49 118/286/69 394/289/69
f 277/147/115 641/733/49 394/289/69 22/149/117
f 323/158/126 21/157/125 393/736/495 642/690/472
f 642/690/472 393/736/495 117/737/496 403/716/487
f 133/397/290 134/513/290 341/738/290 340/739/290
f 208/398/291 133/397/290 340/739/290 500/740/291
f 145/517/359 146/537/359 345/741/497 344/742/497
f 340/739/290 341/738/290 66/525/290 65/522/290
f 209/518/360 145/517/359 344/742/497 499/743/498
f 500/740/291 340/739/290 65/522/290 187/521/346
f 42/310/236 132/330/242 409/329/225 266/311/225
f 44/320/238 319/114/91 644/744/499 406/745/500
f 406/745/500 644/744/499 411/102/82 131/115/92
f 41/341/248 316/98/78 647/746/501 417/747/502
f 19/83/46 130/104/58 412/103/83 317/84/70
f 266/337/225 409/326/225 129/81/69 16/80/69
f 11/325/241 268/324/239 643/748/94 252/749/215
f 268/321/239 44/320/238 406/745/500 643/750/94
f 643/750/94 406/745/500 131/115/92 410/118/94
f 252/749/215 643/748/94 410/313/94 127/316/215
f 319/114/91 12/113/90 404/751/503 644/744/499
f 644/744/499 404/751/503 128/99/79 411/102/82
f 176/58/50 414/61/53 260/51/45 150/752/504
f 152/75/64 445/753/48 645/754/49 262/76/65
f 445/753/48 175/57/48 413/56/49 645/754/49
f 645/754/49 413/56/49 129/81/69 405/328/69
f 262/76/65 645/754/49 405/328/69 15/78/67
f 260/51/45 414/61/53 130/69/58 19/52/46
f 144/520/290 68/512/290 67/396/290 143/514/290
f 143/514/290 67/396/290 188/399/291 210/515/291
f 344/755/497 345/756/497 60/757/505 59/758/505
f 499/759/498 344/755/497 59/758/505 184/760/506
f 59/758/505 60/757/505 431/234/192 430/233/191
f 184/760/506 59/758/505 430/233/191 498/443/327
f 417/747/502 647/746/501 423/85/71 142/309/235
f 320/101/81 422/119/95 141/302/230 45/116/93
f 45/116/93 141/302/230 421/301/94 269/117/94
f 37/761/256 240/762/24 660/763/507 439/764/508
f 17/92/74 265/344/249 646/765/225 256/93/69
f 265/342/249 41/341/248 417/747/502 646/766/225
f 646/766/225 417/747/502 142/309/235 420/312/225
f 256/93/69 646/765/225 420/336/225 139/94/69
f 13/100/80 138/120/96 422/119/95 320/101/81
f 269/314/94 421/298/94 137/297/215 10/315/215
f 177/86/48 424/89/49 263/55/49 153/54/48
f 316/98/78 18/97/77 416/767/509 647/746/501
f 647/746/501 416/767/509 140/82/47 423/85/71
f 263/55/49 424/89/49 139/94/69 16/80/69
f 177/86/48 153/54/48 68/512/290 144/520/290
f 149/768/510 444/769/511 648/770/512 259/771/513
f 444/772/511 178/773/514 425/50/44 648/774/512
f 648/774/512 425/50/44 140/53/47 416/775/509
f 259/771/513 648/770/512 416/776/509 18/777/77
f 71/485/349 429/438/322 428/433/317 72/494/349
f 72/494/349 428/433/317 443/432/316 155/136/111
f 77/678/465 78/677/465 436/224/182 435/223/181
f 193/680/466 77/678/465 435/223/181 496/429/313
f 190/484/348 474/778/515 649/217/175 497/232/190
f 474/778/515 21/779/125 296/218/176 649/217/175
f 699/780/516 291/781/517 35/219/177 296/218/176
f 542/782/113 24/139/105 427/210/169 650/209/168
f 701/783/518 635/784/455 554/785/457 358/786/519
f 149/768/510 259/771/513 651/46/40 442/183/144
f 259/771/513 18/777/77 426/47/41 651/46/40
f 543/787/173 14/788/99 295/468/344 652/789/520
f 546/790/453 635/784/455 701/783/518 291/791/517
f 63/529/363 434/175/136 433/174/135 64/534/363
f 64/534/363 433/174/135 441/250/207 151/63/54
f 342/533/290 343/667/290 76/473/290 75/470/290
f 78/677/465 158/701/478 440/242/200 436/224/182
f 186/528/362 470/792/521 653/247/204 495/251/208
f 470/792/521 12/793/90 299/248/205 653/247/204
f 521/794/152 27/795/131 298/238/196 654/237/195
f 685/796/522 636/671/461 362/629/424 528/628/381
f 158/701/478 285/704/481 655/227/185 440/242/200
f 285/704/481 26/712/150 297/228/186 655/227/185
f 533/797/523 20/107/56 432/798/140 656/317/139
f 690/389/285 533/797/523 280/188/149 610/187/148
f 60/757/505 149/768/510 442/183/144 431/234/192
f 20/66/56 261/64/55 657/425/310 432/179/140
f 261/64/55 151/63/54 441/250/207 657/425/310
f 440/242/200 162/241/199 86/225/183 436/224/182
f 497/232/190 196/231/189 83/439/323 429/438/322
f 146/537/359 178/773/514 444/772/511 345/741/497
f 24/139/105 276/137/112 658/436/320 427/210/169
f 276/137/112 155/136/111 443/432/316 658/436/320
f 441/250/207 160/249/206 290/426/311 657/425/310
f 176/58/50 150/752/504 62/536/358 136/542/366
f 345/756/497 444/769/511 149/768/510 60/757/505
f 153/54/48 175/57/48 134/513/290 68/512/290
f 134/513/290 175/57/48 445/753/48 341/738/290
f 126/497/290 174/734/48 446/732/48 349/681/290
f 341/738/290 445/753/48 152/75/64 66/525/290
f 171/165/48 235/697/475 229/799/463 114/483/290
f 349/681/290 446/732/48 156/146/64 74/481/290
f 116/570/383 172/706/482 448/705/479 347/571/384
f 117/800/496 490/801/524 569/802/525 211/803/8
f 347/676/384 448/702/479 158/701/478 78/677/465
f 80/235/193 159/182/143 451/648/442 376/804/419
f 34/180/141 290/426/311 659/805/526 372/192/153
f 290/426/311 160/249/206 450/651/445 659/805/526
f 659/805/526 450/651/445 168/653/447 357/806/527
f 372/192/153 659/805/526 357/806/527 97/194/155
f 376/804/419 451/648/442 167/575/386 95/807/421
f 86/225/183 162/241/199 452/616/414 368/808/331
f 368/808/331 452/616/414 170/587/394 102/809/333
f 102/809/333 170/587/394 530/586/393 529/810/334
f 453/811/528 530/812/393 627/597/396 693/596/402
f 95/807/421 167/575/386 557/574/385 556/813/422
f 525/814/529 330/668/458 636/671/461 685/796/522
f 542/143/113 650/276/168 700/279/202 257/96/76
f 240/762/24 2/42/23 437/40/39 660/763/507
f 660/763/507 437/40/39 164/39/38 455/400/292
f 31/211/170 292/437/321 661/815/530 367/642/437
f 292/437/321 161/435/319 456/441/325 661/815/530
f 661/815/530 456/441/325 169/463/340 359/816/531
f 367/642/437 661/815/530 359/816/531 93/644/439
f 1/817/258 300/818/257 662/819/532 239/820/533
f 300/818/257 37/761/256 439/764/508 662/819/532
f 662/819/532 439/764/508 166/403/295 457/411/301
f 239/820/533 662/819/532 457/411/301 147/420/307
f 660/763/507 455/400/292 166/403/295 439/764/508
f 351/412/297 465/13/13 163/361/261 88/413/298
f 88/413/298 163/361/261 458/358/259 329/421/304
f 39/821/271 314/822/12 673/823/534 482/824/535
f 329/421/304 458/358/259 165/357/29 55/427/308
f 442/183/144 159/182/143 80/235/193 431/234/192
f 498/443/327 194/442/326 478/466/342 664/465/341
f 76/473/290 157/169/72 459/166/48 386/474/290
f 74/481/290 156/146/64 558/145/63 552/482/290
f 386/474/290 459/166/48 171/165/48 114/483/290
f 72/494/349 155/136/111 461/135/108 397/495/350
f 508/825/408 364/826/407 105/827/412 201/639/434
f 70/508/290 154/90/72 462/87/48 419/509/290
f 397/510/350 461/132/108 173/131/107 124/511/356
f 150/752/504 178/773/514 146/537/359 62/536/358
f 419/509/290 462/87/48 177/86/48 144/520/290
f 66/525/290 152/75/64 539/74/63 537/526/290
f 280/188/149 533/797/523 656/317/139 684/318/201
f 64/534/363 151/63/54 464/62/51 408/535/364
f 137/297/215 494/828/536 472/829/536 10/315/215
f 408/543/364 464/59/51 176/58/50 136/542/366
f 164/39/38 581/38/35 580/548/369 53/547/371
f 165/29/29 566/26/26 565/558/372 55/557/308
f 580/559/369 581/35/35 236/34/34 234/560/374
f 58/564/377 148/14/14 465/13/13 351/412/297
f 565/558/372 566/26/26 222/25/25 220/496/355
f 186/528/362 495/251/208 434/175/136 63/529/363
f 190/484/348 497/232/190 429/438/322 71/485/349
f 27/795/131 477/830/537 663/430/314 298/238/196
f 477/830/537 193/680/466 496/429/313 663/430/314
f 495/251/208 195/196/157 81/176/137 434/175/136
f 196/231/189 507/635/430 374/831/410 83/439/323
f 14/788/99 468/832/538 664/465/341 295/468/344
f 468/832/538 184/760/506 498/443/327 664/465/341
f 496/429/313 197/428/312 481/431/315 663/430/314
f 472/829/536 494/828/536 210/515/291 188/399/291
f 128/833/79 491/834/539 469/835/540 13/836/80
f 14/788/99 254/837/97 665/838/541 468/832/538
f 254/839/97 138/840/96 493/841/542 665/842/541
f 665/842/541 493/841/542 209/518/360 499/743/498
f 468/832/538 665/838/541 499/759/498 184/760/506
f 11/325/241 252/749/215 666/843/536 471/844/543
f 252/749/215 127/316/215 492/845/536 666/843/536
f 666/843/536 492/845/536 208/398/291 500/740/291
f 471/844/543 666/843/536 500/740/291 187/521/346
f 469/835/540 491/834/539 207/541/367 185/519/361
f 13/836/80 469/835/540 493/841/542 138/840/96
f 569/802/525 490/801/524 206/507/357 223/715/486
f 107/264/215 488/846/536 584/847/544 225/699/476
f 23/285/224 273/722/215 667/848/536 475/849/545
f 273/722/215 119/726/215 489/850/536 667/848/536
f 667/848/536 489/850/536 205/683/291 502/684/291
f 475/849/545 667/848/536 502/684/291 191/475/346
f 584/847/544 488/846/536 204/480/291 237/674/464
f 216/366/265 568/851/546 489/850/536 119/726/215
f 27/795/131 281/852/129 668/853/547 477/830/537
f 281/854/129 109/855/128 487/856/548 668/857/547
f 668/857/547 487/856/548 203/656/450 504/657/451
f 477/830/537 668/853/547 504/679/451 193/680/466
f 33/467/343 478/466/342 669/858/549 381/661/454
f 478/466/342 194/442/326 505/655/449 669/858/549
f 669/858/549 505/655/449 199/592/398 483/859/550
f 381/661/454 669/858/549 483/859/550 98/663/456
f 29/239/197 481/431/315 670/860/551 377/630/425
f 481/431/315 197/428/312 506/601/404 670/860/551
f 670/860/551 506/601/404 202/565/379 486/861/552
f 377/630/425 670/860/551 486/861/552 91/632/427
f 374/831/410 507/635/430 201/639/434 105/827/412
f 558/145/63 460/862/553 337/573/290 552/482/290
f 554/664/457 98/663/456 483/859/550 671/863/554
f 671/863/554 483/859/550 199/592/398 559/595/401
f 365/864/440 454/865/555 169/463/340 100/462/339
f 363/461/338 529/454/334 530/866/393 453/867/528
f 527/633/428 91/632/427 486/861/552 672/868/556
f 672/868/556 486/861/552 202/565/379 531/568/382
f 314/822/12 8/869/11 467/870/557 673/823/534
f 673/823/534 467/870/557 183/561/376 510/406/296
f 216/366/265 561/369/268 674/871/558 568/851/546
f 561/369/268 7/377/273 246/872/559 674/871/558
f 674/871/558 246/872/559 180/552/309 567/551/373
f 568/851/546 674/871/558 567/551/373 224/563/378
f 230/873/477 576/874/560 675/875/561 583/876/562
f 576/877/560 4/5/5 241/3/3 675/878/561
f 675/878/561 241/3/3 179/2/2 582/546/370
f 583/876/562 675/875/561 582/553/370 238/556/375
f 493/841/542 469/835/540 185/519/361 209/518/360
f 10/315/215 472/829/536 492/845/536 127/316/215
f 128/833/79 404/879/503 676/880/563 491/834/539
f 404/881/503 12/793/90 470/792/521 676/882/563
f 676/882/563 470/792/521 186/528/362 511/531/365
f 491/834/539 676/880/563 511/538/365 207/541/367
f 343/667/290 537/526/290 539/74/63 463/883/553
f 532/322/240 11/325/241 471/844/543 677/884/564
f 677/884/564 471/844/543 187/521/346 540/524/347
f 492/845/536 472/829/536 188/399/291 208/398/291
f 137/297/215 415/300/215 678/885/536 494/828/536
f 415/300/215 9/308/234 473/886/565 678/885/536
f 678/885/536 473/886/565 189/500/345 513/503/291
f 494/828/536 678/885/536 513/503/291 210/515/291
f 117/800/496 393/887/495 679/888/566 490/801/524
f 393/889/495 21/779/125 474/778/515 679/890/566
f 679/890/566 474/778/515 190/484/348 514/487/351
f 490/801/524 679/888/566 514/504/351 206/507/357
f 554/891/457 671/892/554 698/893/567 358/894/519
f 541/71/60 23/285/224 475/849/545 680/72/61
f 680/72/61 475/849/545 191/475/346 560/478/347
f 698/893/567 671/892/554 559/895/401 508/896/408
f 107/264/215 382/267/215 681/897/536 488/846/536
f 382/267/215 25/275/220 476/898/568 681/897/536
f 681/897/536 476/898/568 192/469/345 516/472/291
f 488/846/536 681/897/536 516/472/291 204/480/291
f 7/899/273 245/900/272 682/901/569 246/902/559
f 245/900/272 39/821/271 482/824/535 682/901/569
f 682/901/569 482/824/535 198/409/299 517/418/305
f 246/902/559 682/901/569 517/418/305 180/424/309
f 673/823/534 510/406/296 198/409/299 482/824/535
f 353/404/293 520/1/1 181/382/278 90/405/294
f 90/405/294 181/382/278 518/379/275 327/414/300
f 49/272/218 324/164/132 688/184/145 524/186/147
f 327/414/300 518/379/275 182/378/274 51/422/306
f 195/196/157 519/199/160 371/903/570 81/176/137
f 371/903/570 519/199/160 200/204/165 104/904/462
f 54/544/368 179/2/2 520/1/1 353/404/293
f 343/667/290 463/883/553 157/169/72 76/473/290
f 25/275/220 279/388/284 683/905/571 476/898/568
f 696/906/572 672/907/556 531/908/382 509/909/423
f 476/898/568 683/905/571 512/532/354 192/469/345
f 683/905/571 677/884/564 540/524/347 512/532/354
f 253/112/89 521/191/152 654/254/195 695/257/210
f 363/910/338 453/911/528 168/653/447 96/652/446
f 26/712/150 280/912/149 684/243/201 297/228/186
f 287/256/209 523/255/198 631/913/426 694/914/573
f 85/915/184 525/814/529 685/796/522 380/916/403
f 694/914/573 631/913/426 527/917/428 354/918/574
f 380/916/403 685/796/522 528/628/381 106/919/380
f 509/920/423 362/921/424 104/904/462 200/204/165
f 337/573/290 460/862/553 154/90/72 70/508/290
f 330/585/392 331/584/392 82/922/138 81/923/137
f 279/388/284 532/322/240 677/884/564 683/905/571
f 463/883/553 539/74/63 598/77/66 689/109/86
f 25/275/220 283/274/219 686/387/283 279/388/284
f 283/273/219 49/272/218 524/186/147 686/527/283
f 255/79/68 691/924/329 613/262/211 522/110/87
f 36/229/187 293/244/166 687/925/167 373/617/415
f 690/389/285 610/187/148 301/259/212 535/390/286
f 373/617/415 687/925/167 360/591/172 101/590/397
f 324/164/132 27/163/131 521/191/152 688/184/145
f 157/169/72 463/883/553 689/109/86 284/170/133
f 284/170/133 689/109/86 522/110/87 28/171/134
f 318/108/85 20/107/56 533/797/523 690/389/285
f 15/78/67 267/335/245 691/924/329 255/79/68
f 267/334/245 43/333/244 535/390/286 691/448/329
f 82/926/575 331/455/335 692/456/336 369/927/576
f 369/927/576 692/456/336 363/461/338 96/928/446
f 168/653/447 453/911/528 693/929/402 357/806/527
f 357/806/527 693/929/402 538/195/156 97/194/155
f 30/200/161 287/252/209 694/930/573 370/201/162
f 370/201/162 694/930/573 354/931/574 92/202/163
f 12/113/90 253/112/89 695/257/210 299/932/205
f 92/202/163 354/931/574 696/933/572 484/203/164
f 484/203/164 696/933/572 509/920/423 200/204/165
f 9/308/234 251/70/59 697/73/62 473/886/565
f 697/73/62 680/72/61 560/478/347 515/493/354
f 473/886/565 697/73/62 515/493/354 189/500/345
f 99/637/432 358/934/519 698/935/567 485/638/433
f 485/638/433 698/935/567 508/825/408 201/639/434
f 557/936/385 454/937/555 365/646/440 556/625/422
f 543/215/173 652/938/520 699/939/516 271/156/124
f 21/779/125 271/940/124 699/780/516 296/218/176
f 18/777/77 257/941/76 700/245/202 426/47/41
f 35/219/177 291/781/517 701/942/518 378/636/431
f 378/636/431 701/942/518 358/934/519 99/637/432
f 32/48/42 288/246/203 702/943/452 379/649/443
f 379/649/443 702/943/452 355/579/390 94/578/389
f 84/944/318 333/641/436 703/640/435 366/945/324
f 366/945/324 703/640/435 365/646/440 100/946/339
f 79/947/194 549/618/416 704/619/417 375/948/448
f 375/948/448 704/619/417 555/606/400 103/949/399
f 557/950/385 626/603/388 705/602/405 454/951/555
f 169/463/340 454/865/555 705/952/405 359/816/531
f 359/816/531 705/952/405 553/645/406 93/644/439
f 549/460/337 550/459/337 333/581/391 332/580/391
f 652/938/520 546/790/453 291/791/517 699/939/516
f 558/145/63 606/148/116 709/153/121 460/862/553
f 22/149/117 275/296/229 706/391/287 272/150/118
f 275/295/229 47/294/228 548/152/120 706/464/287
f 9/308/234 270/307/233 707/338/246 251/70/59
f 270/306/233 46/305/232 547/222/180 707/339/246
f 321/124/100 14/123/99 543/215/173 708/216/174
f 154/90/72 460/862/553 709/153/121 264/91/73
f 264/91/73 709/153/121 544/154/122 17/92/74
f 322/130/106 24/129/105 542/143/113 710/144/114
f 489/850/536 568/851/546 224/563/378 205/683/291
f 222/25/25 174/734/48 126/497/290 220/496/355
f 8/869/11 244/953/9 711/954/577 467/870/557
f 244/955/9 211/803/8 569/802/525 711/956/577
f 711/956/577 569/802/525 223/715/486 501/957/578
f 467/870/557 711/954/577 501/958/578 183/561/376
f 215/489/352 221/728/493 447/959/579 339/490/353
f 223/715/486 214/488/352 338/491/353 501/957/578
f 339/960/353 447/961/579 148/14/14 58/564/377
f 315/393/18 6/962/17 562/963/580 712/394/288
f 712/394/288 562/963/580 217/731/494 570/718/489
f 148/14/14 447/961/579 713/964/581 247/15/15
f 447/959/579 221/728/493 571/727/492 713/965/581
f 713/965/581 571/727/492 217/730/494 562/966/580
f 247/15/15 713/964/581 562/967/580 6/17/17
f 5/31/31 248/968/264 714/969/582 249/32/32
f 248/970/264 40/392/263 563/395/289 714/971/582
f 714/971/582 563/395/289 218/719/490 572/720/491
f 249/32/32 714/969/582 572/729/491 212/33/33
f 712/394/288 570/718/489 218/719/490 563/395/289
f 403/716/487 575/7/7 213/371/269 122/717/488
f 501/958/578 338/972/353 57/562/377 183/561/376
f 219/499/355 125/498/290 205/683/291 224/563/378
f 338/972/353 339/960/353 58/564/377 57/562/377
f 228/673/463 229/799/463 335/973/583 334/974/583
f 234/560/374 116/570/383 115/569/383 233/555/374
f 122/717/488 213/371/269 573/370/266 398/724/94
f 38/975/280 313/976/6 716/977/584 578/978/585
f 222/25/25 574/28/28 402/735/49 174/734/48
f 398/725/94 573/367/266 216/366/265 119/726/215
f 402/735/49 574/28/28 212/33/33 118/286/69
f 117/737/496 211/8/8 575/7/7 403/716/487
f 230/873/477 583/876/562 487/856/548 109/855/128
f 487/856/548 583/876/562 238/556/375 203/656/450
f 236/34/34 172/706/482 116/570/383 234/560/374
f 3/979/282 243/980/586 715/981/587 466/982/277
f 243/980/586 225/699/476 584/847/544 715/981/587
f 715/981/587 584/847/544 237/674/464 503/983/588
f 466/982/277 715/981/587 503/983/588 182/984/274
f 229/799/463 235/697/475 449/985/589 335/973/583
f 237/674/464 228/673/463 334/974/583 503/983/588
f 335/973/583 449/985/589 147/986/307 52/987/306
f 313/976/6 4/988/5 576/989/560 716/977/584
f 716/977/584 576/989/560 230/700/477 585/687/469
f 610/187/148 325/190/151 50/260/213 301/259/212
f 147/986/307 449/985/589 717/990/590 239/991/533
f 449/985/589 235/697/475 586/696/474 717/990/590
f 717/990/590 586/696/474 231/345/250 577/348/253
f 239/991/533 717/990/590 577/348/253 1/356/258
f 3/979/282 242/992/281 718/993/591 243/980/586
f 242/994/281 38/975/280 578/978/585 718/995/591
f 718/995/591 578/978/585 232/688/470 587/689/471
f 243/980/586 718/993/591 587/698/471 225/699/476
f 716/977/584 585/687/469 232/688/470 578/978/585
f 392/685/467 590/19/19 227/350/254 112/686/468
f 503/983/588 334/974/583 51/996/306 182/984/274
f 233/555/374 115/569/383 203/656/450 238/556/375
f 334/974/583 335/973/583 52/987/306 51/996/306
f 112/686/468 227/350/254 588/349/251 387/694/225
f 236/34/34 589/37/37 391/707/483 172/706/482
f 387/695/225 588/346/251 231/345/250 110/173/69
f 391/707/483 589/37/37 226/45/20 108/709/484
f 108/714/484 226/20/20 590/19/19 392/685/467
f 114/483/290 229/799/463 228/673/463 113/479/290
f 150/752/504 260/51/45 425/50/44 178/773/514
f 652/789/520 295/468/344 33/467/343 546/660/453
f 354/997/574 527/998/428 672/907/556 696/906/572
